SplineFontDB: 3.2
FontName: ATM043-Regular
FullName: ATM043-Regular
FamilyName: ATM 043
Weight: Book
Version: 1.001
ItalicAngle: -11
UnderlinePosition: -271
UnderlineWidth: 102
Ascent: 1600
Descent: 400
InvalidEm: 0
sfntRevision: 0x00010042
LayerCount: 2
Layer: 0 1 "Back" 1
Layer: 1 1 "Fore" 0
XUID: [1021 192 2086997156 22477]
StyleMap: 0x0040
FSType: 8
OS2Version: 3
OS2_WeightWidthSlopeOnly: 0
OS2_UseTypoMetrics: 0
CreationTime: 1536233100
ModificationTime: 1545729297
PfmFamily: 17
TTFWeight: 400
TTFWidth: 5
LineGap: 0
VLineGap: 0
Panose: 2 0 5 5 0 0 0 2 0 2
OS2TypoAscent: 2000
OS2TypoAOffset: 0
OS2TypoDescent: -1320
OS2TypoDOffset: 0
OS2TypoLinegap: 0
OS2WinAscent: 2000
OS2WinAOffset: 0
OS2WinDescent: 744
OS2WinDOffset: 0
HheadAscent: 2000
HheadAOffset: 0
HheadDescent: -1320
HheadDOffset: 0
OS2SubXSize: 1400
OS2SubYSize: 1300
OS2SubXOff: 0
OS2SubYOff: 0
OS2SupXSize: 1400
OS2SupYSize: 1300
OS2SupXOff: 0
OS2SupYOff: 0
OS2StrikeYSize: 100
OS2StrikeYPos: 518
OS2CapHeight: 1586
OS2XHeight: -200
OS2Vendor: '    '
OS2CodePages: 00000001.00000000
OS2UnicodeRanges: 00100003.00000000.00000000.00000000
Lookup: 4 0 0 "'akhn' Akhand in Tamil2 lookup 0" { "'akhn' Akhand in Tamil2 lookup 0 subtable"  } ['akhn' ('tml2' <'dflt' > ) ]
Lookup: 4 0 0 "'akhn' Akhand in Tamil lookup 1" { "'akhn' Akhand in Tamil lookup 1 subtable"  } ['akhn' ('taml' <'dflt' > ) ]
Lookup: 4 0 0 "'half' Half Forms in Tamil lookup 2" { "'half' Half Forms in Tamil lookup 2 subtable"  } ['half' ('taml' <'dflt' > ) ]
Lookup: 4 0 0 "'haln' Halant Forms in Tamil2 lookup 3" { "'haln' Halant Forms in Tamil2 lookup 3 subtable"  } ['haln' ('tml2' <'dflt' > ) ]
Lookup: 4 0 0 "'haln' Halant Forms in Tamil lookup 4" { "'haln' Halant Forms in Tamil lookup 4 subtable"  } ['haln' ('taml' <'dflt' > ) ]
Lookup: 4 0 0 "'abvs' Above Base Substitutions lookup 5" { "'abvs' Above Base Substitutions lookup 5 subtable"  } ['abvs' ('taml' <'dflt' > 'tml2' <'dflt' > ) ]

StartChar: exclam
Encoding: 33 33 4
Width: 420
GlyphClass: 2
Flags: W
LayerCount: 2
Fore
SplineSet
314 676 m 1,0,-1
 264 252 l 1,1,-1
 172 252 l 1,2,-1
 120 676 l 1,3,-1
 120 1120 l 1,4,-1
 314 1120 l 1,5,-1
 314 676 l 1,0,-1
310 0 m 1,6,-1
 124 0 l 1,7,-1
 124 178 l 1,8,-1
 310 178 l 1,9,-1
 310 0 l 1,6,-1
EndSplineSet
EndChar

StartChar: quotedbl
Encoding: 34 34 5
Width: 606
GlyphClass: 2
Flags: W
LayerCount: 2
Fore
SplineSet
109 647 m 1,0,-1
 63 912 l 1,1,-1
 63 1140 l 1,2,-1
 257 1140 l 1,3,-1
 257 912 l 1,4,-1
 214 647 l 1,5,-1
 109 647 l 1,0,-1
423 647 m 1,6,-1
 378 912 l 1,7,-1
 378 1140 l 1,8,-1
 572 1140 l 1,9,-1
 572 912 l 1,10,-1
 527 647 l 1,11,-1
 423 647 l 1,6,-1
EndSplineSet
EndChar

StartChar: numbersign
Encoding: 35 35 6
Width: 1203
GlyphClass: 2
Flags: W
LayerCount: 2
Fore
SplineSet
179 22 m 1,0,-1
 264 356 l 1,1,-1
 103 356 l 1,2,-1
 103 473 l 1,3,-1
 288 473 l 1,4,-1
 358 761 l 1,5,-1
 103 761 l 1,6,-1
 103 876 l 1,7,-1
 386 876 l 1,8,-1
 471 1218 l 1,9,-1
 609 1218 l 1,10,-1
 526 876 l 1,11,-1
 817 876 l 1,12,-1
 903 1218 l 1,13,-1
 1041 1218 l 1,14,-1
 962 876 l 1,15,-1
 1124 876 l 1,16,-1
 1124 761 l 1,17,-1
 932 761 l 1,18,-1
 861 473 l 1,19,-1
 1124 473 l 1,20,-1
 1124 356 l 1,21,-1
 832 356 l 1,22,-1
 755 22 l 1,23,-1
 611 22 l 1,24,-1
 688 356 l 1,25,-1
 401 356 l 1,26,-1
 322 22 l 1,27,-1
 179 22 l 1,0,-1
435 473 m 1,28,-1
 724 473 l 1,29,-1
 792 761 l 1,30,-1
 501 761 l 1,31,-1
 435 473 l 1,28,-1
EndSplineSet
EndChar

StartChar: dollar
Encoding: 36 36 7
Width: 908
GlyphClass: 2
Flags: W
LayerCount: 2
Fore
SplineSet
766 302 m 0,0,1
 744 187 744 187 654 120 c 0,2,3
 572 60 572 60 456 60 c 1,4,-1
 456 -52 l 1,5,-1
 383 -52 l 1,6,-1
 383 60 l 1,7,8
 372 60 372 60 357 60 c 0,9,10
 336 65 336 65 330 71 c 2,11,-1
 264 92 l 2,12,13
 242 95 242 95 229.5 102.5 c 128,-1,14
 217 110 217 110 188 131 c 2,15,-1
 146 156 l 1,16,-1
 180 232 l 1,17,-1
 217 204 l 2,18,19
 259 169 259 169 284 156 c 2,20,-1
 336 137 l 1,21,-1
 383 134 l 1,22,-1
 383 518 l 1,23,24
 230 560 230 560 169 630 c 0,25,26
 99 710 99 710 99 838 c 2,27,-1
 99 872 l 1,28,-1
 104 912 l 2,29,30
 119 1045 119 1045 217 1126 c 0,31,32
 299 1192 299 1192 383 1192 c 1,33,-1
 383 1289 l 1,34,-1
 456 1289 l 1,35,-1
 456 1197 l 1,36,-1
 510 1191 l 2,37,38
 531 1191 531 1191 541.5 1190 c 128,-1,39
 552 1189 552 1189 578 1176 c 1,40,41
 688 1140 688 1140 688 1126 c 1,42,-1
 659 1037 l 1,43,-1
 646 1048 l 2,44,45
 615 1079 615 1079 563 1101 c 0,46,47
 537 1112 537 1112 517.5 1116.5 c 128,-1,48
 498 1121 498 1121 491 1121 c 0,49,50
 466 1121 466 1121 456 1126 c 1,51,-1
 456 739 l 1,52,53
 561 717 561 717 615 686 c 0,54,55
 773 594 773 594 773 404 c 2,56,-1
 772 355 l 2,57,58
 772 330 772 330 766 302 c 0,0,1
383 770 m 1,59,-1
 383 1126 l 1,60,61
 330 1121 330 1121 281 1080 c 0,62,63
 219 1030 219 1030 219 964 c 0,64,65
 219 872 219 872 283 819 c 0,66,67
 297 807 297 807 322.5 796 c 128,-1,68
 348 785 348 785 383 770 c 1,59,-1
653 317 m 0,69,70
 653 404 653 404 573 448 c 1,71,-1
 456 493 l 1,72,-1
 456 134 l 1,73,74
 547 134 547 134 600 185 c 128,-1,75
 653 236 653 236 653 317 c 0,69,70
EndSplineSet
EndChar

StartChar: percent
Encoding: 37 37 8
Width: 1388
GlyphClass: 2
Flags: W
LayerCount: 2
Fore
SplineSet
602 816 m 0,0,1
 602 696 602 696 520 615 c 128,-1,2
 438 534 438 534 318 532 c 0,3,4
 202 530 202 530 120 614 c 128,-1,5
 38 698 38 698 36 816 c 256,6,7
 34 934 34 934 117 1016 c 128,-1,8
 200 1098 200 1098 318 1098 c 0,9,10
 438 1098 438 1098 520 1016 c 128,-1,11
 602 934 602 934 602 816 c 0,0,1
1056 1106 m 1,12,-1
 438 -30 l 1,13,-1
 320 -30 l 1,14,-1
 938 1106 l 1,15,-1
 1056 1106 l 1,12,-1
1344 260 m 256,16,17
 1344 142 1344 142 1261 60 c 128,-1,18
 1178 -22 1178 -22 1060 -22 c 256,19,20
 942 -22 942 -22 860 60 c 128,-1,21
 778 142 778 142 778 260 c 0,22,23
 778 380 778 380 860 462 c 128,-1,24
 942 544 942 544 1060 544 c 256,25,26
 1178 544 1178 544 1261 461 c 128,-1,27
 1344 378 1344 378 1344 260 c 256,16,17
452 816 m 0,28,29
 454 866 454 866 414 906 c 128,-1,30
 374 946 374 946 318 948 c 0,31,32
 264 950 264 950 227 910 c 128,-1,33
 190 870 190 870 188 816 c 256,34,35
 186 762 186 762 225 724 c 128,-1,36
 264 686 264 686 318 686 c 0,37,38
 376 686 376 686 413 725 c 128,-1,39
 450 764 450 764 452 816 c 0,28,29
1190 260 m 0,40,41
 1190 316 1190 316 1152 354 c 128,-1,42
 1114 392 1114 392 1060 394 c 0,43,44
 1010 396 1010 396 970 356 c 128,-1,45
 930 316 930 316 928 260 c 0,46,47
 926 206 926 206 966 169 c 128,-1,48
 1006 132 1006 132 1060 130 c 0,49,50
 1112 128 1112 128 1151 167 c 128,-1,51
 1190 206 1190 206 1190 260 c 0,40,41
EndSplineSet
EndChar

StartChar: ampersand
Encoding: 38 38 9
Width: 1048
GlyphClass: 2
Flags: W
LayerCount: 2
Fore
SplineSet
968 108 m 1,0,-1
 852 6 l 1,1,-1
 762 110 l 1,2,3
 630 -10 630 -10 466 -16 c 0,4,5
 328 -22 328 -22 224 42 c 0,6,7
 98 122 98 122 96 274 c 0,8,9
 94 396 94 396 168 484 c 0,10,11
 208 530 208 530 324 612 c 1,12,-1
 298 640 l 2,13,14
 208 736 208 736 208 856 c 0,15,16
 208 960 208 960 275 1034 c 128,-1,17
 342 1108 342 1108 452 1112 c 0,18,19
 580 1116 580 1116 654 1042 c 0,20,21
 720 978 720 978 722 884 c 0,22,23
 726 784 726 784 672 708 c 0,24,25
 636 658 636 658 546 588 c 1,26,-1
 750 358 l 1,27,28
 800 462 800 462 802 590 c 1,29,-1
 956 590 l 1,30,31
 954 388 954 388 858 232 c 1,32,-1
 968 108 l 1,0,-1
568 880 m 0,33,34
 566 914 566 914 534 937 c 128,-1,35
 502 960 502 960 458 958 c 0,36,37
 370 954 370 954 370 856 c 0,38,39
 370 798 370 798 414 742 c 0,40,41
 430 724 430 724 444 704 c 1,42,43
 528 770 528 770 549 798 c 128,-1,44
 570 826 570 826 568 880 c 0,33,34
658 228 m 1,45,-1
 422 496 l 1,46,47
 324 424 324 424 294 392 c 0,48,49
 248 340 248 340 250 280 c 0,50,51
 256 132 256 132 460 138 c 0,52,53
 572 142 572 142 658 228 c 1,45,-1
EndSplineSet
EndChar

StartChar: quotesingle
Encoding: 39 39 10
Width: 368
GlyphClass: 2
Flags: W
LayerCount: 2
Fore
SplineSet
137 647 m 1,0,-1
 91 912 l 1,1,-1
 91 1140 l 1,2,-1
 285 1140 l 1,3,-1
 285 912 l 1,4,-1
 242 647 l 1,5,-1
 137 647 l 1,0,-1
EndSplineSet
EndChar

StartChar: parenleft
Encoding: 40 40 11
Width: 444
GlyphClass: 2
Flags: W
LayerCount: 2
Fore
SplineSet
402 1084 m 1,0,1
 308 902 308 902 276 800 c 0,2,3
 224 636 224 636 224 414 c 0,4,5
 224 88 224 88 358 -180 c 2,6,-1
 398 -260 l 1,7,-1
 288 -260 l 1,8,9
 60 70 60 70 60 402 c 0,10,11
 60 610 60 610 146 818 c 0,12,13
 198 944 198 944 246 1014 c 2,14,-1
 294 1084 l 1,15,-1
 402 1084 l 1,0,1
EndSplineSet
EndChar

StartChar: parenright
Encoding: 41 41 12
Width: 444
GlyphClass: 2
Flags: W
LayerCount: 2
Fore
SplineSet
388 402 m 0,0,1
 386 74 386 74 160 -260 c 1,2,-1
 50 -260 l 1,3,-1
 90 -180 l 2,4,5
 224 88 224 88 224 414 c 0,6,7
 224 628 224 628 170 800 c 0,8,9
 134 912 134 912 46 1084 c 1,10,-1
 154 1084 l 1,11,-1
 202 1014 l 2,12,13
 252 940 252 940 302 818 c 0,14,15
 390 602 390 602 388 402 c 0,0,1
EndSplineSet
EndChar

StartChar: asterisk
Encoding: 42 42 13
Width: 705
GlyphClass: 2
Flags: W
LayerCount: 2
Fore
SplineSet
646 1169 m 1,0,-1
 414 1121 l 1,1,-1
 592 981 l 1,2,-1
 451 875 l 1,3,-1
 346 1073 l 1,4,-1
 267 873 l 1,5,-1
 114 954 l 1,6,-1
 280 1125 l 1,7,-1
 48 1154 l 1,8,-1
 99 1307 l 1,9,-1
 300 1207 l 1,10,-1
 261 1434 l 1,11,-1
 432 1434 l 1,12,-1
 390 1212 l 1,13,-1
 594 1317 l 1,14,-1
 646 1169 l 1,0,-1
EndSplineSet
EndChar

StartChar: plus
Encoding: 43 43 14
Width: 880
GlyphClass: 2
Flags: W
LayerCount: 2
Fore
SplineSet
832 316 m 1,0,-1
 524 316 l 1,1,-1
 524 10 l 1,2,-1
 372 10 l 1,3,-1
 372 316 l 1,4,-1
 64 316 l 1,5,-1
 64 470 l 1,6,-1
 372 470 l 1,7,-1
 372 778 l 1,8,-1
 524 778 l 1,9,-1
 524 470 l 1,10,-1
 832 470 l 1,11,-1
 832 316 l 1,0,-1
EndSplineSet
EndChar

StartChar: comma
Encoding: 44 44 15
Width: 434
GlyphClass: 2
Flags: W
LayerCount: 2
Fore
SplineSet
332 40 m 2,0,1
 332 -142 332 -142 224 -212 c 0,2,3
 194 -232 194 -232 116 -258 c 1,4,-1
 116 -174 l 1,5,6
 176 -154 176 -154 206 -118 c 1,7,8
 230 -82 230 -82 230 0 c 1,9,-1
 110 0 l 1,10,-1
 110 220 l 1,11,-1
 332 220 l 1,12,-1
 332 40 l 2,0,1
EndSplineSet
EndChar

StartChar: hyphen
Encoding: 45 45 16
Width: 628
GlyphClass: 2
Flags: W
LayerCount: 2
Fore
SplineSet
540 316 m 1,0,-1
 96 316 l 1,1,-1
 96 470 l 1,2,-1
 540 470 l 1,3,-1
 540 316 l 1,0,-1
EndSplineSet
EndChar

StartChar: period
Encoding: 46 46 17
Width: 458
GlyphClass: 2
Flags: W
LayerCount: 2
Fore
SplineSet
338 0 m 1,0,-1
 106 0 l 1,1,-1
 106 226 l 1,2,-1
 338 226 l 1,3,-1
 338 0 l 1,0,-1
EndSplineSet
EndChar

StartChar: slash
Encoding: 47 47 18
Width: 686
GlyphClass: 2
Flags: W
LayerCount: 2
Fore
SplineSet
924 1118 m 1,0,-1
 -8 -288 l 1,1,-1
 -128 -288 l 1,2,-1
 804 1118 l 1,3,-1
 924 1118 l 1,0,-1
EndSplineSet
EndChar

StartChar: zero
Encoding: 48 48 19
Width: 784
GlyphClass: 2
Flags: W
LayerCount: 2
Fore
SplineSet
716 482 m 0,0,1
 716 237 716 237 628.5 102 c 128,-1,2
 541 -33 541 -33 389 -33 c 256,3,4
 237 -33 237 -33 148.5 102 c 128,-1,5
 60 237 60 237 60 482 c 0,6,7
 60 731 60 731 150 867 c 0,8,9
 237 996 237 996 389 996 c 0,10,11
 539 996 539 996 627.5 862.5 c 128,-1,12
 716 729 716 729 716 482 c 0,0,1
577 482 m 0,13,14
 577 857 577 857 389 857 c 0,15,16
 198 857 198 857 198 482 c 256,17,18
 198 107 198 107 389 107 c 0,19,20
 575 107 575 107 577 482 c 0,13,14
EndSplineSet
EndChar

StartChar: one
Encoding: 49 49 20
Width: 783
GlyphClass: 2
Flags: W
LayerCount: 2
Fore
SplineSet
489 0 m 1,0,-1
 350 0 l 1,1,-1
 350 685 l 1,2,-1
 139 685 l 1,3,-1
 139 822 l 1,4,5
 350 822 350 822 350 993 c 1,6,-1
 489 993 l 1,7,-1
 489 0 l 1,0,-1
EndSplineSet
EndChar

StartChar: two
Encoding: 50 50 21
Width: 783
GlyphClass: 2
Flags: W
LayerCount: 2
Fore
SplineSet
727 697 m 0,0,1
 727 525 727 525 633 430 c 0,2,3
 594 388 594 388 446 305 c 0,4,5
 374 265 374 265 303.5 223.5 c 128,-1,6
 233 182 233 182 227 139 c 1,7,-1
 725 139 l 1,8,-1
 725 0 l 1,9,-1
 51 0 l 1,10,-1
 53 69 l 2,11,12
 55 164 55 164 109 236 c 0,13,14
 150 290 150 290 229 339 c 0,15,16
 294 377 294 377 360 413 c 0,17,18
 482 488 482 488 511 514 c 0,19,20
 581 578 581 578 581 669 c 0,21,22
 581 857 581 857 384 857 c 0,23,24
 289 857 289 857 235 787 c 0,25,26
 189 727 189 727 193 657 c 1,27,-1
 57 657 l 1,28,29
 57 807 57 807 152 901.5 c 128,-1,30
 247 996 247 996 388 996 c 0,31,32
 547 996 547 996 643 904 c 0,33,34
 727 819 727 819 727 697 c 0,0,1
EndSplineSet
EndChar

StartChar: three
Encoding: 51 51 22
Width: 784
GlyphClass: 2
Flags: W
LayerCount: 2
Fore
SplineSet
719 290 m 0,0,1
 720 150 720 150 616 63 c 0,2,3
 521 -16 521 -16 379 -13 c 0,4,5
 243 -9 243 -9 147.5 80.5 c 128,-1,6
 52 170 52 170 53 305 c 1,7,-1
 192 305 l 1,8,9
 194 216 194 216 250 170 c 0,10,11
 300 126 300 126 381 126 c 0,12,13
 463 126 463 126 517 166 c 0,14,15
 578 211 578 211 578 290 c 0,16,17
 578 357 578 357 532 405 c 128,-1,18
 486 453 486 453 407 453 c 2,19,-1
 300 453 l 1,20,-1
 300 592 l 1,21,-1
 395 592 l 2,22,23
 544 592 544 592 544 729 c 0,24,25
 544 858 544 858 381 858 c 0,26,27
 212 858 212 858 206 680 c 1,28,-1
 68 680 l 1,29,30
 64 816 64 816 156 906 c 128,-1,31
 248 996 248 996 379 996 c 0,32,33
 508 996 508 996 596 928 c 0,34,35
 692 852 692 852 692 727 c 0,36,37
 692 590 692 590 575 535 c 1,38,39
 718 467 718 467 719 290 c 0,0,1
EndSplineSet
EndChar

StartChar: four
Encoding: 52 52 23
Width: 783
GlyphClass: 2
Flags: W
LayerCount: 2
Fore
SplineSet
736 216 m 1,0,-1
 624 216 l 1,1,-1
 624 0 l 1,2,-1
 483 0 l 1,3,-1
 483 216 l 1,4,-1
 90 216 l 1,5,-1
 90 387 l 1,6,-1
 457 993 l 1,7,-1
 624 993 l 1,8,-1
 624 354 l 1,9,-1
 736 354 l 1,10,-1
 736 216 l 1,0,-1
483 354 m 1,11,-1
 483 796 l 1,12,-1
 222 354 l 1,13,-1
 483 354 l 1,11,-1
EndSplineSet
EndChar

StartChar: five
Encoding: 53 53 24
Width: 784
GlyphClass: 2
Flags: W
LayerCount: 2
Fore
SplineSet
722 332 m 0,0,1
 724 174 724 174 626 81.5 c 128,-1,2
 528 -11 528 -11 377 -11 c 0,3,4
 248 -11 248 -11 149 80.5 c 128,-1,5
 50 172 50 172 50 292 c 1,6,-1
 188 292 l 1,7,8
 199 218 199 218 251.5 173 c 128,-1,9
 304 128 304 128 379 128 c 0,10,11
 580 128 580 128 584 332 c 0,12,13
 586 406 586 406 528 459.5 c 128,-1,14
 470 513 470 513 393 515 c 0,15,16
 273 518 273 518 223 424 c 1,17,-1
 86 441 l 1,18,-1
 150 993 l 1,19,-1
 690 993 l 1,20,-1
 690 856 l 1,21,-1
 273 856 l 1,22,-1
 246 623 l 1,23,24
 311 652 311 652 393 652 c 0,25,26
 526 652 526 652 623 559.5 c 128,-1,27
 720 467 720 467 722 332 c 0,0,1
EndSplineSet
EndChar

StartChar: six
Encoding: 54 54 25
Width: 784
GlyphClass: 2
Flags: W
LayerCount: 2
Fore
SplineSet
724 323 m 0,0,1
 724 148 724 148 620 58 c 0,2,3
 528 -24 528 -24 381 -24 c 0,4,5
 235 -24 235 -24 145 102 c 0,6,7
 50 236 50 236 50 471 c 0,8,9
 50 716 50 716 149 858 c 0,10,11
 246 996 246 996 411 996 c 0,12,13
 522 996 522 996 605 923 c 128,-1,14
 688 850 688 850 704 745 c 1,15,-1
 562 745 l 1,16,17
 529 856 529 856 403 856 c 0,18,19
 323 856 323 856 268 792 c 0,20,21
 199 714 199 714 192 561 c 1,22,23
 273 649 273 649 413 649 c 0,24,25
 542 649 542 649 630 565 c 0,26,27
 724 473 724 473 724 323 c 0,0,1
587 310 m 0,28,29
 587 509 587 509 409 509 c 0,30,31
 329 509 329 509 278.5 454 c 128,-1,32
 228 399 228 399 228 315 c 0,33,34
 228 229 228 229 275 171.5 c 128,-1,35
 322 114 322 114 409 114 c 0,36,37
 491 114 491 114 539 169.5 c 128,-1,38
 587 225 587 225 587 310 c 0,28,29
EndSplineSet
EndChar

StartChar: seven
Encoding: 55 55 26
Width: 782
GlyphClass: 2
Flags: W
LayerCount: 2
Fore
SplineSet
738 844 m 1,0,1
 626 697 626 697 546 559 c 0,2,3
 355 228 355 228 349 0 c 1,4,-1
 203 0 l 1,5,6
 223 379 223 379 570 856 c 1,7,-1
 42 856 l 1,8,-1
 42 993 l 1,9,-1
 738 993 l 1,10,-1
 738 844 l 1,0,1
EndSplineSet
EndChar

StartChar: eight
Encoding: 56 56 27
Width: 784
GlyphClass: 2
Flags: W
LayerCount: 2
Fore
SplineSet
736 279 m 0,0,1
 738 134 738 134 622 50 c 0,2,3
 519 -26 519 -26 379 -24 c 256,4,5
 239 -22 239 -22 144 60 c 0,6,7
 40 148 40 148 42 279 c 0,8,9
 46 438 46 438 170 511 c 1,10,11
 80 577 80 577 80 716 c 0,12,13
 80 838 80 838 165 917 c 128,-1,14
 250 996 250 996 379 996 c 0,15,16
 513 996 513 996 600 929 c 0,17,18
 696 854 696 854 696 716 c 0,19,20
 696 584 696 584 606 511 c 1,21,22
 732 438 732 438 736 279 c 0,0,1
559 714 m 0,23,24
 559 774 559 774 508 815 c 128,-1,25
 457 856 457 856 389 856 c 0,26,27
 317 856 317 856 267 815 c 128,-1,28
 217 774 217 774 217 714 c 0,29,30
 217 656 217 656 268 614.5 c 128,-1,31
 319 573 319 573 389 573 c 0,32,33
 457 573 457 573 508 614.5 c 128,-1,34
 559 656 559 656 559 714 c 0,23,24
591 277 m 256,35,36
 591 344 591 344 531.5 391 c 128,-1,37
 472 438 472 438 389 438 c 0,38,39
 304 438 304 438 244.5 391 c 128,-1,40
 185 344 185 344 185 277 c 256,41,42
 185 210 185 210 245.5 162 c 128,-1,43
 306 114 306 114 389 114 c 256,44,45
 472 114 472 114 531.5 162 c 128,-1,46
 591 210 591 210 591 277 c 256,35,36
EndSplineSet
EndChar

StartChar: nine
Encoding: 57 57 28
Width: 782
GlyphClass: 2
Flags: W
LayerCount: 2
Fore
SplineSet
726 505 m 0,0,1
 726 263 726 263 623.5 120.5 c 128,-1,2
 521 -22 521 -22 361 -22 c 0,3,4
 247 -22 247 -22 161.5 54 c 128,-1,5
 76 130 76 130 62 234 c 1,6,-1
 207 234 l 1,7,8
 234 116 234 116 361 116 c 0,9,10
 441 116 441 116 497 176 c 0,11,12
 568 252 568 252 581 405 c 1,13,14
 503 325 503 325 367 325 c 0,15,16
 236 325 236 325 149 411 c 0,17,18
 58 501 58 501 58 653 c 0,19,20
 58 826 58 826 162 916 c 0,21,22
 252 996 252 996 399 996 c 0,23,24
 553 996 553 996 638 874 c 0,25,26
 726 745 726 745 726 505 c 0,0,1
553 657 m 0,27,28
 553 743 553 743 506 800.5 c 128,-1,29
 459 858 459 858 375 858 c 0,30,31
 290 858 290 858 242 803 c 128,-1,32
 194 748 194 748 194 664 c 0,33,34
 194 465 194 465 373 465 c 0,35,36
 453 465 453 465 503 519 c 128,-1,37
 553 573 553 573 553 657 c 0,27,28
EndSplineSet
EndChar

StartChar: colon
Encoding: 58 58 29
Width: 520
GlyphClass: 2
Flags: W
LayerCount: 2
Fore
SplineSet
408 572 m 1,0,-1
 176 572 l 1,1,-1
 176 798 l 1,2,-1
 408 798 l 1,3,-1
 408 572 l 1,0,-1
408 0 m 1,4,-1
 176 0 l 1,5,-1
 176 226 l 1,6,-1
 408 226 l 1,7,-1
 408 0 l 1,4,-1
EndSplineSet
EndChar

StartChar: semicolon
Encoding: 59 59 30
Width: 520
GlyphClass: 2
Flags: W
LayerCount: 2
Fore
SplineSet
408 572 m 1,0,-1
 176 572 l 1,1,-1
 176 798 l 1,2,-1
 408 798 l 1,3,-1
 408 572 l 1,0,-1
408 40 m 2,4,5
 408 -26 408 -26 382 -98 c 128,-1,6
 356 -170 356 -170 292 -212 c 0,7,8
 262 -232 262 -232 184 -258 c 1,9,-1
 184 -174 l 1,10,11
 244 -154 244 -154 274 -118 c 1,12,13
 296 -84 296 -84 300 0 c 1,14,-1
 180 0 l 1,15,-1
 180 224 l 1,16,-1
 408 224 l 1,17,-1
 408 40 l 2,4,5
EndSplineSet
EndChar

StartChar: less
Encoding: 60 60 31
Width: 1240
GlyphClass: 2
Flags: W
LayerCount: 2
Fore
SplineSet
993 0 m 1,0,-1
 4 471 l 1,1,-1
 4 589 l 1,2,-1
 993 1070 l 1,3,-1
 993 859 l 1,4,-1
 261 531 l 1,5,-1
 993 202 l 1,6,-1
 993 0 l 1,0,-1
EndSplineSet
EndChar

StartChar: equal
Encoding: 61 61 32
Width: 818
GlyphClass: 2
Flags: W
LayerCount: 2
Fore
SplineSet
782 466 m 1,0,-1
 40 466 l 1,1,-1
 40 620 l 1,2,-1
 782 620 l 1,3,-1
 782 466 l 1,0,-1
782 168 m 1,4,-1
 40 168 l 1,5,-1
 40 322 l 1,6,-1
 782 322 l 1,7,-1
 782 168 l 1,4,-1
EndSplineSet
EndChar

StartChar: greater
Encoding: 62 62 33
Width: 1306
GlyphClass: 2
Flags: W
LayerCount: 2
Fore
SplineSet
242 202 m 1,0,-1
 974 531 l 1,1,-1
 242 859 l 1,2,-1
 242 1070 l 1,3,-1
 1231 589 l 1,4,-1
 1231 471 l 1,5,-1
 242 0 l 1,6,-1
 242 202 l 1,0,-1
EndSplineSet
EndChar

StartChar: question
Encoding: 63 63 34
Width: 926
GlyphClass: 2
Flags: W
LayerCount: 2
Fore
SplineSet
836 824 m 0,0,1
 836 694 836 694 750 604 c 0,2,3
 710 564 710 564 618 512 c 0,4,5
 560 478 560 478 538 439 c 128,-1,6
 516 400 516 400 516 326 c 1,7,-1
 364 326 l 1,8,9
 364 492 364 492 434 572 c 0,10,11
 450 592 450 592 538 644 c 0,12,13
 672 724 672 724 672 820 c 0,14,15
 672 978 672 978 458 978 c 0,16,17
 250 978 250 978 240 770 c 1,18,-1
 86 770 l 1,19,20
 80 942 80 942 194 1042 c 0,21,22
 296 1132 296 1132 458 1132 c 0,23,24
 624 1132 624 1132 730 1048 c 128,-1,25
 836 964 836 964 836 824 c 0,0,1
516 0 m 1,26,-1
 364 0 l 1,27,-1
 364 206 l 1,28,-1
 516 206 l 1,29,-1
 516 0 l 1,26,-1
EndSplineSet
EndChar

StartChar: at
Encoding: 64 64 35
Width: 1619
GlyphClass: 2
Flags: W
LayerCount: 2
Fore
SplineSet
877 71 m 0,0,1
 870 83 870 83 867 104 c 1,2,3
 849 87 849 87 827.5 71 c 128,-1,4
 806 55 806 55 783 41 c 0,5,6
 711 -2 711 -2 640 -2 c 0,7,8
 564 -2 564 -2 495 41 c 128,-1,9
 426 84 426 84 381 178 c 0,10,11
 336 269 336 269 336 371 c 0,12,13
 336 493 336 493 401 626 c 0,14,15
 467 758 467 758 568 824 c 0,16,17
 668 890 668 890 764 890 c 0,18,19
 843 890 843 890 903 851 c 0,20,21
 929 837 929 837 950.5 818.5 c 128,-1,22
 972 800 972 800 991 774 c 1,23,24
 996 798 996 798 1002 821.5 c 128,-1,25
 1008 845 1008 845 1013 865 c 1,26,-1
 1190 865 l 1,27,-1
 1073 320 l 1,28,-1
 1050 195 l 2,29,30
 1051 190 1051 190 1054 185.5 c 128,-1,31
 1057 181 1057 181 1062 176 c 2,32,-1
 1060 178 l 2,33,34
 1072 168 1072 168 1085 168 c 0,35,36
 1122 168 1122 168 1181 210 c 0,37,38
 1263 267 1263 267 1316 371 c 0,39,40
 1370 474 1370 474 1370 583 c 0,41,42
 1370 702 1370 702 1304 813 c 0,43,44
 1272 869 1272 869 1223.5 913 c 128,-1,45
 1175 957 1175 957 1112 991 c 0,46,47
 1048 1021 1048 1021 977.5 1040.5 c 128,-1,48
 907 1060 907 1060 829 1060 c 0,49,50
 648 1060 648 1060 503 976 c 0,51,52
 429 934 429 934 372.5 874 c 128,-1,53
 316 814 316 814 274 733 c 0,54,55
 191 570 191 570 191 402 c 0,56,57
 191 311 191 311 211 230.5 c 128,-1,58
 231 150 231 150 271 83.5 c 128,-1,59
 311 17 311 17 369 -34 c 128,-1,60
 427 -85 427 -85 504 -118 c 0,61,62
 582 -152 582 -152 668 -168 c 128,-1,63
 754 -184 754 -184 849 -184 c 0,64,65
 1050 -184 1050 -184 1181 -119 c 0,66,67
 1315 -54 1315 -54 1393 54 c 1,68,-1
 1574 54 l 1,69,70
 1519 -65 1519 -65 1421 -148 c 0,71,72
 1374 -188 1374 -188 1310.5 -223.5 c 128,-1,73
 1247 -259 1247 -259 1181 -285 c 0,74,75
 1152 -295 1152 -295 1113 -305.5 c 128,-1,76
 1074 -316 1074 -316 1031 -324 c 0,77,78
 993 -331 993 -331 951 -334.5 c 128,-1,79
 909 -338 909 -338 852 -338 c 0,80,81
 716 -338 716 -338 599 -312 c 128,-1,82
 482 -286 482 -286 387 -235.5 c 128,-1,83
 292 -185 292 -185 220.5 -110.5 c 128,-1,84
 149 -36 149 -36 104 61 c 0,85,86
 37 219 37 219 37 388 c 0,87,88
 37 488 37 488 57.5 580 c 128,-1,89
 78 672 78 672 117 760 c 0,90,91
 217 973 217 973 394 1091 c 0,92,93
 575 1210 575 1210 835 1210 c 0,94,95
 935 1210 935 1210 1022 1190.5 c 128,-1,96
 1109 1171 1109 1171 1191 1129 c 0,97,98
 1272 1090 1272 1090 1335.5 1029 c 128,-1,99
 1399 968 1399 968 1448 883 c 0,100,101
 1523 740 1523 740 1523 581 c 0,102,103
 1523 464 1523 464 1480.5 359 c 128,-1,104
 1438 254 1438 254 1358 163 c 0,105,106
 1285 85 1285 85 1202.5 41.5 c 128,-1,107
 1120 -2 1120 -2 1033 -2 c 2,108,-1
 1012 -2 l 1,109,-1
 977 0 l 2,110,111
 954 4 954 4 933 18 c 1,112,-1
 934 18 l 1,113,114
 917 27 917 27 903.5 40.5 c 128,-1,115
 890 54 890 54 877 71 c 0,0,1
521 360 m 0,116,117
 521 261 521 261 566 207 c 0,118,119
 610 154 610 154 667 154 c 0,120,121
 707 154 707 154 753.5 178.5 c 128,-1,122
 800 203 800 203 839 251 c 0,123,124
 859 274 859 274 876.5 305.5 c 128,-1,125
 894 337 894 337 907 376 c 0,126,127
 936 455 936 455 936 530 c 0,128,129
 936 627 936 627 889 682 c 0,130,131
 844 735 844 735 774 735 c 0,132,133
 751 735 751 735 730 729.5 c 128,-1,134
 709 724 709 724 690 711 c 0,135,136
 646 687 646 687 611 636 c 128,-1,137
 576 585 576 585 545 500 c 1,138,-1
 545 501 l 1,139,140
 521 427 521 427 521 360 c 0,116,117
EndSplineSet
EndChar

StartChar: bracketleft
Encoding: 91 91 36
Width: 426
GlyphClass: 2
Flags: W
LayerCount: 2
Fore
SplineSet
89 1496 m 1,0,-1
 404 1496 l 1,1,-1
 404 1328 l 1,2,-1
 252 1328 l 1,3,-1
 252 -81 l 1,4,-1
 404 -81 l 1,5,-1
 404 -259 l 1,6,-1
 89 -259 l 1,7,-1
 89 1496 l 1,0,-1
EndSplineSet
EndChar

StartChar: backslash
Encoding: 92 92 37
Width: 865
GlyphClass: 2
Flags: W
LayerCount: 2
Fore
SplineSet
184 1239 m 1,0,-1
 838 -119 l 1,1,-1
 674 -119 l 1,2,-1
 16 1239 l 1,3,-1
 184 1239 l 1,0,-1
EndSplineSet
EndChar

StartChar: bracketright
Encoding: 93 93 38
Width: 428
GlyphClass: 2
Flags: W
LayerCount: 2
Fore
SplineSet
331 -259 m 1,0,-1
 16 -259 l 1,1,-1
 16 -81 l 1,2,-1
 169 -81 l 1,3,-1
 169 1328 l 1,4,-1
 16 1328 l 1,5,-1
 16 1496 l 1,6,-1
 331 1496 l 1,7,-1
 331 -259 l 1,0,-1
EndSplineSet
EndChar

StartChar: asciicircum
Encoding: 94 94 39
Width: 719
GlyphClass: 2
Flags: W
LayerCount: 2
Fore
SplineSet
180 450 m 1,0,-1
 43 450 l 1,1,-1
 306 1234 l 1,2,-1
 414 1234 l 1,3,-1
 674 450 l 1,4,-1
 540 450 l 1,5,-1
 358 1032 l 1,6,-1
 180 450 l 1,0,-1
EndSplineSet
EndChar

StartChar: underscore
Encoding: 95 95 40
Width: 1192
GlyphClass: 2
Flags: W
LayerCount: 2
Fore
SplineSet
108 -333 m 1,0,-1
 108 -226 l 1,1,-1
 1083 -226 l 1,2,-1
 1083 -333 l 1,3,-1
 108 -333 l 1,0,-1
EndSplineSet
EndChar

StartChar: braceleft
Encoding: 123 123 41
Width: 623
GlyphClass: 2
Flags: W
LayerCount: 2
Fore
SplineSet
124 705 m 1,0,1
 178 705 178 705 213.5 737.5 c 128,-1,2
 249 770 249 770 260 823 c 1,3,-1
 260 820 l 1,4,-1
 265 921 l 2,5,6
 267 948 267 948 269 977.5 c 128,-1,7
 271 1007 271 1007 273 1034 c 0,8,9
 273 1111 273 1111 274 1164.5 c 128,-1,10
 275 1218 275 1218 277 1247 c 0,11,12
 279 1277 279 1277 284.5 1305.5 c 128,-1,13
 290 1334 290 1334 299 1358 c 0,14,15
 318 1407 318 1407 345 1437.5 c 128,-1,16
 372 1468 372 1468 420 1485 c 0,17,18
 460 1500 460 1500 518 1500 c 2,19,-1
 578 1500 l 1,20,-1
 578 1319 l 1,21,-1
 533 1319 l 2,22,23
 473 1319 473 1319 451 1287 c 1,24,-1
 452 1288 l 1,25,26
 432 1259 432 1259 432 1151 c 2,27,-1
 432 960 l 1,28,-1
 429 892 l 2,29,30
 429 867 429 867 423 851 c 0,31,32
 417 804 417 804 404.5 764.5 c 128,-1,33
 392 725 392 725 376 698 c 0,34,35
 363 678 363 678 342 655.5 c 128,-1,36
 321 633 321 633 297 613 c 1,37,38
 363 567 363 567 394 494 c 0,39,40
 412 449 412 449 422 376 c 128,-1,41
 432 303 432 303 432 203 c 2,42,-1
 434 -5 l 2,43,44
 437 -58 437 -58 454 -78 c 1,45,-1
 482 -93 l 1,46,47
 501 -97 501 -97 533 -97 c 2,48,-1
 578 -97 l 1,49,-1
 578 -275 l 1,50,-1
 518 -275 l 2,51,52
 442 -275 442 -275 409 -261 c 0,53,54
 363 -237 363 -237 324 -189 c 1,55,56
 298 -148 298 -148 281 -64 c 0,57,58
 277 -29 277 -29 275 31.5 c 128,-1,59
 273 92 273 92 273 177 c 0,60,61
 273 258 273 258 270 313.5 c 128,-1,62
 267 369 267 369 260 399 c 0,63,64
 248 454 248 454 220 485 c 1,65,66
 200 499 200 499 176.5 507 c 128,-1,67
 153 515 153 515 124 515 c 1,68,-1
 124 705 l 1,0,1
EndSplineSet
EndChar

StartChar: bar
Encoding: 124 124 42
Width: 313
GlyphClass: 2
Flags: W
LayerCount: 2
Fore
SplineSet
70 -259 m 1,0,-1
 70 1586 l 1,1,-1
 242 1586 l 1,2,-1
 239 -259 l 1,3,-1
 70 -259 l 1,0,-1
EndSplineSet
EndChar

StartChar: braceright
Encoding: 125 125 43
Width: 547
GlyphClass: 2
Flags: W
LayerCount: 2
Fore
SplineSet
489 517 m 1,0,1
 458 517 458 517 435 510 c 128,-1,2
 412 503 412 503 395 489 c 0,3,4
 379 472 379 472 368 451 c 128,-1,5
 357 430 357 430 351 401 c 0,6,7
 339 341 339 341 339 179 c 0,8,9
 339 11 339 11 330 -59 c 0,10,11
 316 -146 316 -146 289 -187 c 0,12,13
 270 -210 270 -210 248.5 -228.5 c 128,-1,14
 227 -247 227 -247 203 -259 c 0,15,16
 170 -273 170 -273 94 -273 c 2,17,-1
 33 -273 l 1,18,-1
 33 -95 l 1,19,-1
 79 -95 l 2,20,21
 96 -95 96 -95 108 -93.5 c 128,-1,22
 120 -92 120 -92 131 -90 c 2,23,-1
 158 -76 l 1,24,25
 176 -55 176 -55 179 -2 c 0,26,27
 179 49 179 49 180 101 c 128,-1,28
 181 153 181 153 181 205 c 0,29,30
 181 306 181 306 190 378.5 c 128,-1,31
 199 451 199 451 218 496 c 0,32,33
 252 572 252 572 315 615 c 1,34,35
 290 635 290 635 269 657.5 c 128,-1,36
 248 680 248 680 235 700 c 0,37,38
 219 726 219 726 207.5 767 c 128,-1,39
 196 808 196 808 188 853 c 0,40,41
 185 861 185 861 184.5 870.5 c 128,-1,42
 184 880 184 880 184 894 c 2,43,-1
 181 962 l 1,44,-1
 181 1153 l 2,45,46
 181 1261 181 1261 161 1290 c 1,47,-1
 162 1289 l 1,48,49
 140 1321 140 1321 79 1321 c 2,50,-1
 33 1321 l 1,51,-1
 33 1502 l 1,52,-1
 94 1502 l 2,53,54
 153 1502 153 1502 191 1487 c 0,55,56
 237 1470 237 1470 265.5 1439 c 128,-1,57
 294 1408 294 1408 311 1360 c 0,58,59
 321 1336 321 1336 326.5 1307.5 c 128,-1,60
 332 1279 332 1279 334 1249 c 0,61,62
 336 1220 336 1220 337.5 1166 c 128,-1,63
 339 1112 339 1112 339 1037 c 1,64,-1
 348 923 l 1,65,-1
 352 825 l 1,66,67
 364 773 364 773 399 740 c 128,-1,68
 434 707 434 707 489 707 c 1,69,-1
 489 517 l 1,0,1
EndSplineSet
EndChar

StartChar: asciitilde
Encoding: 126 126 44
Width: 1161
GlyphClass: 2
Flags: W
LayerCount: 2
Fore
SplineSet
1045 747 m 1,0,-1
 1086 747 l 1,1,2
 1082 571 1082 571 1014 469.5 c 128,-1,3
 946 368 946 368 850 368 c 0,4,5
 807 368 807 368 757.5 389 c 128,-1,6
 708 410 708 410 503 535 c 0,7,8
 356 620 356 620 294 620 c 0,9,10
 229 620 229 620 183.5 562 c 128,-1,11
 138 504 138 504 118 371 c 1,12,-1
 75 371 l 1,13,14
 83 557 83 557 148.5 654.5 c 128,-1,15
 214 752 214 752 302 752 c 0,16,17
 342 752 342 752 387 732 c 0,18,19
 484 691 484 691 642.5 592.5 c 128,-1,20
 801 494 801 494 867 494 c 0,21,22
 936 494 936 494 985 559.5 c 128,-1,23
 1034 625 1034 625 1045 747 c 1,0,-1
EndSplineSet
EndChar

StartChar: cent
Encoding: 162 162 45
Width: 721
GlyphClass: 2
Flags: W
LayerCount: 2
Fore
SplineSet
598 156 m 1,0,1
 537 71 537 71 467 31 c 128,-1,2
 397 -9 397 -9 304 -17 c 1,3,-1
 228 -265 l 1,4,-1
 187 -265 l 1,5,-1
 262 -17 l 1,6,7
 177 -8 177 -8 128.5 47 c 128,-1,8
 80 102 80 102 80 188 c 0,9,10
 80 345 80 345 191.5 478.5 c 128,-1,11
 303 612 303 612 457 638 c 1,12,-1
 541 917 l 1,13,-1
 580 917 l 1,14,-1
 499 638 l 1,15,16
 580 638 580 638 616.5 607 c 128,-1,17
 653 576 653 576 653 523 c 0,18,19
 653 482 653 482 631.5 455.5 c 128,-1,20
 610 429 610 429 580 429 c 0,21,22
 557 429 557 429 544 442 c 128,-1,23
 531 455 531 455 531 476 c 0,24,25
 531 491 531 491 536 502 c 128,-1,26
 541 513 541 513 560.5 534.5 c 128,-1,27
 580 556 580 556 580 570 c 0,28,29
 580 578 580 578 575 585 c 0,30,31
 565 596 565 596 549.5 601 c 128,-1,32
 534 606 534 606 489 606 c 1,33,-1
 322 49 l 1,34,-1
 352 47 l 1,35,36
 470 47 470 47 580 173 c 1,37,-1
 598 156 l 1,0,1
284 57 m 1,38,-1
 445 598 l 1,39,40
 383 570 383 570 342 533 c 0,41,42
 274 467 274 467 237 380.5 c 128,-1,43
 200 294 200 294 200 205 c 0,44,45
 200 146 200 146 224 108 c 0,46,47
 243 81 243 81 284 57 c 1,38,-1
EndSplineSet
EndChar

StartChar: multiply
Encoding: 215 215 46
Width: 975
GlyphClass: 2
Flags: W
LayerCount: 2
Fore
SplineSet
267 230 m 1,0,-1
 515 479 l 1,1,-1
 267 728 l 1,2,-1
 308 768 l 1,3,-1
 556 520 l 1,4,-1
 805 768 l 1,5,-1
 844 728 l 1,6,-1
 595 480 l 1,7,-1
 845 230 l 1,8,-1
 805 190 l 1,9,-1
 555 439 l 1,10,-1
 307 190 l 1,11,-1
 267 230 l 1,0,-1
EndSplineSet
EndChar

StartChar: divide
Encoding: 247 247 47
Width: 818
GlyphClass: 2
Flags: W
LayerCount: 2
Fore
SplineSet
502 572 m 1,0,-1
 270 572 l 1,1,-1
 270 798 l 1,2,-1
 502 798 l 1,3,-1
 502 572 l 1,0,-1
782 320 m 1,4,-1
 40 320 l 1,5,-1
 40 474 l 1,6,-1
 782 474 l 1,7,-1
 782 320 l 1,4,-1
502 0 m 1,8,-1
 270 0 l 1,9,-1
 270 226 l 1,10,-1
 502 226 l 1,11,-1
 502 0 l 1,8,-1
EndSplineSet
EndChar

StartChar: tm_visarga
Encoding: 2947 2947 48
Width: 992
GlyphClass: 2
Flags: W
LayerCount: 2
Fore
SplineSet
690 626 m 0,0,1
 690 536 690 536 633 476 c 128,-1,2
 576 416 576 416 480 416 c 0,3,4
 392 416 392 416 333 477 c 128,-1,5
 274 538 274 538 274 636 c 0,6,7
 274 716 274 716 336 774 c 128,-1,8
 398 832 398 832 486 832 c 0,9,10
 578 832 578 832 634 772 c 128,-1,11
 690 712 690 712 690 626 c 0,0,1
944 188 m 0,12,13
 944 98 944 98 887 38 c 128,-1,14
 830 -22 830 -22 734 -22 c 0,15,16
 648 -22 648 -22 588 39 c 128,-1,17
 528 100 528 100 528 198 c 0,18,19
 528 276 528 276 590 335 c 128,-1,20
 652 394 652 394 740 394 c 0,21,22
 832 394 832 394 888 334 c 128,-1,23
 944 274 944 274 944 188 c 0,12,13
466 188 m 0,24,25
 466 98 466 98 407 38 c 128,-1,26
 348 -22 348 -22 252 -22 c 0,27,28
 166 -22 166 -22 107 39 c 128,-1,29
 48 100 48 100 48 198 c 0,30,31
 48 276 48 276 110 335 c 128,-1,32
 172 394 172 394 260 394 c 0,33,34
 352 394 352 394 412 332 c 0,35,36
 466 274 466 274 466 188 c 0,24,25
566 624 m 0,37,38
 566 660 566 660 541 684 c 128,-1,39
 516 708 516 708 482 708 c 0,40,41
 446 708 446 708 421 684 c 128,-1,42
 396 660 396 660 396 624 c 0,43,44
 396 590 396 590 422 565 c 128,-1,45
 448 540 448 540 482 540 c 256,46,47
 516 540 516 540 541 565 c 128,-1,48
 566 590 566 590 566 624 c 0,37,38
820 186 m 256,49,50
 820 220 820 220 795 245 c 128,-1,51
 770 270 770 270 736 270 c 256,52,53
 702 270 702 270 676 245 c 128,-1,54
 650 220 650 220 650 186 c 256,55,56
 650 152 650 152 676 127 c 128,-1,57
 702 102 702 102 736 102 c 256,58,59
 770 102 770 102 795 127 c 128,-1,60
 820 152 820 152 820 186 c 256,49,50
340 186 m 256,61,62
 340 220 340 220 315 245 c 128,-1,63
 290 270 290 270 256 270 c 256,64,65
 222 270 222 270 197 245 c 128,-1,66
 172 220 172 220 172 186 c 256,67,68
 172 152 172 152 197 127 c 128,-1,69
 222 102 222 102 256 102 c 256,70,71
 290 102 290 102 315 127 c 128,-1,72
 340 152 340 152 340 186 c 256,61,62
EndSplineSet
EndChar

StartChar: tm_a
Encoding: 2949 2949 49
Width: 1916
GlyphClass: 2
Flags: W
LayerCount: 2
Fore
SplineSet
1850 -266 m 1,0,-1
 1696 -266 l 1,1,-1
 1696 76 l 1,2,-1
 1470 76 l 1,3,4
 1386 -100 1386 -100 1176 -198 c 0,5,6
 982 -288 982 -288 742 -288 c 0,7,8
 460 -288 460 -288 262 -180 c 128,-1,9
 64 -72 64 -72 64 92 c 0,10,11
 64 230 64 230 210 230 c 2,12,-1
 1360 230 l 1,13,14
 1368 264 1368 264 1368 312 c 0,15,16
 1368 452 1368 452 1293 541 c 128,-1,17
 1218 630 1218 630 1084 644 c 1,18,19
 1126 582 1126 582 1126 512 c 0,20,21
 1126 414 1126 414 1058 347 c 128,-1,22
 990 280 990 280 892 280 c 0,23,24
 796 280 796 280 729 347 c 128,-1,25
 662 414 662 414 662 512 c 0,26,27
 662 626 662 626 756 708 c 0,28,29
 860 800 860 800 1034 800 c 0,30,31
 1262 800 1262 800 1396 656 c 0,32,33
 1522 522 1522 522 1522 312 c 0,34,35
 1522 286 1522 286 1518 230 c 1,36,-1
 1696 230 l 1,37,-1
 1696 772 l 1,38,-1
 1850 772 l 1,39,-1
 1850 -266 l 1,0,-1
972 510 m 0,40,41
 972 544 972 544 949 567 c 128,-1,42
 926 590 926 590 892 590 c 0,43,44
 860 590 860 590 837 566 c 128,-1,45
 814 542 814 542 814 510 c 256,46,47
 814 478 814 478 837 454 c 128,-1,48
 860 430 860 430 892 430 c 0,49,50
 926 430 926 430 949 454 c 128,-1,51
 972 478 972 478 972 510 c 0,40,41
1288 76 m 1,52,-1
 278 76 l 2,53,54
 246 76 246 76 246 54 c 0,55,56
 246 2 246 2 368 -58 c 0,57,58
 518 -134 518 -134 742 -134 c 0,59,60
 1122 -134 1122 -134 1288 76 c 1,52,-1
EndSplineSet
EndChar

StartChar: tm_aa
Encoding: 2950 2950 50
Width: 2248
GlyphClass: 2
Flags: W
LayerCount: 2
Fore
SplineSet
2214 -112 m 0,0,1
 2214 -256 2214 -256 2094 -342 c 0,2,3
 1982 -422 1982 -422 1808 -422 c 0,4,5
 1608 -422 1608 -422 1495 -359 c 128,-1,6
 1382 -296 1382 -296 1382 -190 c 0,7,8
 1382 -42 1382 -42 1524 -42 c 2,9,-1
 1624 -42 l 1,10,-1
 1624 -160 l 1,11,-1
 1586 -160 l 2,12,13
 1546 -160 1546 -160 1546 -200 c 0,14,15
 1546 -222 1546 -222 1562 -234 c 0,16,17
 1614 -278 1614 -278 1792 -278 c 0,18,19
 2052 -278 2052 -278 2052 -106 c 0,20,21
 2052 -60 2052 -60 2022 -33 c 128,-1,22
 1992 -6 1992 -6 1950 -6 c 0,23,24
 1904 -6 1904 -6 1877 -36 c 128,-1,25
 1850 -66 1850 -66 1850 -108 c 2,26,-1
 1850 -212 l 1,27,-1
 1696 -212 l 1,28,-1
 1696 76 l 1,29,-1
 1470 76 l 1,30,31
 1386 -100 1386 -100 1176 -198 c 0,32,33
 982 -288 982 -288 742 -288 c 0,34,35
 460 -288 460 -288 262 -180 c 128,-1,36
 64 -72 64 -72 64 92 c 0,37,38
 64 230 64 230 210 230 c 2,39,-1
 1360 230 l 1,40,41
 1368 264 1368 264 1368 312 c 0,42,43
 1368 452 1368 452 1293 541 c 128,-1,44
 1218 630 1218 630 1084 644 c 1,45,46
 1126 582 1126 582 1126 512 c 0,47,48
 1126 414 1126 414 1058 347 c 128,-1,49
 990 280 990 280 892 280 c 0,50,51
 796 280 796 280 729 347 c 128,-1,52
 662 414 662 414 662 512 c 0,53,54
 662 626 662 626 756 708 c 0,55,56
 860 800 860 800 1034 800 c 0,57,58
 1262 800 1262 800 1396 656 c 0,59,60
 1522 522 1522 522 1522 312 c 0,61,62
 1522 286 1522 286 1518 230 c 1,63,-1
 1696 230 l 1,64,-1
 1696 768 l 1,65,-1
 1850 768 l 1,66,-1
 1850 106 l 1,67,68
 1890 138 1890 138 1972 138 c 0,69,70
 2064 138 2064 138 2134 78 c 0,71,72
 2214 8 2214 8 2214 -112 c 0,0,1
972 510 m 0,73,74
 972 544 972 544 949 567 c 128,-1,75
 926 590 926 590 892 590 c 0,76,77
 860 590 860 590 837 566 c 128,-1,78
 814 542 814 542 814 510 c 256,79,80
 814 478 814 478 837 454 c 128,-1,81
 860 430 860 430 892 430 c 0,82,83
 926 430 926 430 949 454 c 128,-1,84
 972 478 972 478 972 510 c 0,73,74
1288 76 m 1,85,-1
 278 76 l 2,86,87
 246 76 246 76 246 54 c 0,88,89
 246 2 246 2 368 -58 c 0,90,91
 518 -134 518 -134 742 -134 c 0,92,93
 1122 -134 1122 -134 1288 76 c 1,85,-1
EndSplineSet
EndChar

StartChar: tm_i
Encoding: 2951 2951 51
Width: 1778
GlyphClass: 2
Flags: W
LayerCount: 2
Fore
SplineSet
1710 -350 m 1,0,-1
 1556 -350 l 1,1,-1
 1556 366 l 2,2,3
 1556 654 1556 654 1406 828 c 0,4,5
 1240 1020 1240 1020 932 1020 c 0,6,7
 638 1020 638 1020 474 834 c 0,8,9
 326 666 326 666 326 408 c 0,10,11
 326 258 326 258 366 142 c 1,12,13
 618 242 618 242 900 242 c 0,14,15
 1016 242 1016 242 1098 226 c 1,16,17
 1122 302 1122 302 1122 384 c 0,18,19
 1122 486 1122 486 1070 564 c 0,20,21
 1036 614 1036 614 998 634 c 1,22,23
 1020 598 1020 598 1020 530 c 0,24,25
 1020 436 1020 436 954 375 c 128,-1,26
 888 314 888 314 778 314 c 0,27,28
 672 314 672 314 608 388 c 0,29,30
 552 452 552 452 552 536 c 0,31,32
 552 652 552 652 637 732 c 128,-1,33
 722 812 722 812 860 812 c 0,34,35
 1040 812 1040 812 1158 688 c 128,-1,36
 1276 564 1276 564 1276 384 c 0,37,38
 1276 284 1276 284 1248 188 c 1,39,40
 1484 96 1484 96 1484 -100 c 0,41,42
 1484 -248 1484 -248 1364 -336 c 128,-1,43
 1244 -424 1244 -424 1020 -424 c 0,44,45
 824 -424 824 -424 662 -362 c 1,46,47
 500 -416 500 -416 338 -416 c 0,48,49
 204 -416 204 -416 126 -366 c 0,50,51
 40 -310 40 -310 40 -204 c 0,52,53
 40 -44 40 -44 228 74 c 1,54,55
 172 224 172 224 172 408 c 0,56,57
 172 718 172 718 354 930 c 0,58,59
 562 1174 562 1174 932 1174 c 0,60,61
 1308 1174 1308 1174 1516 936 c 0,62,63
 1710 718 1710 718 1710 366 c 2,64,-1
 1710 -350 l 1,0,-1
856 536 m 256,65,66
 856 568 856 568 833 591 c 128,-1,67
 810 614 810 614 778 614 c 256,68,69
 746 614 746 614 723 592 c 128,-1,70
 700 570 700 570 700 536 c 0,71,72
 700 504 700 504 723 481 c 128,-1,73
 746 458 746 458 778 458 c 256,74,75
 810 458 810 458 833 481 c 128,-1,76
 856 504 856 504 856 536 c 256,65,66
1028 80 m 1,77,78
 944 88 944 88 880 88 c 0,79,80
 646 88 646 88 432 0 c 1,81,82
 522 -130 522 -130 672 -200 c 1,83,84
 906 -104 906 -104 1028 80 c 1,77,78
1330 -100 m 0,85,86
 1330 -8 1330 -8 1186 46 c 1,87,88
 1084 -134 1084 -134 882 -260 c 1,89,90
 958 -270 958 -270 1020 -270 c 0,91,92
 1330 -268 1330 -268 1330 -100 c 0,85,86
466 -254 m 1,93,94
 364 -176 364 -176 296 -68 c 1,95,96
 190 -138 190 -138 190 -196 c 0,97,98
 190 -260 190 -260 344 -262 c 0,99,100
 406 -262 406 -262 466 -254 c 1,93,94
EndSplineSet
EndChar

StartChar: tm_ii
Encoding: 2952 2952 52
Width: 966
GlyphClass: 2
Flags: W
LayerCount: 2
Fore
SplineSet
836 614 m 1,0,-1
 656 614 l 1,1,-1
 656 0 l 1,2,-1
 502 0 l 1,3,-1
 502 614 l 1,4,-1
 214 614 l 1,5,-1
 214 0 l 1,6,-1
 60 0 l 1,7,-1
 60 768 l 1,8,-1
 836 768 l 1,9,-1
 836 614 l 1,0,-1
922 376 m 256,10,11
 922 330 922 330 895 298 c 128,-1,12
 868 266 868 266 830 266 c 256,13,14
 792 266 792 266 765 299 c 128,-1,15
 738 332 738 332 738 376 c 0,16,17
 738 422 738 422 765 454 c 128,-1,18
 792 486 792 486 830 486 c 256,19,20
 868 486 868 486 895 454 c 128,-1,21
 922 422 922 422 922 376 c 256,10,11
448 376 m 0,22,23
 448 332 448 332 421 299 c 128,-1,24
 394 266 394 266 356 266 c 256,25,26
 318 266 318 266 290 298 c 128,-1,27
 262 330 262 330 262 376 c 256,28,29
 262 422 262 422 289 454 c 128,-1,30
 316 486 316 486 356 486 c 0,31,32
 394 486 394 486 421 454 c 128,-1,33
 448 422 448 422 448 376 c 0,22,23
502 614 m 1,34,-1
 214 614 l 1,35,-1
 502 614 l 1,34,-1
EndSplineSet
EndChar

StartChar: tm_u
Encoding: 2953 2953 53
Width: 1902
GlyphClass: 2
Flags: W
LayerCount: 2
Fore
SplineSet
1844 0 m 1,0,-1
 246 0 l 2,1,2
 168 0 168 0 118 36 c 0,3,4
 60 78 60 78 60 160 c 0,5,6
 60 332 60 332 276 332 c 2,7,-1
 518 332 l 2,8,9
 610 332 610 332 680 384 c 0,10,11
 762 442 762 442 760 536 c 0,12,13
 754 716 754 716 526 716 c 0,14,15
 518 716 518 716 494 712 c 1,16,17
 550 656 550 656 550 572 c 0,18,19
 550 490 550 490 492 432 c 128,-1,20
 434 374 434 374 342 374 c 0,21,22
 236 374 236 374 180 450 c 0,23,24
 138 508 138 508 138 590 c 0,25,26
 138 710 138 710 241 789 c 128,-1,27
 344 868 344 868 504 868 c 0,28,29
 680 868 680 868 786 794 c 0,30,31
 914 706 914 706 914 528 c 256,32,33
 914 350 914 350 768 260 c 0,34,35
 660 194 660 194 520 194 c 2,36,-1
 272 194 l 2,37,38
 224 194 224 194 224 174 c 0,39,40
 224 152 224 152 268 152 c 2,41,-1
 1844 152 l 1,42,-1
 1844 0 l 1,0,-1
396 572 m 256,43,44
 396 628 396 628 338 628 c 0,45,46
 282 628 282 628 282 572 c 256,47,48
 282 516 282 516 338 516 c 0,49,50
 396 516 396 516 396 572 c 256,43,44
EndSplineSet
EndChar

StartChar: tm_uu
Encoding: 2954 2954 54
Width: 2048
GlyphClass: 2
Flags: W
LayerCount: 2
Fore
SplineSet
1972 668 m 1,0,-1
 1910 668 l 1,1,-1
 1910 202 l 1,2,-1
 1766 202 l 1,3,-1
 1766 668 l 1,4,-1
 1646 668 l 1,5,-1
 1646 202 l 1,6,-1
 1502 202 l 1,7,-1
 1502 466 l 2,8,9
 1502 700 1502 700 1288 700 c 0,10,11
 1168 700 1168 700 1136 598 c 1,12,-1
 1136 596 l 1,13,14
 1156 608 1156 608 1198 608 c 0,15,16
 1284 608 1284 608 1341 552 c 128,-1,17
 1398 496 1398 496 1398 394 c 0,18,19
 1398 316 1398 316 1340 252 c 128,-1,20
 1282 188 1282 188 1198 188 c 0,21,22
 1106 188 1106 188 1045 265 c 128,-1,23
 984 342 984 342 984 490 c 0,24,25
 984 614 984 614 1056 712 c 0,26,27
 1142 830 1142 830 1298 830 c 0,28,29
 1418 830 1418 830 1502 758 c 1,30,-1
 1502 824 l 1,31,-1
 1972 824 l 1,32,-1
 1972 668 l 1,0,-1
1984 0 m 1,33,-1
 246 0 l 2,34,35
 168 0 168 0 118 36 c 0,36,37
 60 78 60 78 60 160 c 0,38,39
 60 332 60 332 276 332 c 2,40,-1
 518 332 l 2,41,42
 610 332 610 332 680 384 c 0,43,44
 762 442 762 442 760 536 c 0,45,46
 754 716 754 716 526 716 c 0,47,48
 518 716 518 716 494 712 c 1,49,50
 550 656 550 656 550 572 c 0,51,52
 550 490 550 490 492 432 c 128,-1,53
 434 374 434 374 342 374 c 0,54,55
 236 374 236 374 180 450 c 0,56,57
 138 508 138 508 138 590 c 0,58,59
 138 710 138 710 241 789 c 128,-1,60
 344 868 344 868 504 868 c 0,61,62
 680 868 680 868 786 794 c 0,63,64
 914 706 914 706 914 528 c 256,65,66
 914 350 914 350 768 260 c 0,67,68
 660 194 660 194 520 194 c 2,69,-1
 272 194 l 2,70,71
 224 194 224 194 224 174 c 0,72,73
 224 152 224 152 268 152 c 2,74,-1
 1984 152 l 1,75,-1
 1984 0 l 1,33,-1
396 572 m 256,76,77
 396 628 396 628 338 628 c 0,78,79
 282 628 282 628 282 572 c 256,80,81
 282 516 282 516 338 516 c 0,82,83
 396 516 396 516 396 572 c 256,76,77
1268 396 m 0,84,85
 1268 430 1268 430 1246 454 c 128,-1,86
 1224 478 1224 478 1196 478 c 0,87,88
 1164 478 1164 478 1143 454 c 128,-1,89
 1122 430 1122 430 1122 396 c 256,90,91
 1122 362 1122 362 1143 339 c 128,-1,92
 1164 316 1164 316 1196 316 c 0,93,94
 1224 316 1224 316 1246 340 c 128,-1,95
 1268 364 1268 364 1268 396 c 0,84,85
EndSplineSet
EndChar

StartChar: tm_e
Encoding: 2958 2958 55
Width: 1120
GlyphClass: 2
Flags: W
LayerCount: 2
Fore
SplineSet
1076 614 m 1,0,-1
 966 614 l 1,1,-1
 966 0 l 1,2,-1
 812 0 l 1,3,-1
 812 614 l 1,4,-1
 496 614 l 2,5,6
 302 614 302 614 242 472 c 1,7,8
 298 500 298 500 364 500 c 0,9,10
 478 500 478 500 548 425 c 128,-1,11
 618 350 618 350 618 242 c 0,12,13
 618 130 618 130 546 56 c 128,-1,14
 474 -18 474 -18 354 -18 c 0,15,16
 232 -18 232 -18 146 81 c 128,-1,17
 60 180 60 180 60 340 c 0,18,19
 60 526 60 526 179 647 c 128,-1,20
 298 768 298 768 500 768 c 2,21,-1
 1076 768 l 1,22,-1
 1076 614 l 1,0,-1
462 240 m 256,23,24
 462 284 462 284 432 314 c 128,-1,25
 402 344 402 344 358 344 c 256,26,27
 314 344 314 344 283 314 c 128,-1,28
 252 284 252 284 252 240 c 256,29,30
 252 196 252 196 283 165 c 128,-1,31
 314 134 314 134 358 134 c 256,32,33
 402 134 402 134 432 165 c 128,-1,34
 462 196 462 196 462 240 c 256,23,24
EndSplineSet
EndChar

StartChar: tm_ee
Encoding: 2959 2959 56
Width: 1126
GlyphClass: 2
Flags: W
LayerCount: 2
Fore
SplineSet
1076 614 m 1,0,-1
 966 614 l 1,1,-1
 966 -96 l 1,2,-1
 498 -332 l 1,3,-1
 430 -196 l 1,4,-1
 812 -2 l 1,5,-1
 812 614 l 1,6,-1
 496 614 l 2,7,8
 302 614 302 614 242 472 c 1,9,10
 298 500 298 500 364 500 c 0,11,12
 478 500 478 500 548 425 c 128,-1,13
 618 350 618 350 618 242 c 0,14,15
 618 130 618 130 546 56 c 128,-1,16
 474 -18 474 -18 354 -18 c 0,17,18
 232 -18 232 -18 146 81 c 128,-1,19
 60 180 60 180 60 340 c 0,20,21
 60 526 60 526 179 647 c 128,-1,22
 298 768 298 768 500 768 c 2,23,-1
 1076 768 l 1,24,-1
 1076 614 l 1,0,-1
462 240 m 256,25,26
 462 284 462 284 432 314 c 128,-1,27
 402 344 402 344 358 344 c 256,28,29
 314 344 314 344 283 314 c 128,-1,30
 252 284 252 284 252 240 c 256,31,32
 252 196 252 196 283 165 c 128,-1,33
 314 134 314 134 358 134 c 256,34,35
 402 134 402 134 432 165 c 128,-1,36
 462 196 462 196 462 240 c 256,25,26
EndSplineSet
EndChar

StartChar: tm_ai
Encoding: 2960 2960 57
Width: 1354
GlyphClass: 2
Flags: W
LayerCount: 2
Fore
SplineSet
1298 -150 m 0,0,1
 1298 -268 1298 -268 1199 -338 c 128,-1,2
 1100 -408 1100 -408 956 -408 c 0,3,4
 784 -408 784 -408 698 -290 c 1,5,6
 592 -408 592 -408 408 -408 c 0,7,8
 248 -408 248 -408 157 -330 c 128,-1,9
 66 -252 66 -252 66 -122 c 0,10,11
 66 16 66 16 162 92 c 0,12,13
 244 156 244 156 370 156 c 2,14,-1
 878 156 l 2,15,16
 1010 156 1010 156 1078 228 c 0,17,18
 1140 292 1140 292 1140 400 c 2,19,-1
 1140 414 l 2,20,21
 1140 494 1140 494 1096 554 c 0,22,23
 1046 622 1046 622 962 622 c 0,24,25
 782 622 782 622 782 440 c 2,26,-1
 782 248 l 1,27,-1
 626 248 l 1,28,-1
 626 422 l 2,29,30
 626 628 626 628 408 628 c 0,31,32
 330 628 330 628 296 602 c 1,33,-1
 328 602 l 2,34,35
 430 602 430 602 490 536 c 0,36,37
 544 478 544 478 544 390 c 0,38,39
 544 294 544 294 482 234 c 128,-1,40
 420 174 420 174 316 174 c 0,41,42
 200 174 200 174 132 249 c 128,-1,43
 64 324 64 324 64 450 c 0,44,45
 64 614 64 614 180 702 c 0,46,47
 276 778 276 778 420 778 c 0,48,49
 610 778 610 778 710 666 c 1,50,51
 790 776 790 776 972 776 c 0,52,53
 1122 776 1122 776 1212 666 c 0,54,55
 1296 564 1296 564 1296 416 c 2,56,-1
 1296 388 l 2,57,58
 1296 216 1296 216 1184 114 c 0,59,60
 1058 2 1058 2 820 2 c 2,61,-1
 380 2 l 2,62,63
 226 2 226 2 226 -116 c 0,64,65
 226 -254 226 -254 408 -254 c 0,66,67
 628 -254 628 -254 628 -64 c 2,68,-1
 628 -46 l 1,69,-1
 784 -46 l 1,70,-1
 784 -76 l 2,71,72
 784 -254 784 -254 956 -254 c 0,73,74
 1052 -254 1052 -254 1100 -216 c 0,75,76
 1134 -190 1134 -190 1134 -152 c 0,77,78
 1134 -106 1134 -106 1104 -82 c 1,79,-1
 1242 -12 l 1,80,81
 1298 -68 1298 -68 1298 -150 c 0,0,1
386 398 m 0,82,83
 386 432 386 432 363 455 c 128,-1,84
 340 478 340 478 306 478 c 0,85,86
 274 478 274 478 250 455 c 128,-1,87
 226 432 226 432 226 398 c 0,88,89
 226 366 226 366 250 342 c 128,-1,90
 274 318 274 318 306 318 c 0,91,92
 340 318 340 318 363 342 c 128,-1,93
 386 366 386 366 386 398 c 0,82,83
EndSplineSet
EndChar

StartChar: tm_o
Encoding: 2962 2962 58
Width: 1328
GlyphClass: 2
Flags: W
LayerCount: 2
Fore
SplineSet
1270 358 m 0,0,1
 1270 212 1270 212 1190 122 c 128,-1,2
 1110 32 1110 32 986 32 c 0,3,4
 896 32 896 32 832 68 c 1,5,-1
 832 68 l 1,6,7
 840 4 840 4 920 -24 c 1,8,9
 932 -22 932 -22 944 -22 c 2,10,-1
 1060 -22 l 1,11,-1
 1060 -174 l 1,12,-1
 944 -174 l 2,13,14
 918 -174 918 -174 896 -218 c 0,15,16
 864 -276 864 -276 826 -302 c 0,17,18
 760 -346 760 -346 630 -346 c 0,19,20
 324 -346 324 -346 324 -140 c 0,21,22
 324 -48 324 -48 408 -4 c 1,23,-1
 510 -82 l 1,24,25
 478 -104 478 -104 478 -140 c 0,26,27
 478 -178 478 -178 512 -192 c 0,28,29
 540 -202 540 -202 620 -202 c 0,30,31
 702 -202 702 -202 738 -182 c 0,32,33
 760 -168 760 -168 769 -137 c 128,-1,34
 778 -106 778 -106 788 -98 c 1,35,36
 680 -4 680 -4 672 162 c 0,37,38
 660 410 660 410 854 502 c 1,39,-1
 918 384 l 1,40,41
 846 362 846 362 846 282 c 0,42,43
 846 210 846 210 926 190 c 0,44,45
 948 184 948 184 974 184 c 0,46,47
 1118 184 1118 184 1118 362 c 0,48,49
 1118 490 1118 490 1000 563 c 128,-1,50
 882 636 882 636 652 636 c 0,51,52
 450 636 450 636 350 584 c 0,53,54
 282 550 282 550 246 480 c 1,55,-1
 246 480 l 1,56,57
 302 502 302 502 350 502 c 0,58,59
 452 502 452 502 517 437 c 128,-1,60
 582 372 582 372 582 274 c 0,61,62
 582 182 582 182 520 118 c 0,63,64
 450 44 450 44 328 44 c 0,65,66
 222 44 222 44 144 126 c 0,67,68
 60 214 60 214 60 358 c 0,69,70
 60 566 60 566 232 680 c 0,71,72
 392 786 392 786 672 786 c 0,73,74
 918 786 918 786 1084 682 c 0,75,76
 1270 564 1270 564 1270 358 c 0,0,1
418 274 m 0,77,78
 418 310 418 310 394 334 c 128,-1,79
 370 358 370 358 336 358 c 0,80,81
 300 358 300 358 276 334 c 128,-1,82
 252 310 252 310 252 274 c 0,83,84
 252 240 252 240 276 215 c 128,-1,85
 300 190 300 190 336 190 c 0,86,87
 370 190 370 190 394 215 c 128,-1,88
 418 240 418 240 418 274 c 0,77,78
EndSplineSet
EndChar

StartChar: tm_oo
Encoding: 2963 2963 59
Width: 1328
GlyphClass: 2
Flags: W
LayerCount: 2
Fore
SplineSet
1270 358 m 0,0,1
 1270 212 1270 212 1190 122 c 128,-1,2
 1110 32 1110 32 986 32 c 0,3,4
 896 32 896 32 832 68 c 1,5,-1
 832 68 l 1,6,7
 840 4 840 4 920 -24 c 1,8,9
 932 -22 932 -22 944 -22 c 2,10,-1
 1060 -22 l 1,11,-1
 1060 -174 l 1,12,-1
 944 -174 l 2,13,14
 918 -174 918 -174 896 -218 c 0,15,16
 864 -276 864 -276 826 -302 c 0,17,18
 760 -346 760 -346 630 -346 c 0,19,20
 324 -346 324 -346 324 -140 c 0,21,22
 324 -84 324 -84 362 -36 c 0,23,24
 422 40 422 40 560 40 c 0,25,26
 642 40 642 40 696 0 c 0,27,28
 734 -26 734 -26 742 -52 c 1,29,-1
 686 -138 l 1,30,31
 670 -124 670 -124 654 -110 c 0,32,33
 622 -88 622 -88 566 -88 c 0,34,35
 478 -88 478 -88 478 -140 c 0,36,37
 478 -178 478 -178 512 -192 c 0,38,39
 540 -202 540 -202 620 -202 c 0,40,41
 702 -202 702 -202 738 -182 c 0,42,43
 760 -168 760 -168 769 -137 c 128,-1,44
 778 -106 778 -106 788 -98 c 1,45,46
 680 -4 680 -4 672 162 c 0,47,48
 660 410 660 410 854 502 c 1,49,-1
 918 384 l 1,50,51
 846 362 846 362 846 282 c 0,52,53
 846 210 846 210 926 190 c 0,54,55
 948 184 948 184 974 184 c 0,56,57
 1118 184 1118 184 1118 362 c 0,58,59
 1118 490 1118 490 1000 563 c 128,-1,60
 882 636 882 636 652 636 c 0,61,62
 450 636 450 636 350 584 c 0,63,64
 282 550 282 550 246 480 c 1,65,-1
 246 480 l 1,66,67
 302 502 302 502 350 502 c 0,68,69
 452 502 452 502 517 437 c 128,-1,70
 582 372 582 372 582 274 c 0,71,72
 582 182 582 182 520 118 c 0,73,74
 450 44 450 44 328 44 c 0,75,76
 222 44 222 44 144 126 c 0,77,78
 60 214 60 214 60 358 c 0,79,80
 60 566 60 566 232 680 c 0,81,82
 392 786 392 786 672 786 c 0,83,84
 918 786 918 786 1084 682 c 0,85,86
 1270 564 1270 564 1270 358 c 0,0,1
418 274 m 0,87,88
 418 310 418 310 394 334 c 128,-1,89
 370 358 370 358 336 358 c 0,90,91
 300 358 300 358 276 334 c 128,-1,92
 252 310 252 310 252 274 c 0,93,94
 252 240 252 240 276 215 c 128,-1,95
 300 190 300 190 336 190 c 0,96,97
 370 190 370 190 394 215 c 128,-1,98
 418 240 418 240 418 274 c 0,87,88
EndSplineSet
EndChar

StartChar: tm_au
Encoding: 2964 2964 60
Width: 2876
GlyphClass: 2
Flags: W
LayerCount: 2
Fore
SplineSet
2828 614 m 1,0,-1
 2718 614 l 1,1,-1
 2718 0 l 1,2,-1
 2564 0 l 1,3,-1
 2564 614 l 1,4,-1
 2286 614 l 1,5,-1
 2286 0 l 1,6,-1
 2132 0 l 1,7,-1
 2132 338 l 2,8,9
 2132 464 2132 464 2051 544 c 128,-1,10
 1970 624 1970 624 1828 624 c 0,11,12
 1638 624 1638 624 1570 472 c 1,13,14
 1626 500 1626 500 1692 500 c 0,15,16
 1806 500 1806 500 1876 425 c 128,-1,17
 1946 350 1946 350 1946 242 c 0,18,19
 1946 130 1946 130 1874 56 c 128,-1,20
 1802 -18 1802 -18 1682 -18 c 0,21,22
 1560 -18 1560 -18 1475 81 c 128,-1,23
 1390 180 1390 180 1390 340 c 0,24,25
 1390 526 1390 526 1509 652 c 128,-1,26
 1628 778 1628 778 1828 778 c 0,27,28
 2014 778 2014 778 2130 678 c 1,29,-1
 2130 768 l 1,30,-1
 2828 768 l 1,31,-1
 2828 614 l 1,0,-1
1270 358 m 0,32,33
 1270 212 1270 212 1190 122 c 128,-1,34
 1110 32 1110 32 986 32 c 0,35,36
 896 32 896 32 832 68 c 1,37,-1
 832 68 l 1,38,39
 840 4 840 4 920 -24 c 1,40,41
 932 -22 932 -22 944 -22 c 2,42,-1
 1060 -22 l 1,43,-1
 1060 -174 l 1,44,-1
 944 -174 l 2,45,46
 918 -174 918 -174 896 -218 c 0,47,48
 864 -276 864 -276 826 -302 c 0,49,50
 760 -346 760 -346 630 -346 c 0,51,52
 324 -346 324 -346 324 -140 c 0,53,54
 324 -48 324 -48 408 -4 c 1,55,-1
 510 -82 l 1,56,57
 478 -104 478 -104 478 -140 c 0,58,59
 478 -178 478 -178 512 -192 c 0,60,61
 540 -202 540 -202 620 -202 c 0,62,63
 702 -202 702 -202 738 -182 c 0,64,65
 760 -168 760 -168 769 -137 c 128,-1,66
 778 -106 778 -106 788 -98 c 1,67,68
 680 -4 680 -4 672 162 c 0,69,70
 660 410 660 410 854 502 c 1,71,-1
 918 384 l 1,72,73
 846 362 846 362 846 282 c 0,74,75
 846 210 846 210 926 190 c 0,76,77
 948 184 948 184 974 184 c 0,78,79
 1118 184 1118 184 1118 362 c 0,80,81
 1118 490 1118 490 1000 563 c 128,-1,82
 882 636 882 636 652 636 c 0,83,84
 450 636 450 636 350 584 c 0,85,86
 282 550 282 550 246 480 c 1,87,-1
 246 480 l 1,88,89
 302 502 302 502 350 502 c 0,90,91
 452 502 452 502 517 437 c 128,-1,92
 582 372 582 372 582 274 c 0,93,94
 582 182 582 182 520 118 c 0,95,96
 450 44 450 44 328 44 c 0,97,98
 222 44 222 44 144 126 c 0,99,100
 60 214 60 214 60 358 c 0,101,102
 60 566 60 566 232 680 c 0,103,104
 392 786 392 786 672 786 c 0,105,106
 918 786 918 786 1084 682 c 0,107,108
 1270 564 1270 564 1270 358 c 0,32,33
1746 274 m 0,109,110
 1746 310 1746 310 1722 334 c 128,-1,111
 1698 358 1698 358 1664 358 c 0,112,113
 1628 358 1628 358 1604 334 c 128,-1,114
 1580 310 1580 310 1580 274 c 0,115,116
 1580 240 1580 240 1604 215 c 128,-1,117
 1628 190 1628 190 1664 190 c 0,118,119
 1698 190 1698 190 1722 215 c 128,-1,120
 1746 240 1746 240 1746 274 c 0,109,110
462 240 m 256,121,122
 462 284 462 284 432 314 c 128,-1,123
 402 344 402 344 358 344 c 256,124,125
 314 344 314 344 283 314 c 128,-1,126
 252 284 252 284 252 240 c 256,127,128
 252 196 252 196 283 165 c 128,-1,129
 314 134 314 134 358 134 c 256,130,131
 402 134 402 134 432 165 c 128,-1,132
 462 196 462 196 462 240 c 256,121,122
EndSplineSet
EndChar

StartChar: tm_ka
Encoding: 2965 2965 61
Width: 1176
GlyphClass: 2
Flags: W
LayerCount: 2
Fore
SplineSet
1106 246 m 0,0,1
 1106 116 1106 116 1014 44 c 0,2,3
 936 -18 936 -18 824 -18 c 0,4,5
 710 -18 710 -18 664 34 c 1,6,7
 718 70 718 70 742 148 c 1,8,9
 762 136 762 136 802 136 c 0,10,11
 944 136 944 136 944 236 c 0,12,13
 944 302 944 302 848 302 c 2,14,-1
 728 302 l 1,15,-1
 728 236 l 2,16,17
 728 116 728 116 636 46 c 0,18,19
 552 -18 552 -18 430 -18 c 0,20,21
 288 -18 288 -18 188 52 c 0,22,23
 74 132 74 132 74 268 c 0,24,25
 74 342 74 342 117 392 c 128,-1,26
 160 442 160 442 226 452 c 1,27,-1
 226 768 l 1,28,-1
 926 768 l 1,29,-1
 926 614 l 1,30,-1
 728 614 l 1,31,-1
 728 458 l 1,32,-1
 864 458 l 2,33,34
 966 458 966 458 1034 406 c 0,35,36
 1106 348 1106 348 1106 246 c 0,0,1
574 458 m 1,37,-1
 574 614 l 1,38,-1
 380 614 l 1,39,-1
 380 458 l 1,40,-1
 574 458 l 1,37,-1
574 244 m 2,41,-1
 574 302 l 1,42,-1
 288 302 l 2,43,44
 230 302 230 302 230 252 c 0,45,46
 230 206 230 206 289 171 c 128,-1,47
 348 136 348 136 430 136 c 0,48,49
 492 136 492 136 533 165 c 128,-1,50
 574 194 574 194 574 244 c 2,41,-1
EndSplineSet
EndChar

StartChar: tm_nga
Encoding: 2969 2969 62
Width: 1306
GlyphClass: 2
Flags: W
LayerCount: 2
Fore
SplineSet
1248 0 m 1,0,-1
 680 0 l 1,1,-1
 680 154 l 1,2,-1
 710 154 l 2,3,4
 788 154 788 154 788 246 c 0,5,6
 788 294 788 294 753 323 c 128,-1,7
 718 352 718 352 664 352 c 0,8,9
 554 352 554 352 554 276 c 2,10,-1
 554 0 l 1,11,-1
 400 0 l 1,12,-1
 400 614 l 1,13,-1
 226 614 l 1,14,-1
 226 0 l 1,15,-1
 74 0 l 1,16,-1
 74 768 l 1,17,-1
 772 768 l 1,18,-1
 772 614 l 1,19,-1
 554 614 l 1,20,-1
 554 474 l 1,21,22
 590 498 590 498 676 498 c 0,23,24
 826 498 826 498 896 414 c 0,25,26
 952 350 952 350 952 246 c 0,27,28
 952 200 952 200 934 154 c 1,29,-1
 1094 154 l 1,30,-1
 1094 768 l 1,31,-1
 1248 768 l 1,32,-1
 1248 0 l 1,0,-1
400 614 m 1,33,-1
 226 614 l 1,34,-1
 400 614 l 1,33,-1
EndSplineSet
EndChar

StartChar: tm_ca
Encoding: 2970 2970 63
Width: 1052
GlyphClass: 2
Flags: W
LayerCount: 2
Fore
SplineSet
980 302 m 1,0,-1
 728 302 l 1,1,-1
 728 236 l 2,2,3
 728 116 728 116 636 46 c 0,4,5
 552 -18 552 -18 430 -18 c 0,6,7
 288 -18 288 -18 188 52 c 0,8,9
 74 132 74 132 74 268 c 0,10,11
 74 342 74 342 117 392 c 128,-1,12
 160 442 160 442 226 452 c 1,13,-1
 226 768 l 1,14,-1
 926 768 l 1,15,-1
 926 614 l 1,16,-1
 728 614 l 1,17,-1
 728 458 l 1,18,-1
 980 458 l 1,19,-1
 980 302 l 1,0,-1
574 458 m 1,20,-1
 574 614 l 1,21,-1
 380 614 l 1,22,-1
 380 458 l 1,23,-1
 574 458 l 1,20,-1
574 244 m 2,24,-1
 574 302 l 1,25,-1
 288 302 l 2,26,27
 230 302 230 302 230 252 c 0,28,29
 230 206 230 206 289 171 c 128,-1,30
 348 136 348 136 430 136 c 0,31,32
 492 136 492 136 533 165 c 128,-1,33
 574 194 574 194 574 244 c 2,24,-1
EndSplineSet
EndChar

StartChar: tm_ja
Encoding: 2972 2972 64
Width: 1344
GlyphClass: 2
Flags: W
LayerCount: 2
Fore
SplineSet
1296 388 m 2,0,1
 1296 216 1296 216 1184 114 c 0,2,3
 1058 2 1058 2 820 2 c 2,4,-1
 380 2 l 2,5,6
 226 2 226 2 226 -116 c 0,7,8
 226 -254 226 -254 408 -254 c 0,9,10
 504 -254 504 -254 566 -228 c 0,11,12
 612 -210 612 -210 620 -188 c 0,13,14
 680 -10 680 -10 956 -10 c 0,15,16
 1280 -10 1280 -10 1280 -206 c 0,17,18
 1280 -302 1280 -302 1211 -355 c 128,-1,19
 1142 -408 1142 -408 1030 -408 c 2,20,-1
 916 -408 l 1,21,-1
 916 -276 l 1,22,-1
 1030 -276 l 2,23,24
 1114 -276 1114 -276 1114 -224 c 0,25,26
 1114 -190 1114 -190 1088 -176 c 0,27,28
 1050 -156 1050 -156 946 -156 c 0,29,30
 788 -156 788 -156 764 -270 c 1,31,32
 678 -408 678 -408 408 -408 c 0,33,34
 246 -408 246 -408 156 -330 c 128,-1,35
 66 -252 66 -252 66 -122 c 0,36,37
 66 16 66 16 162 92 c 0,38,39
 244 156 244 156 370 156 c 2,40,-1
 878 156 l 2,41,42
 1010 156 1010 156 1078 228 c 0,43,44
 1140 292 1140 292 1140 400 c 2,45,-1
 1140 414 l 2,46,47
 1140 494 1140 494 1096 554 c 0,48,49
 1046 622 1046 622 962 622 c 0,50,51
 782 622 782 622 782 440 c 2,52,-1
 782 248 l 1,53,-1
 626 248 l 1,54,-1
 626 422 l 2,55,56
 626 628 626 628 408 628 c 0,57,58
 330 628 330 628 296 602 c 1,59,-1
 328 602 l 2,60,61
 430 602 430 602 490 536 c 0,62,63
 544 478 544 478 544 390 c 0,64,65
 544 294 544 294 482 234 c 128,-1,66
 420 174 420 174 316 174 c 0,67,68
 200 174 200 174 132 249 c 128,-1,69
 64 324 64 324 64 450 c 0,70,71
 64 614 64 614 180 702 c 0,72,73
 276 778 276 778 420 778 c 0,74,75
 610 778 610 778 710 666 c 1,76,77
 790 776 790 776 972 776 c 0,78,79
 1122 776 1122 776 1212 666 c 0,80,81
 1296 564 1296 564 1296 416 c 2,82,-1
 1296 388 l 2,0,1
386 398 m 0,83,84
 386 432 386 432 363 455 c 128,-1,85
 340 478 340 478 306 478 c 0,86,87
 274 478 274 478 250 455 c 128,-1,88
 226 432 226 432 226 398 c 0,89,90
 226 366 226 366 250 342 c 128,-1,91
 274 318 274 318 306 318 c 0,92,93
 340 318 340 318 363 342 c 128,-1,94
 386 366 386 366 386 398 c 0,83,84
EndSplineSet
EndChar

StartChar: tm_nya
Encoding: 2974 2974 65
Width: 1648
GlyphClass: 2
Flags: W
LayerCount: 2
Fore
SplineSet
1612 200 m 0,0,1
 1612 -84 1612 -84 1408 -253 c 128,-1,2
 1204 -422 1204 -422 838 -422 c 0,3,4
 508 -422 508 -422 284 -232 c 0,5,6
 44 -26 44 -26 44 316 c 0,7,8
 44 636 44 636 206 776 c 1,9,-1
 304 658 l 1,10,11
 270 630 270 630 240 556 c 0,12,13
 194 448 194 448 194 310 c 0,14,15
 194 42 194 42 386 -118 c 0,16,17
 566 -268 566 -268 838 -268 c 0,18,19
 1156 -268 1156 -268 1316 -130 c 0,20,21
 1458 -8 1458 -8 1458 200 c 0,22,23
 1458 262 1458 262 1427 303 c 128,-1,24
 1396 344 1396 344 1342 344 c 0,25,26
 1256 344 1256 344 1256 258 c 2,27,-1
 1256 0 l 1,28,-1
 1102 0 l 1,29,-1
 1102 614 l 1,30,-1
 772 614 l 2,31,32
 682 614 682 614 616 572 c 0,33,34
 562 538 562 538 544 490 c 1,35,-1
 544 488 l 1,36,37
 574 504 574 504 634 504 c 0,38,39
 746 504 746 504 826 428 c 128,-1,40
 906 352 906 352 906 240 c 0,41,42
 906 140 906 140 836 62 c 0,43,44
 760 -20 760 -20 644 -20 c 0,45,46
 522 -20 522 -20 437 79 c 128,-1,47
 352 178 352 178 352 358 c 0,48,49
 352 512 352 512 450 626 c 0,50,51
 572 768 572 768 800 768 c 2,52,-1
 1366 768 l 1,53,-1
 1366 614 l 1,54,-1
 1256 614 l 1,55,-1
 1256 462 l 1,56,57
 1278 500 1278 500 1358 500 c 0,58,59
 1474 500 1474 500 1546 408 c 0,60,61
 1612 322 1612 322 1612 200 c 0,0,1
752 242 m 0,62,63
 752 288 752 288 720 321 c 128,-1,64
 688 354 688 354 642 354 c 256,65,66
 596 354 596 354 563 321 c 128,-1,67
 530 288 530 288 530 242 c 256,68,69
 530 196 530 196 563 164 c 128,-1,70
 596 132 596 132 642 132 c 256,71,72
 688 132 688 132 720 165 c 128,-1,73
 752 198 752 198 752 242 c 0,62,63
EndSplineSet
EndChar

StartChar: tm_tta
Encoding: 2975 2975 66
Width: 1134
GlyphClass: 2
Flags: W
LayerCount: 2
Fore
SplineSet
1064 0 m 1,0,-1
 80 0 l 1,1,-1
 80 768 l 1,2,-1
 234 768 l 1,3,-1
 234 154 l 1,4,-1
 1064 154 l 1,5,-1
 1064 0 l 1,0,-1
EndSplineSet
EndChar

StartChar: tm_nna
Encoding: 2979 2979 67
Width: 2228
GlyphClass: 2
Flags: W
LayerCount: 2
Fore
SplineSet
2158 614 m 1,0,-1
 2048 614 l 1,1,-1
 2048 0 l 1,2,-1
 1894 0 l 1,3,-1
 1894 614 l 1,4,-1
 1698 614 l 2,5,6
 1664 614 1664 614 1628 602 c 1,7,8
 1728 486 1728 486 1728 326 c 0,9,10
 1728 178 1728 178 1670 86 c 0,11,12
 1604 -22 1604 -22 1474 -22 c 0,13,14
 1352 -22 1352 -22 1286 88 c 0,15,16
 1228 184 1228 184 1228 326 c 0,17,18
 1228 484 1228 484 1346 608 c 1,19,20
 1286 628 1286 628 1202 628 c 256,21,22
 1118 628 1118 628 1058 608 c 1,23,24
 1176 488 1176 488 1176 326 c 0,25,26
 1176 182 1176 182 1120 88 c 0,27,28
 1054 -22 1054 -22 932 -22 c 0,29,30
 802 -22 802 -22 736 86 c 0,31,32
 678 178 678 178 678 326 c 0,33,34
 678 482 678 482 774 600 c 1,35,36
 696 630 696 630 580 630 c 0,37,38
 358 630 358 630 260 488 c 1,39,-1
 260 488 l 1,40,41
 284 504 284 504 344 504 c 0,42,43
 456 504 456 504 536 428 c 128,-1,44
 616 352 616 352 616 240 c 0,45,46
 616 140 616 140 546 62 c 0,47,48
 470 -20 470 -20 354 -20 c 0,49,50
 232 -20 232 -20 146 80 c 0,51,52
 68 170 68 170 68 326 c 0,53,54
 68 550 68 550 230 672 c 0,55,56
 368 778 368 778 576 778 c 0,57,58
 782 778 782 778 908 712 c 1,59,60
 1034 778 1034 778 1206 778 c 0,61,62
 1336 778 1336 778 1488 712 c 1,63,64
 1590 768 1590 768 1744 768 c 2,65,-1
 2158 768 l 1,66,-1
 2158 614 l 1,0,-1
1574 326 m 0,67,68
 1574 446 1574 446 1486 530 c 1,69,70
 1382 440 1382 440 1382 326 c 0,71,72
 1382 132 1382 132 1476 132 c 0,73,74
 1574 132 1574 132 1574 326 c 0,67,68
1024 326 m 0,75,76
 1024 440 1024 440 918 528 c 1,77,78
 832 446 832 446 832 326 c 0,79,80
 832 132 832 132 928 132 c 256,81,82
 1024 132 1024 132 1024 326 c 0,75,76
462 242 m 0,83,84
 462 288 462 288 430 321 c 128,-1,85
 398 354 398 354 352 354 c 0,86,87
 304 354 304 354 271 321 c 128,-1,88
 238 288 238 288 238 242 c 256,89,90
 238 196 238 196 271 164 c 128,-1,91
 304 132 304 132 352 132 c 0,92,93
 398 132 398 132 430 165 c 128,-1,94
 462 198 462 198 462 242 c 0,83,84
EndSplineSet
EndChar

StartChar: tm_ta
Encoding: 2980 2980 68
Width: 1184
GlyphClass: 2
Flags: W
LayerCount: 2
Fore
SplineSet
1106 142 m 2,0,1
 1106 -16 1106 -16 976 -120 c 0,2,3
 858 -212 858 -212 700 -212 c 2,4,-1
 324 -212 l 2,5,6
 224 -212 224 -212 224 -292 c 2,7,-1
 224 -382 l 1,8,-1
 70 -382 l 1,9,-1
 70 -274 l 2,10,11
 70 -60 70 -60 324 -60 c 2,12,-1
 696 -60 l 2,13,14
 816 -60 816 -60 888 4 c 0,15,16
 954 62 954 62 954 150 c 2,17,-1
 954 156 l 2,18,19
 954 220 954 220 910 261 c 128,-1,20
 866 302 866 302 792 302 c 2,21,-1
 728 302 l 1,22,-1
 728 236 l 2,23,24
 728 116 728 116 636 46 c 0,25,26
 552 -18 552 -18 430 -18 c 0,27,28
 288 -18 288 -18 188 52 c 0,29,30
 74 132 74 132 74 268 c 0,31,32
 74 342 74 342 117 392 c 128,-1,33
 160 442 160 442 226 452 c 1,34,-1
 226 768 l 1,35,-1
 926 768 l 1,36,-1
 926 614 l 1,37,-1
 728 614 l 1,38,-1
 728 458 l 1,39,-1
 768 458 l 2,40,41
 916 458 916 458 1011 378 c 128,-1,42
 1106 298 1106 298 1106 156 c 2,43,-1
 1106 142 l 2,0,1
574 458 m 1,44,-1
 574 614 l 1,45,-1
 380 614 l 1,46,-1
 380 458 l 1,47,-1
 574 458 l 1,44,-1
574 244 m 2,48,-1
 574 302 l 1,49,-1
 288 302 l 2,50,51
 230 302 230 302 230 252 c 0,52,53
 230 206 230 206 289 171 c 128,-1,54
 348 136 348 136 430 136 c 0,55,56
 492 136 492 136 533 165 c 128,-1,57
 574 194 574 194 574 244 c 2,48,-1
EndSplineSet
EndChar

StartChar: tm_na
Encoding: 2984 2984 69
Width: 1008
GlyphClass: 2
Flags: W
LayerCount: 2
Fore
SplineSet
964 156 m 0,0,1
 964 -20 964 -20 849 -116 c 128,-1,2
 734 -212 734 -212 540 -212 c 2,3,-1
 324 -212 l 2,4,5
 224 -212 224 -212 224 -292 c 2,6,-1
 224 -382 l 1,7,-1
 70 -382 l 1,8,-1
 70 -274 l 2,9,10
 70 -60 70 -60 324 -60 c 2,11,-1
 550 -60 l 2,12,13
 800 -60 800 -60 800 156 c 0,14,15
 800 302 800 302 664 302 c 0,16,17
 554 302 554 302 554 210 c 2,18,-1
 554 0 l 1,19,-1
 400 0 l 1,20,-1
 400 614 l 1,21,-1
 226 614 l 1,22,-1
 226 0 l 1,23,-1
 74 0 l 1,24,-1
 74 768 l 1,25,-1
 802 768 l 1,26,-1
 802 614 l 1,27,-1
 554 614 l 1,28,-1
 554 428 l 1,29,30
 600 454 600 454 686 454 c 0,31,32
 800 454 800 454 880 374 c 0,33,34
 964 288 964 288 964 156 c 0,0,1
EndSplineSet
EndChar

StartChar: tm_nnna
Encoding: 2985 2985 70
Width: 1686
GlyphClass: 2
Flags: W
LayerCount: 2
Fore
SplineSet
1612 614 m 1,0,-1
 1502 614 l 1,1,-1
 1502 0 l 1,2,-1
 1348 0 l 1,3,-1
 1348 614 l 1,4,-1
 1130 614 l 2,5,6
 1092 614 1092 614 1062 608 c 1,7,8
 1182 482 1182 482 1182 326 c 0,9,10
 1182 182 1182 182 1124 88 c 0,11,12
 1058 -22 1058 -22 934 -22 c 0,13,14
 806 -22 806 -22 738 86 c 0,15,16
 680 180 680 180 680 326 c 0,17,18
 680 476 680 476 774 602 c 1,19,20
 672 630 672 630 594 630 c 0,21,22
 370 630 370 630 270 486 c 1,23,24
 288 500 288 500 350 500 c 0,25,26
 470 500 470 500 546 422 c 0,27,28
 614 348 614 348 614 246 c 0,29,30
 614 136 614 136 542 59 c 128,-1,31
 470 -18 470 -18 358 -18 c 0,32,33
 226 -18 226 -18 148 83 c 128,-1,34
 70 184 70 184 70 340 c 0,35,36
 70 532 70 532 209 655 c 128,-1,37
 348 778 348 778 580 778 c 0,38,39
 794 778 794 778 906 720 c 1,40,41
 990 768 990 768 1112 768 c 2,42,-1
 1612 768 l 1,43,-1
 1612 614 l 1,0,-1
1028 326 m 0,44,45
 1028 442 1028 442 920 528 c 1,46,47
 836 444 836 444 836 326 c 0,48,49
 836 132 836 132 934 132 c 0,50,51
 1028 132 1028 132 1028 326 c 0,44,45
458 240 m 256,52,53
 458 284 458 284 427 314 c 128,-1,54
 396 344 396 344 352 344 c 256,55,56
 308 344 308 344 278 314 c 128,-1,57
 248 284 248 284 248 240 c 256,58,59
 248 196 248 196 278 165 c 128,-1,60
 308 134 308 134 352 134 c 256,61,62
 396 134 396 134 427 165 c 128,-1,63
 458 196 458 196 458 240 c 256,52,53
EndSplineSet
EndChar

StartChar: tm_pa
Encoding: 2986 2986 71
Width: 1066
GlyphClass: 2
Flags: W
LayerCount: 2
Fore
SplineSet
982 0 m 1,0,-1
 80 0 l 1,1,-1
 80 768 l 1,2,-1
 234 768 l 1,3,-1
 234 154 l 1,4,-1
 828 154 l 1,5,-1
 828 768 l 1,6,-1
 982 768 l 1,7,-1
 982 0 l 1,0,-1
EndSplineSet
EndChar

StartChar: tm_ma
Encoding: 2990 2990 72
Width: 1184
GlyphClass: 2
Flags: W
LayerCount: 2
Fore
SplineSet
1142 372 m 0,0,1
 1142 186 1142 186 1020 88 c 0,2,3
 914 0 914 0 740 0 c 2,4,-1
 68 0 l 1,5,-1
 68 768 l 1,6,-1
 220 768 l 1,7,-1
 220 154 l 1,8,-1
 496 154 l 1,9,-1
 496 546 l 2,10,11
 496 640 496 640 557 708 c 128,-1,12
 618 776 618 776 718 776 c 0,13,14
 886 776 886 776 1014 649 c 128,-1,15
 1142 522 1142 522 1142 372 c 0,0,1
988 372 m 0,16,17
 988 468 988 468 903 542 c 128,-1,18
 818 616 818 616 726 616 c 0,19,20
 650 616 650 616 650 546 c 2,21,-1
 650 154 l 1,22,-1
 754 154 l 2,23,24
 988 154 988 154 988 372 c 0,16,17
EndSplineSet
EndChar

StartChar: tm_ya
Encoding: 2991 2991 73
Width: 1220
GlyphClass: 2
Flags: W
LayerCount: 2
Fore
SplineSet
1170 0 m 1,0,-1
 476 0 l 1,1,-1
 476 36 l 1,2,3
 402 -4 402 -4 324 -4 c 0,4,5
 204 -4 204 -4 128 62 c 0,6,7
 46 136 46 136 46 264 c 2,8,-1
 46 768 l 1,9,-1
 200 768 l 1,10,-1
 200 284 l 2,11,12
 200 152 200 152 324 152 c 0,13,14
 380 152 380 152 422 178 c 0,15,16
 476 212 476 212 476 280 c 2,17,-1
 476 768 l 1,18,-1
 630 768 l 1,19,-1
 630 154 l 1,20,-1
 1016 154 l 1,21,-1
 1016 768 l 1,22,-1
 1170 768 l 1,23,-1
 1170 0 l 1,0,-1
EndSplineSet
EndChar

StartChar: tm_ra
Encoding: 2992 2992 74
Width: 818
GlyphClass: 2
Flags: W
LayerCount: 2
Fore
SplineSet
760 614 m 1,0,-1
 578 614 l 1,1,-1
 578 -96 l 1,2,-1
 110 -332 l 1,3,-1
 42 -196 l 1,4,-1
 424 -2 l 1,5,-1
 424 614 l 1,6,-1
 214 614 l 1,7,-1
 214 0 l 1,8,-1
 60 0 l 1,9,-1
 60 768 l 1,10,-1
 760 768 l 1,11,-1
 760 614 l 1,0,-1
EndSplineSet
EndChar

StartChar: tm_rra
Encoding: 2993 2993 75
Width: 1128
GlyphClass: 2
Flags: W
LayerCount: 2
Fore
SplineSet
1074 270 m 2,0,1
 1074 38 1074 38 924 -92 c 0,2,3
 786 -212 786 -212 558 -212 c 2,4,-1
 314 -212 l 2,5,6
 216 -212 216 -212 216 -292 c 2,7,-1
 216 -382 l 1,8,-1
 60 -382 l 1,9,-1
 60 -274 l 2,10,11
 60 -60 60 -60 314 -60 c 2,12,-1
 608 -60 l 2,13,14
 740 -60 740 -60 827 29 c 128,-1,15
 914 118 914 118 914 284 c 2,16,-1
 914 310 l 2,17,18
 914 634 914 634 726 634 c 0,19,20
 666 634 666 634 630 588 c 128,-1,21
 594 542 594 542 594 468 c 2,22,-1
 594 0 l 1,23,-1
 440 0 l 1,24,-1
 440 500 l 2,25,26
 440 634 440 634 328 634 c 256,27,28
 216 634 216 634 216 500 c 2,29,-1
 216 0 l 1,30,-1
 62 0 l 1,31,-1
 62 508 l 2,32,33
 62 624 62 624 126 702 c 0,34,35
 200 788 200 788 328 788 c 256,36,37
 456 788 456 788 530 698 c 1,38,39
 614 788 614 788 728 788 c 0,40,41
 884 788 884 788 979 668 c 128,-1,42
 1074 548 1074 548 1074 356 c 2,43,-1
 1074 270 l 2,0,1
EndSplineSet
EndChar

StartChar: tm_la
Encoding: 2994 2994 76
Width: 1468
GlyphClass: 2
Flags: W
LayerCount: 2
Fore
SplineSet
1396 422 m 0,0,1
 1396 234 1396 234 1299 111 c 128,-1,2
 1202 -12 1202 -12 1042 -12 c 0,3,4
 924 -12 924 -12 849 59 c 128,-1,5
 774 130 774 130 774 234 c 2,6,-1
 774 334 l 2,7,8
 774 624 774 624 500 624 c 0,9,10
 308 624 308 624 240 472 c 1,11,12
 286 500 286 500 364 500 c 0,13,14
 476 500 476 500 547 425 c 128,-1,15
 618 350 618 350 618 242 c 256,16,17
 618 134 618 134 550 62 c 0,18,19
 476 -18 476 -18 354 -18 c 256,20,21
 232 -18 232 -18 146 80 c 128,-1,22
 60 178 60 178 60 340 c 0,23,24
 60 538 60 538 190 662 c 0,25,26
 314 778 314 778 500 778 c 0,27,28
 706 778 706 778 824 644 c 0,29,30
 928 526 928 526 928 352 c 2,31,-1
 928 302 l 2,32,33
 928 142 928 142 1048 142 c 0,34,35
 1136 142 1136 142 1189 224 c 128,-1,36
 1242 306 1242 306 1242 422 c 0,37,38
 1242 548 1242 548 1178 634 c 128,-1,39
 1114 720 1114 720 1010 736 c 1,40,-1
 1060 882 l 1,41,42
 1200 854 1200 854 1294 734 c 0,43,44
 1396 604 1396 604 1396 422 c 0,0,1
458 242 m 256,45,46
 458 288 458 288 425 321 c 128,-1,47
 392 354 392 354 346 354 c 256,48,49
 300 354 300 354 268 321 c 128,-1,50
 236 288 236 288 236 242 c 0,51,52
 236 198 236 198 269 165 c 128,-1,53
 302 132 302 132 346 132 c 0,54,55
 392 132 392 132 425 164 c 128,-1,56
 458 196 458 196 458 242 c 256,45,46
EndSplineSet
EndChar

StartChar: tm_lla
Encoding: 2995 2995 77
Width: 1552
GlyphClass: 2
Flags: W
LayerCount: 2
Fore
SplineSet
1500 614 m 1,0,-1
 1390 614 l 1,1,-1
 1390 0 l 1,2,-1
 1236 0 l 1,3,-1
 1236 614 l 1,4,-1
 958 614 l 1,5,-1
 958 0 l 1,6,-1
 804 0 l 1,7,-1
 804 338 l 2,8,9
 804 464 804 464 723 544 c 128,-1,10
 642 624 642 624 500 624 c 0,11,12
 306 624 306 624 242 472 c 1,13,14
 298 500 298 500 364 500 c 0,15,16
 478 500 478 500 548 425 c 128,-1,17
 618 350 618 350 618 242 c 0,18,19
 618 130 618 130 546 56 c 128,-1,20
 474 -18 474 -18 354 -18 c 0,21,22
 232 -18 232 -18 146 81 c 128,-1,23
 60 180 60 180 60 340 c 0,24,25
 60 526 60 526 176 650 c 0,26,27
 300 778 300 778 500 778 c 0,28,29
 682 778 682 778 802 678 c 1,30,-1
 802 768 l 1,31,-1
 1500 768 l 1,32,-1
 1500 614 l 1,0,-1
462 240 m 256,33,34
 462 284 462 284 432 314 c 128,-1,35
 402 344 402 344 358 344 c 256,36,37
 314 344 314 344 283 314 c 128,-1,38
 252 284 252 284 252 240 c 256,39,40
 252 196 252 196 283 165 c 128,-1,41
 314 134 314 134 358 134 c 256,42,43
 402 134 402 134 432 165 c 128,-1,44
 462 196 462 196 462 240 c 256,33,34
EndSplineSet
EndChar

StartChar: tm_llla
Encoding: 2996 2996 78
Width: 1190
GlyphClass: 2
Flags: W
LayerCount: 2
Fore
SplineSet
1142 372 m 0,0,1
 1142 186 1142 186 1020 88 c 0,2,3
 914 0 914 0 740 0 c 2,4,-1
 650 0 l 1,5,6
 650 -74 650 -74 728 -74 c 2,7,-1
 854 -74 l 1,8,-1
 854 -224 l 1,9,-1
 742 -224 l 2,10,11
 682 -224 682 -224 667 -231 c 128,-1,12
 652 -238 652 -238 640 -272 c 0,13,14
 622 -324 622 -324 570 -364 c 0,15,16
 494 -422 494 -422 372 -422 c 2,17,-1
 352 -422 l 2,18,19
 224 -422 224 -422 150 -374 c 0,20,21
 68 -320 68 -320 68 -218 c 0,22,23
 68 -144 68 -144 110 -102 c 128,-1,24
 152 -60 152 -60 222 -60 c 2,25,-1
 316 -60 l 1,26,-1
 316 -188 l 1,27,-1
 256 -188 l 2,28,29
 220 -188 220 -188 220 -224 c 0,30,31
 220 -286 220 -286 362 -286 c 0,32,33
 432 -286 432 -286 472 -254 c 0,34,35
 502 -230 502 -230 508 -204 c 0,36,37
 520 -148 520 -148 586 -144 c 1,38,39
 496 -120 496 -120 496 0 c 1,40,-1
 68 0 l 1,41,-1
 68 768 l 1,42,-1
 220 768 l 1,43,-1
 220 154 l 1,44,-1
 496 154 l 1,45,-1
 496 546 l 2,46,47
 496 640 496 640 557 708 c 128,-1,48
 618 776 618 776 718 776 c 0,49,50
 886 776 886 776 1014 649 c 128,-1,51
 1142 522 1142 522 1142 372 c 0,0,1
988 372 m 0,52,53
 988 468 988 468 903 542 c 128,-1,54
 818 616 818 616 726 616 c 0,55,56
 650 616 650 616 650 546 c 2,57,-1
 650 154 l 1,58,-1
 754 154 l 2,59,60
 988 154 988 154 988 372 c 0,52,53
EndSplineSet
EndChar

StartChar: tm_va
Encoding: 2997 2997 79
Width: 1410
GlyphClass: 2
Flags: W
LayerCount: 2
Fore
SplineSet
1346 0 m 1,0,-1
 728 0 l 1,1,-1
 728 138 l 1,2,3
 744 146 744 146 770 200 c 0,4,5
 804 268 804 268 804 338 c 0,6,7
 804 468 804 468 723 546 c 128,-1,8
 642 624 642 624 500 624 c 0,9,10
 306 624 306 624 238 470 c 1,11,12
 280 500 280 500 364 500 c 0,13,14
 480 500 480 500 552 420 c 0,15,16
 618 346 618 346 618 242 c 0,17,18
 618 134 618 134 548 60 c 0,19,20
 472 -18 472 -18 354 -18 c 0,21,22
 226 -18 226 -18 143 83 c 128,-1,23
 60 184 60 184 60 340 c 0,24,25
 60 522 60 522 176 646 c 0,26,27
 300 778 300 778 500 778 c 0,28,29
 706 778 706 778 832 652 c 128,-1,30
 958 526 958 526 958 344 c 0,31,32
 958 240 958 240 920 154 c 1,33,-1
 1190 154 l 1,34,-1
 1190 768 l 1,35,-1
 1346 768 l 1,36,-1
 1346 0 l 1,0,-1
462 240 m 256,37,38
 462 284 462 284 432 314 c 128,-1,39
 402 344 402 344 358 344 c 256,40,41
 314 344 314 344 283 314 c 128,-1,42
 252 284 252 284 252 240 c 256,43,44
 252 196 252 196 283 165 c 128,-1,45
 314 134 314 134 358 134 c 256,46,47
 402 134 402 134 432 165 c 128,-1,48
 462 196 462 196 462 240 c 256,37,38
EndSplineSet
EndChar

StartChar: tm_ssa
Encoding: 2999 2999 80
Width: 1844
GlyphClass: 2
Flags: W
LayerCount: 2
Fore
SplineSet
1756 0 m 1,0,-1
 1574 0 l 1,1,-1
 1404 -338 l 1,2,-1
 1268 -266 l 1,3,-1
 1402 0 l 1,4,-1
 728 0 l 1,5,-1
 728 146 l 1,6,7
 798 238 798 238 798 374 c 0,8,9
 798 454 798 454 754 518 c 0,10,11
 674 630 674 630 486 630 c 0,12,13
 310 630 310 630 252 490 c 1,14,-1
 254 488 l 1,15,16
 280 504 280 504 344 504 c 0,17,18
 456 504 456 504 536 428 c 128,-1,19
 616 352 616 352 616 240 c 0,20,21
 616 140 616 140 546 62 c 0,22,23
 470 -20 470 -20 354 -20 c 0,24,25
 232 -20 232 -20 146 80 c 128,-1,26
 60 180 60 180 60 358 c 0,27,28
 60 510 60 510 160 632 c 0,29,30
 280 778 280 778 492 778 c 0,31,32
 742 778 742 778 866 630 c 0,33,34
 956 520 956 520 956 368 c 0,35,36
 956 242 956 242 908 154 c 1,37,-1
 1180 154 l 1,38,39
 1104 264 1104 264 1102 406 c 0,40,41
 1100 592 1100 592 1226 698 c 0,42,43
 1330 786 1330 786 1460 786 c 0,44,45
 1622 786 1622 786 1710 696 c 0,46,47
 1788 616 1788 616 1788 498 c 0,48,49
 1788 418 1788 418 1752 348 c 2,50,-1
 1652 154 l 1,51,-1
 1756 154 l 1,52,-1
 1756 0 l 1,0,-1
1616 430 m 2,53,54
 1628 460 1628 460 1628 494 c 0,55,56
 1628 636 1628 636 1460 636 c 0,57,58
 1382 636 1382 636 1328 588 c 0,59,60
 1256 528 1256 528 1254 406 c 0,61,62
 1252 282 1252 282 1332 208 c 0,63,64
 1392 154 1392 154 1444 154 c 2,65,-1
 1478 154 l 1,66,-1
 1616 430 l 2,53,54
462 242 m 0,67,68
 462 288 462 288 430 321 c 128,-1,69
 398 354 398 354 352 354 c 0,70,71
 304 354 304 354 271 321 c 128,-1,72
 238 288 238 288 238 242 c 256,73,74
 238 196 238 196 271 164 c 128,-1,75
 304 132 304 132 352 132 c 0,76,77
 398 132 398 132 430 165 c 128,-1,78
 462 198 462 198 462 242 c 0,67,68
EndSplineSet
EndChar

StartChar: tm_sa
Encoding: 3000 3000 81
Width: 1910
GlyphClass: 2
Flags: W
LayerCount: 2
Fore
SplineSet
1854 422 m 0,0,1
 1854 234 1854 234 1757 111 c 128,-1,2
 1660 -12 1660 -12 1500 -12 c 0,3,4
 1382 -12 1382 -12 1307 58 c 128,-1,5
 1232 128 1232 128 1232 234 c 2,6,-1
 1232 454 l 2,7,8
 1232 630 1232 630 1094 630 c 0,9,10
 1028 630 1028 630 993 575 c 128,-1,11
 958 520 958 520 958 438 c 2,12,-1
 958 0 l 1,13,-1
 804 0 l 1,14,-1
 804 338 l 2,15,16
 804 464 804 464 723 544 c 128,-1,17
 642 624 642 624 500 624 c 0,18,19
 306 624 306 624 242 472 c 1,20,21
 298 500 298 500 364 500 c 0,22,23
 478 500 478 500 548 425 c 128,-1,24
 618 350 618 350 618 242 c 0,25,26
 618 130 618 130 546 56 c 128,-1,27
 474 -18 474 -18 354 -18 c 0,28,29
 232 -18 232 -18 146 81 c 128,-1,30
 60 180 60 180 60 340 c 0,31,32
 60 526 60 526 176 650 c 0,33,34
 300 778 300 778 500 778 c 0,35,36
 714 778 714 778 864 628 c 1,37,38
 912 778 912 778 1098 778 c 0,39,40
 1228 778 1228 778 1304 698 c 0,41,42
 1384 612 1384 612 1384 444 c 2,43,-1
 1384 302 l 2,44,45
 1384 142 1384 142 1506 142 c 0,46,47
 1594 142 1594 142 1647 224 c 128,-1,48
 1700 306 1700 306 1700 422 c 0,49,50
 1700 548 1700 548 1635 634 c 128,-1,51
 1570 720 1570 720 1468 736 c 1,52,-1
 1518 882 l 1,53,54
 1658 854 1658 854 1752 734 c 0,55,56
 1854 604 1854 604 1854 422 c 0,0,1
462 240 m 256,57,58
 462 284 462 284 432 314 c 128,-1,59
 402 344 402 344 358 344 c 256,60,61
 314 344 314 344 283 314 c 128,-1,62
 252 284 252 284 252 240 c 256,63,64
 252 196 252 196 283 165 c 128,-1,65
 314 134 314 134 358 134 c 256,66,67
 402 134 402 134 432 165 c 128,-1,68
 462 196 462 196 462 240 c 256,57,58
EndSplineSet
EndChar

StartChar: tm_ha
Encoding: 3001 3001 82
Width: 2178
GlyphClass: 2
Flags: W
LayerCount: 2
Fore
SplineSet
2126 270 m 2,0,1
 2126 38 2126 38 1976 -92 c 0,2,3
 1838 -212 1838 -212 1610 -212 c 2,4,-1
 314 -212 l 2,5,6
 216 -212 216 -212 216 -292 c 2,7,-1
 216 -382 l 1,8,-1
 60 -382 l 1,9,-1
 60 -274 l 2,10,11
 60 -60 60 -60 314 -60 c 2,12,-1
 1660 -60 l 2,13,14
 1790 -60 1790 -60 1874 26 c 0,15,16
 1966 120 1966 120 1966 284 c 2,17,-1
 1966 310 l 2,18,19
 1966 634 1966 634 1776 634 c 0,20,21
 1718 634 1718 634 1682 588 c 128,-1,22
 1646 542 1646 542 1646 468 c 2,23,-1
 1646 0 l 1,24,-1
 1492 0 l 1,25,-1
 1492 500 l 2,26,27
 1492 634 1492 634 1380 634 c 256,28,29
 1268 634 1268 634 1268 500 c 2,30,-1
 1268 0 l 1,31,-1
 728 0 l 1,32,-1
 728 138 l 1,33,34
 744 146 744 146 770 200 c 0,35,36
 804 268 804 268 804 338 c 0,37,38
 804 468 804 468 723 546 c 128,-1,39
 642 624 642 624 500 624 c 0,40,41
 306 624 306 624 238 470 c 1,42,43
 280 500 280 500 364 500 c 0,44,45
 480 500 480 500 552 420 c 0,46,47
 618 346 618 346 618 242 c 0,48,49
 618 134 618 134 548 60 c 0,50,51
 472 -18 472 -18 354 -18 c 0,52,53
 226 -18 226 -18 143 83 c 128,-1,54
 60 184 60 184 60 340 c 0,55,56
 60 522 60 522 176 646 c 0,57,58
 300 778 300 778 500 778 c 0,59,60
 706 778 706 778 832 652 c 128,-1,61
 958 526 958 526 958 344 c 0,62,63
 958 240 958 240 920 154 c 1,64,-1
 1114 154 l 1,65,-1
 1114 508 l 2,66,67
 1114 624 1114 624 1178 702 c 0,68,69
 1252 788 1252 788 1380 788 c 256,70,71
 1508 788 1508 788 1582 698 c 1,72,73
 1666 788 1666 788 1780 788 c 0,74,75
 1934 788 1934 788 2030 668 c 128,-1,76
 2126 548 2126 548 2126 356 c 2,77,-1
 2126 270 l 2,0,1
462 240 m 256,78,79
 462 284 462 284 432 314 c 128,-1,80
 402 344 402 344 358 344 c 256,81,82
 314 344 314 344 283 314 c 128,-1,83
 252 284 252 284 252 240 c 256,84,85
 252 196 252 196 283 165 c 128,-1,86
 314 134 314 134 358 134 c 256,87,88
 402 134 402 134 432 165 c 128,-1,89
 462 196 462 196 462 240 c 256,78,79
EndSplineSet
EndChar

StartChar: tm_aakaar
Encoding: 3006 3006 83
Width: 812
GlyphClass: 2
Flags: W
LayerCount: 2
Fore
SplineSet
760 614 m 1,0,-1
 578 614 l 1,1,-1
 578 0 l 1,2,-1
 424 0 l 1,3,-1
 424 614 l 1,4,-1
 214 614 l 1,5,-1
 214 0 l 1,6,-1
 60 0 l 1,7,-1
 60 768 l 1,8,-1
 760 768 l 1,9,-1
 760 614 l 1,0,-1
EndSplineSet
EndChar

StartChar: tm_ikaar
Encoding: 3007 3007 84
Width: 836
GlyphClass: 2
Flags: W
LayerCount: 2
Fore
SplineSet
1338 0 m 1,0,-1
 1184 0 l 1,1,-1
 1184 826 l 2,2,3
 1184 1042 1184 1042 988 1042 c 0,4,5
 814 1042 814 1042 814 892 c 0,6,7
 814 794 814 794 894 768 c 1,8,-1
 710 768 l 1,9,10
 660 802 660 802 660 900 c 0,11,12
 660 1012 660 1012 740 1100 c 0,13,14
 832 1198 832 1198 982 1198 c 0,15,16
 1190 1198 1190 1198 1280 1052 c 0,17,18
 1338 960 1338 960 1338 846 c 2,19,-1
 1338 0 l 1,0,-1
EndSplineSet
EndChar

StartChar: tm_iikaar
Encoding: 3008 3008 85
Width: 890
GlyphClass: 4
Flags: W
LayerCount: 2
Fore
SplineSet
1120 1002 m 0,0,1
 1120 922 1120 922 1060 868 c 128,-1,2
 1000 814 1000 814 916 814 c 0,3,4
 770 814 770 814 730 942 c 1,5,6
 724 900 724 900 724 892 c 0,7,8
 724 768 724 768 822 768 c 2,9,-1
 602 768 l 1,10,11
 572 826 572 826 572 900 c 0,12,13
 572 1026 572 1026 656 1112 c 128,-1,14
 740 1198 740 1198 874 1198 c 0,15,16
 984 1198 984 1198 1052 1144 c 128,-1,17
 1120 1090 1120 1090 1120 1002 c 0,0,1
974 1004 m 0,18,19
 974 1068 974 1068 910 1068 c 0,20,21
 884 1068 884 1068 865 1049 c 128,-1,22
 846 1030 846 1030 846 1004 c 256,23,24
 846 978 846 978 865 959 c 128,-1,25
 884 940 884 940 910 940 c 256,26,27
 936 940 936 940 955 959 c 128,-1,28
 974 978 974 978 974 1004 c 0,18,19
EndSplineSet
EndChar

StartChar: tm_ukaar
Encoding: 3009 3009 86
Width: 667
GlyphClass: 4
Flags: W
LayerCount: 2
Fore
SplineSet
664 667 m 1,0,-1
 618 667 l 1,1,2
 652 599 652 599 652 533 c 0,3,4
 652 413 652 413 567 328 c 128,-1,5
 482 243 482 243 362 243 c 0,6,7
 244 243 244 243 158 328 c 128,-1,8
 72 413 72 413 72 533 c 0,9,10
 72 605 72 605 106 667 c 1,11,-1
 -164 667 l 1,12,-1
 -164 821 l 1,13,-1
 664 821 l 1,14,-1
 664 667 l 1,0,-1
496 533 m 0,15,16
 496 589 496 589 457 628 c 128,-1,17
 418 667 418 667 362 667 c 256,18,19
 306 667 306 667 267 628 c 128,-1,20
 228 589 228 589 228 533 c 0,21,22
 228 479 228 479 267 440 c 128,-1,23
 306 401 306 401 362 401 c 256,24,25
 418 401 418 401 457 440 c 128,-1,26
 496 479 496 479 496 533 c 0,15,16
EndSplineSet
EndChar

StartChar: tm_uukaar
Encoding: 3010 3010 87
Width: 924
GlyphClass: 4
Flags: W
LayerCount: 2
Fore
SplineSet
894 478 m 0,0,1
 894 282 894 282 768 171 c 128,-1,2
 642 60 642 60 422 66 c 1,3,-1
 422 220 l 1,4,5
 742 232 742 232 742 478 c 0,6,7
 742 648 742 648 582 682 c 1,8,-1
 582 682 l 1,9,10
 606 620 606 620 606 562 c 0,11,12
 606 442 606 442 521 357 c 128,-1,13
 436 272 436 272 318 272 c 0,14,15
 198 272 198 272 113 357 c 128,-1,16
 28 442 28 442 28 562 c 0,17,18
 28 634 28 634 62 696 c 1,19,-1
 -308 696 l 1,20,-1
 -308 850 l 1,21,-1
 460 852 l 2,22,23
 662 852 662 852 778 750 c 128,-1,24
 894 648 894 648 894 478 c 0,0,1
450 562 m 0,25,26
 450 618 450 618 411 657 c 128,-1,27
 372 696 372 696 318 696 c 0,28,29
 262 696 262 696 223 658 c 128,-1,30
 184 620 184 620 184 562 c 0,31,32
 184 508 184 508 223 469 c 128,-1,33
 262 430 262 430 318 430 c 0,34,35
 372 430 372 430 411 469 c 128,-1,36
 450 508 450 508 450 562 c 0,25,26
EndSplineSet
EndChar

StartChar: tm_ekaar
Encoding: 3014 3014 88
Width: 1070
GlyphClass: 2
Flags: W
LayerCount: 2
Fore
SplineSet
1014 0 m 1,0,-1
 862 0 l 1,1,-1
 862 502 l 2,2,3
 862 942 862 942 534 942 c 0,4,5
 406 942 406 942 320 858 c 0,6,7
 214 750 214 750 214 538 c 0,8,9
 214 286 214 286 324 192 c 1,10,-1
 324 192 l 1,11,12
 310 216 310 216 310 296 c 0,13,14
 310 396 310 396 385 460 c 128,-1,15
 460 524 460 524 564 524 c 0,16,17
 662 524 662 524 734 460 c 0,18,19
 812 386 812 386 812 264 c 0,20,21
 812 146 812 146 722 68 c 128,-1,22
 632 -10 632 -10 486 -10 c 0,23,24
 312 -10 312 -10 202 100 c 0,25,26
 60 242 60 242 60 538 c 0,27,28
 60 816 60 816 220 970 c 0,29,30
 352 1098 352 1098 530 1098 c 0,31,32
 1014 1098 1014 1098 1014 516 c 2,33,-1
 1014 0 l 1,0,-1
658 268 m 256,34,35
 658 310 658 310 629 340 c 128,-1,36
 600 370 600 370 558 370 c 256,37,38
 516 370 516 370 486 340 c 128,-1,39
 456 310 456 310 456 268 c 256,40,41
 456 226 456 226 486 197 c 128,-1,42
 516 168 516 168 558 168 c 0,43,44
 598 168 598 168 628 197 c 128,-1,45
 658 226 658 226 658 268 c 256,34,35
EndSplineSet
EndChar

StartChar: tm_eekaar
Encoding: 3015 3015 89
Width: 1048
GlyphClass: 2
Flags: W
LayerCount: 2
Fore
SplineSet
998 280 m 0,0,1
 998 152 998 152 900 72 c 0,2,3
 794 -14 794 -14 612 -14 c 0,4,5
 388 -14 388 -14 236 112 c 0,6,7
 58 262 58 262 58 544 c 0,8,9
 58 824 58 824 236 974 c 0,10,11
 388 1100 388 1100 612 1100 c 0,12,13
 794 1100 794 1100 900 1014 c 0,14,15
 998 934 998 934 998 806 c 0,16,17
 998 696 998 696 920 624 c 0,18,19
 846 560 846 560 750 560 c 0,20,21
 644 560 644 560 574 622 c 0,22,23
 498 686 498 686 494 790 c 0,24,25
 492 866 492 866 530 940 c 1,26,-1
 530 940 l 1,27,28
 398 924 398 924 314 836 c 0,29,30
 212 728 212 728 212 544 c 0,31,32
 212 358 212 358 314 250 c 0,33,34
 398 160 398 160 530 146 c 1,35,36
 492 220 492 220 494 296 c 0,37,38
 498 400 498 400 574 464 c 0,39,40
 644 524 644 524 750 524 c 0,41,42
 848 524 848 524 920 460 c 0,43,44
 998 390 998 390 998 280 c 0,0,1
846 814 m 0,45,46
 846 854 846 854 816 884 c 128,-1,47
 786 914 786 914 744 914 c 256,48,49
 702 914 702 914 673 884 c 128,-1,50
 644 854 644 854 644 814 c 0,51,52
 644 770 644 770 673 741 c 128,-1,53
 702 712 702 712 744 712 c 256,54,55
 786 712 786 712 816 741 c 128,-1,56
 846 770 846 770 846 814 c 0,45,46
846 274 m 0,57,58
 846 316 846 316 816 345 c 128,-1,59
 786 374 786 374 744 374 c 256,60,61
 702 374 702 374 673 345 c 128,-1,62
 644 316 644 316 644 274 c 0,63,64
 644 230 644 230 673 201 c 128,-1,65
 702 172 702 172 744 172 c 256,66,67
 786 172 786 172 816 201 c 128,-1,68
 846 230 846 230 846 274 c 0,57,58
EndSplineSet
EndChar

StartChar: tm_aikaar
Encoding: 3016 3016 90
Width: 1660
GlyphClass: 2
Flags: W
LayerCount: 2
Fore
SplineSet
1594 378 m 0,0,1
 1594 198 1594 198 1512 88 c 0,2,3
 1440 -6 1440 -6 1320 -32 c 1,4,-1
 1276 118 l 1,5,6
 1356 148 1356 148 1395 203 c 128,-1,7
 1434 258 1434 258 1434 368 c 0,8,9
 1434 468 1434 468 1354 542 c 0,10,11
 1266 622 1266 622 1130 622 c 0,12,13
 1090 622 1090 622 1048 608 c 1,14,15
 1166 484 1166 484 1166 326 c 0,16,17
 1166 182 1166 182 1110 88 c 0,18,19
 1044 -22 1044 -22 920 -22 c 0,20,21
 792 -22 792 -22 724 86 c 0,22,23
 666 180 666 180 666 326 c 0,24,25
 666 480 666 480 760 602 c 1,26,27
 666 630 666 630 586 630 c 0,28,29
 370 630 370 630 270 486 c 1,30,31
 288 500 288 500 350 500 c 0,32,33
 470 500 470 500 546 422 c 0,34,35
 614 348 614 348 614 246 c 0,36,37
 614 136 614 136 542 59 c 128,-1,38
 470 -18 470 -18 358 -18 c 0,39,40
 226 -18 226 -18 148 83 c 128,-1,41
 70 184 70 184 70 340 c 0,42,43
 70 532 70 532 209 655 c 128,-1,44
 348 778 348 778 580 778 c 0,45,46
 740 778 740 778 884 714 c 1,47,48
 990 778 990 778 1132 778 c 0,49,50
 1330 778 1330 778 1462 666 c 128,-1,51
 1594 554 1594 554 1594 378 c 0,0,1
1012 326 m 0,52,53
 1012 442 1012 442 906 528 c 1,54,55
 820 446 820 446 820 326 c 0,56,57
 820 132 820 132 918 132 c 0,58,59
 1012 132 1012 132 1012 326 c 0,52,53
458 240 m 256,60,61
 458 284 458 284 427 314 c 128,-1,62
 396 344 396 344 352 344 c 256,63,64
 308 344 308 344 278 314 c 128,-1,65
 248 284 248 284 248 240 c 256,66,67
 248 196 248 196 278 165 c 128,-1,68
 308 134 308 134 352 134 c 256,69,70
 396 134 396 134 427 165 c 128,-1,71
 458 196 458 196 458 240 c 256,60,61
EndSplineSet
EndChar

StartChar: tm_halant
Encoding: 3021 3021 94
Width: 339
GlyphClass: 4
Flags: W
LayerCount: 2
Fore
SplineSet
223 1149 m 0,0,1
 157 1149 157 1149 109.5 1196.5 c 128,-1,2
 62 1244 62 1244 62 1310 c 0,3,4
 62 1378 62 1378 109.5 1424.5 c 128,-1,5
 157 1471 157 1471 223 1471 c 0,6,7
 290 1471 290 1471 337 1424.5 c 128,-1,8
 384 1378 384 1378 384 1310 c 0,9,10
 384 1244 384 1244 337 1196.5 c 128,-1,11
 290 1149 290 1149 223 1149 c 0,0,1
EndSplineSet
EndChar

StartChar: tm_two
Encoding: 3048 3048 97
Width: 1425
GlyphClass: 2
Flags: W
LayerCount: 2
Fore
SplineSet
1244 70 m 1,0,-1
 1226 0 l 1,1,-1
 586 0 l 2,2,3
 429 0 429 0 429 106 c 0,4,5
 429 153 429 153 478 181.5 c 128,-1,6
 527 210 527 210 586 210 c 2,7,-1
 779 210 l 2,8,9
 867 210 867 210 928 271.5 c 128,-1,10
 989 333 989 333 989 420 c 0,11,12
 989 500 989 500 945 560.5 c 128,-1,13
 901 621 901 621 831 621 c 0,14,15
 793 621 793 621 744 595 c 1,16,17
 814 555 814 555 814 437 c 0,18,19
 814 382 814 382 772.5 344.5 c 128,-1,20
 731 307 731 307 675 307 c 0,21,22
 618 307 618 307 580 351 c 128,-1,23
 542 395 542 395 542 455 c 0,24,25
 542 565 542 565 646.5 632.5 c 128,-1,26
 751 700 751 700 884 700 c 0,27,28
 987 700 987 700 1058 629 c 128,-1,29
 1129 558 1129 558 1129 455 c 0,30,31
 1129 321 1129 321 1025.5 230.5 c 128,-1,32
 922 140 922 140 779 140 c 2,33,-1
 595 140 l 2,34,35
 551 140 551 140 551 106 c 0,36,37
 551 70 551 70 604 70 c 2,38,-1
 1244 70 l 1,0,-1
675 560 m 1,39,40
 621 516 621 516 621 473 c 0,41,42
 621 386 621 386 666 386 c 0,43,44
 709 386 709 386 709 473 c 0,45,46
 709 518 709 518 675 560 c 1,39,40
EndSplineSet
EndChar

StartChar: tm_three
Encoding: 3049 3049 98
Width: 1424
GlyphClass: 2
Flags: W
LayerCount: 2
Fore
SplineSet
1270 70 m 1,0,-1
 1252 0 l 1,1,-1
 640 0 l 1,2,-1
 657 70 l 1,3,-1
 780 70 l 2,4,5
 874 70 874 70 941 130.5 c 128,-1,6
 1008 191 1008 191 1008 280 c 0,7,8
 1008 317 1008 317 982.5 342.5 c 128,-1,9
 957 368 957 368 920 368 c 0,10,11
 890 368 890 368 865 341 c 128,-1,12
 840 314 840 314 833 280 c 2,13,-1
 815 193 l 1,14,-1
 675 193 l 1,15,-1
 764 630 l 1,16,-1
 571 630 l 1,17,-1
 444 0 l 1,18,-1
 378 0 l 1,19,-1
 517 700 l 1,20,-1
 1095 700 l 1,21,-1
 1077 630 l 1,22,-1
 902 630 l 1,23,-1
 859 403 l 1,24,25
 918 455 918 455 990 455 c 0,26,27
 1057 455 1057 455 1102.5 403.5 c 128,-1,28
 1148 352 1148 352 1148 280 c 0,29,30
 1148 209 1148 209 1090 151 c 128,-1,31
 1032 93 1032 93 947 70 c 1,32,-1
 1270 70 l 1,0,-1
EndSplineSet
EndChar

StartChar: tm_four
Encoding: 3050 3050 99
Width: 1427
GlyphClass: 2
Flags: W
LayerCount: 2
Fore
SplineSet
915 316 m 1,0,-1
 644 316 l 2,1,2
 601 316 601 316 570.5 291 c 128,-1,3
 540 266 540 266 540 228 c 0,4,5
 540 158 540 158 609.5 114 c 128,-1,6
 679 70 679 70 766 70 c 0,7,8
 811 70 811 70 844 99.5 c 128,-1,9
 877 129 877 129 887 175 c 2,10,-1
 915 316 l 1,0,-1
979 630 m 1,11,-1
 784 630 l 1,12,-1
 735 386 l 1,13,-1
 930 386 l 1,14,-1
 979 630 l 1,11,-1
1042 245 m 2,15,16
 1017 125 1017 125 940 62.5 c 128,-1,17
 863 0 863 0 766 0 c 0,18,19
 651 0 651 0 559.5 64 c 128,-1,20
 468 128 468 128 468 228 c 0,21,22
 468 294 468 294 520.5 340 c 128,-1,23
 573 386 573 386 644 386 c 2,24,-1
 669 386 l 1,25,-1
 731 700 l 1,26,-1
 1344 700 l 1,27,-1
 1329 630 l 1,28,-1
 1118 630 l 1,29,-1
 1068 386 l 1,30,-1
 1232 386 l 1,31,-1
 1248 464 l 1,32,-1
 1309 464 l 1,33,-1
 1279 316 l 1,34,-1
 1055 316 l 1,35,-1
 1042 245 l 2,15,16
EndSplineSet
EndChar

StartChar: tm_five
Encoding: 3051 3051 100
Width: 1424
GlyphClass: 2
Flags: W
LayerCount: 2
Fore
SplineSet
1412 517 m 1,0,-1
 1359 526 l 1,1,2
 1369 563 1369 563 1369 598 c 0,3,4
 1369 723 1369 723 1253.5 825.5 c 128,-1,5
 1138 928 1138 928 965 928 c 0,6,7
 728 928 728 928 575.5 716 c 128,-1,8
 423 504 423 504 423 228 c 0,9,10
 423 -43 423 -43 515 -179.5 c 128,-1,11
 607 -316 607 -316 790 -316 c 0,12,13
 979 -316 979 -316 1103.5 -163.5 c 128,-1,14
 1228 -11 1228 -11 1228 193 c 0,15,16
 1228 257 1228 257 1200 304.5 c 128,-1,17
 1172 352 1172 352 1126 352 c 0,18,19
 1099 352 1099 352 1072.5 336.5 c 128,-1,20
 1046 321 1046 321 1039 298 c 2,21,-1
 980 0 l 1,22,-1
 840 0 l 1,23,-1
 965 630 l 1,24,-1
 759 630 l 1,25,-1
 634 0 l 1,26,-1
 566 0 l 1,27,-1
 706 700 l 1,28,-1
 1237 700 l 1,29,-1
 1219 630 l 1,30,-1
 1105 630 l 1,31,-1
 1057 386 l 1,32,33
 1101 437 1101 437 1171 437 c 0,34,35
 1261 437 1261 437 1314.5 368.5 c 128,-1,36
 1368 300 1368 300 1368 193 c 0,37,38
 1368 -47 1368 -47 1202.5 -216 c 128,-1,39
 1037 -385 1037 -385 799 -385 c 0,40,41
 589 -385 589 -385 471.5 -223 c 128,-1,42
 354 -61 354 -61 354 193 c 0,43,44
 354 513 354 513 519 764 c 128,-1,45
 684 1015 684 1015 948 1015 c 0,46,47
 1152 1015 1152 1015 1288.5 889.5 c 128,-1,48
 1425 764 1425 764 1425 613 c 0,49,50
 1425 566 1425 566 1412 517 c 1,0,-1
EndSplineSet
EndChar

StartChar: tm_six
Encoding: 3052 3052 101
Width: 1424
GlyphClass: 2
Flags: W
LayerCount: 2
Fore
SplineSet
784 316 m 1,0,-1
 513 316 l 2,1,2
 469 316 469 316 438 291 c 128,-1,3
 407 266 407 266 407 228 c 0,4,5
 407 158 407 158 477 114 c 128,-1,6
 547 70 547 70 635 70 c 0,7,8
 680 70 680 70 713 99.5 c 128,-1,9
 746 129 746 129 756 175 c 2,10,-1
 784 316 l 1,0,-1
846 630 m 1,11,-1
 653 630 l 1,12,-1
 603 386 l 1,13,-1
 798 386 l 1,14,-1
 846 630 l 1,11,-1
910 245 m 2,15,16
 884 125 884 125 808 62.5 c 128,-1,17
 732 0 732 0 635 0 c 0,18,19
 518 0 518 0 428 64 c 128,-1,20
 338 128 338 128 338 228 c 0,21,22
 338 294 338 294 389.5 340 c 128,-1,23
 441 386 441 386 513 386 c 2,24,-1
 537 386 l 1,25,-1
 600 700 l 1,26,-1
 1229 700 l 1,27,-1
 1213 630 l 1,28,-1
 988 630 l 1,29,-1
 938 386 l 1,30,-1
 1422 386 l 1,31,-1
 1410 316 l 1,32,-1
 1353 316 l 1,33,-1
 1291 0 l 1,34,-1
 1151 0 l 1,35,-1
 1213 316 l 1,36,-1
 1116 316 l 1,37,-1
 1055 0 l 1,38,-1
 967 0 l 1,39,-1
 1028 316 l 1,40,-1
 924 316 l 1,41,-1
 910 245 l 2,15,16
EndSplineSet
EndChar

StartChar: tm_seven
Encoding: 3053 3053 102
Width: 1425
GlyphClass: 2
Flags: W
LayerCount: 2
Fore
SplineSet
643 88 m 1,0,1
 706 88 706 88 753 128 c 128,-1,2
 800 168 800 168 800 228 c 0,3,4
 800 269 800 269 781 301 c 128,-1,5
 762 333 762 333 729 333 c 0,6,7
 684 333 684 333 654.5 296.5 c 128,-1,8
 625 260 625 260 625 210 c 0,9,10
 625 135 625 135 643 88 c 1,0,1
1042 0 m 1,11,-1
 1167 630 l 1,12,-1
 852 630 l 2,13,14
 704 630 704 630 594.5 540.5 c 128,-1,15
 485 451 485 451 485 316 c 0,16,17
 485 247 485 247 507 194.5 c 128,-1,18
 529 142 529 142 572 106 c 1,19,20
 555 135 555 135 555 228 c 256,21,22
 555 321 555 321 614.5 388 c 128,-1,23
 674 455 674 455 765 455 c 0,24,25
 837 455 837 455 884 398 c 128,-1,26
 931 341 931 341 931 263 c 0,27,28
 931 155 931 155 863 77.5 c 128,-1,29
 795 0 795 0 695 0 c 0,30,31
 576 0 576 0 495.5 94 c 128,-1,32
 415 188 415 188 415 316 c 0,33,34
 415 481 415 481 545.5 590.5 c 128,-1,35
 676 700 676 700 852 700 c 2,36,-1
 1430 700 l 1,37,-1
 1412 630 l 1,38,-1
 1307 630 l 1,39,-1
 1181 0 l 1,40,-1
 1042 0 l 1,11,-1
EndSplineSet
EndChar

StartChar: tm_eight
Encoding: 3054 3054 103
Width: 1427
GlyphClass: 2
Flags: W
LayerCount: 2
Fore
SplineSet
849 629 m 1,0,1
 745 611 745 611 670 548.5 c 128,-1,2
 595 486 595 486 595 402 c 0,3,4
 595 338 595 338 638.5 291 c 128,-1,5
 682 244 682 244 744 244 c 0,6,7
 817 244 817 244 864 307.5 c 128,-1,8
 911 371 911 371 911 454 c 0,9,10
 911 580 911 580 849 629 c 1,0,1
1024 140 m 1,11,-1
 411 140 l 2,12,13
 381 140 381 140 357 125 c 128,-1,14
 333 110 333 110 333 87 c 0,15,16
 333 43 333 43 412 -13.5 c 128,-1,17
 491 -70 491 -70 639 -70 c 0,18,19
 743 -70 743 -70 839.5 -18 c 128,-1,20
 936 34 936 34 1024 140 c 1,11,-1
1414 -245 m 1,21,-1
 1269 -245 l 1,22,-1
 1348 140 l 1,23,-1
 1164 140 l 1,24,25
 1051 4 1051 4 915 -63.5 c 128,-1,26
 779 -131 779 -131 621 -131 c 0,27,28
 421 -131 421 -131 311.5 -52.5 c 128,-1,29
 202 26 202 26 202 123 c 0,30,31
 202 160 202 160 233 184.5 c 128,-1,32
 264 209 264 209 307 209 c 2,33,-1
 666 209 l 1,34,35
 604 231 604 231 565 284.5 c 128,-1,36
 526 338 526 338 526 402 c 0,37,38
 526 534 526 534 652 617 c 128,-1,39
 778 700 778 700 937 700 c 0,40,41
 1069 700 1069 700 1169 620.5 c 128,-1,42
 1269 541 1269 541 1269 420 c 0,43,44
 1269 306 1269 306 1213 209 c 1,45,-1
 1364 209 l 1,46,-1
 1463 700 l 1,47,-1
 1603 700 l 1,48,-1
 1414 -245 l 1,21,-1
989 620 m 1,49,50
 1042 530 1042 530 1042 411 c 0,51,52
 1042 267 1042 267 919 209 c 1,53,-1
 1077 209 l 1,54,55
 1146 308 1146 308 1146 402 c 0,56,57
 1146 486 1146 486 1103 553 c 128,-1,58
 1060 620 1060 620 989 620 c 1,49,50
EndSplineSet
EndChar

StartChar: tm_nine
Encoding: 3055 3055 104
Width: 1427
GlyphClass: 2
Flags: W
LayerCount: 2
Fore
SplineSet
692 316 m 1,0,-1
 422 316 l 2,1,2
 379 316 379 316 348 291 c 128,-1,3
 317 266 317 266 317 228 c 0,4,5
 317 158 317 158 387 114 c 128,-1,6
 457 70 457 70 544 70 c 0,7,8
 589 70 589 70 622 99.5 c 128,-1,9
 655 129 655 129 665 175 c 2,10,-1
 692 316 l 1,0,-1
756 630 m 1,11,-1
 562 630 l 1,12,-1
 513 386 l 1,13,-1
 707 386 l 1,14,-1
 756 630 l 1,11,-1
1157 175 m 0,15,16
 1157 259 1157 259 1052 298 c 1,17,18
 982 240 982 240 982 158 c 0,19,20
 982 121 982 121 1007.5 95.5 c 128,-1,21
 1033 70 1033 70 1068 70 c 0,22,23
 1107 70 1107 70 1132 101.5 c 128,-1,24
 1157 133 1157 133 1157 175 c 0,15,16
1297 0 m 1,25,26
 1375 93 1375 93 1375 193 c 0,27,28
 1375 263 1375 263 1332.5 315.5 c 128,-1,29
 1290 368 1290 368 1226 368 c 0,30,31
 1163 368 1163 368 1113 342 c 1,32,33
 1167 322 1167 322 1201 276.5 c 128,-1,34
 1235 231 1235 231 1235 175 c 0,35,36
 1235 104 1235 104 1187 52 c 128,-1,37
 1139 0 1139 0 1068 0 c 0,38,39
 1005 0 1005 0 958.5 46.5 c 128,-1,40
 912 93 912 93 912 158 c 0,41,42
 912 257 912 257 982 316 c 1,43,-1
 833 316 l 1,44,-1
 819 245 l 2,45,46
 795 125 795 125 718.5 62.5 c 128,-1,47
 642 0 642 0 544 0 c 0,48,49
 428 0 428 0 337 64 c 128,-1,50
 246 128 246 128 246 228 c 0,51,52
 246 294 246 294 299 340 c 128,-1,53
 352 386 352 386 422 386 c 2,54,-1
 446 386 l 1,55,-1
 508 700 l 1,56,-1
 1122 700 l 1,57,-1
 1104 630 l 1,58,-1
 896 630 l 1,59,-1
 847 386 l 1,60,-1
 947 386 l 2,61,62
 1014 386 1014 386 1052 368 c 1,63,64
 1111 420 1111 420 1226 420 c 0,65,66
 1327 420 1327 420 1399.5 354.5 c 128,-1,67
 1472 289 1472 289 1472 193 c 0,68,69
 1472 109 1472 109 1410 0 c 1,70,-1
 1297 0 l 1,25,26
EndSplineSet
EndChar

StartChar: tm_ten
Encoding: 3056 3056 105
Width: 1260
GlyphClass: 2
Flags: W
LayerCount: 2
Fore
SplineSet
597 149 m 1,0,1
 558 74 558 74 508 37 c 128,-1,2
 458 0 458 0 395 0 c 0,3,4
 302 0 302 0 242 64 c 128,-1,5
 182 128 182 128 182 200 c 0,6,7
 182 224 182 224 186 244 c 2,8,-1
 279 700 l 1,9,-1
 419 700 l 1,10,-1
 325 244 l 2,11,12
 320 223 320 223 320 205 c 0,13,14
 320 155 320 155 346.5 112.5 c 128,-1,15
 373 70 373 70 413 70 c 0,16,17
 472 70 472 70 525 146 c 128,-1,18
 578 222 578 222 606 359 c 2,19,-1
 675 700 l 1,20,-1
 815 700 l 1,21,-1
 746 351 l 2,22,23
 728 262 728 262 728 204 c 0,24,25
 728 150 728 150 760.5 110 c 128,-1,26
 793 70 793 70 841 70 c 0,27,28
 957 70 957 70 1026 204 c 128,-1,29
 1095 338 1095 338 1095 500 c 0,30,31
 1095 691 1095 691 995.5 840 c 128,-1,32
 896 989 896 989 737 989 c 1,33,-1
 755 1042 l 1,34,35
 960 1042 960 1042 1097.5 880.5 c 128,-1,36
 1235 719 1235 719 1235 500 c 0,37,38
 1235 300 1235 300 1118.5 150 c 128,-1,39
 1002 0 1002 0 824 0 c 0,40,41
 739 0 739 0 673.5 40.5 c 128,-1,42
 608 81 608 81 597 149 c 1,0,1
EndSplineSet
EndChar

StartChar: tm_hundred
Encoding: 3057 3057 106
Width: 1166
GlyphClass: 2
Flags: W
LayerCount: 2
Fore
SplineSet
1284 700 m 1,0,-1
 1267 629 l 1,1,-1
 1117 629 l 1,2,-1
 991 0 l 1,3,-1
 851 0 l 1,4,-1
 977 629 l 1,5,-1
 770 629 l 1,6,-1
 644 0 l 1,7,-1
 504 0 l 1,8,-1
 599 472 l 2,9,10
 606 507 606 507 606 534 c 0,11,12
 606 579 606 579 589 613 c 128,-1,13
 572 647 572 647 540 647 c 0,14,15
 483 647 483 647 440 595.5 c 128,-1,16
 397 544 397 544 382 472 c 2,17,-1
 285 0 l 1,18,-1
 146 0 l 1,19,-1
 242 472 l 2,20,21
 263 577 263 577 336.5 647 c 128,-1,22
 410 717 410 717 503 717 c 0,23,24
 567 717 567 717 614 679.5 c 128,-1,25
 661 642 661 642 661 585 c 1,26,-1
 685 700 l 1,27,-1
 1284 700 l 1,0,-1
EndSplineSet
EndChar

StartChar: tm_thousand
Encoding: 3058 3058 107
Width: 1256
GlyphClass: 2
Flags: W
LayerCount: 2
Fore
SplineSet
551 316 m 1,0,-1
 280 316 l 2,1,2
 237 316 237 316 206 291 c 128,-1,3
 175 266 175 266 175 228 c 0,4,5
 175 158 175 158 245.5 114 c 128,-1,6
 316 70 316 70 402 70 c 0,7,8
 447 70 447 70 480 99.5 c 128,-1,9
 513 129 513 129 523 175 c 2,10,-1
 551 316 l 1,0,-1
615 630 m 1,11,-1
 420 630 l 1,12,-1
 371 386 l 1,13,-1
 565 386 l 1,14,-1
 615 630 l 1,11,-1
677 245 m 2,15,16
 653 125 653 125 576 62.5 c 128,-1,17
 499 0 499 0 402 0 c 0,18,19
 285 0 285 0 195 64 c 128,-1,20
 105 128 105 128 105 228 c 0,21,22
 105 294 105 294 156.5 340 c 128,-1,23
 208 386 208 386 280 386 c 2,24,-1
 304 386 l 1,25,-1
 367 700 l 1,26,-1
 997 700 l 1,27,-1
 983 630 l 1,28,-1
 755 630 l 1,29,-1
 705 386 l 1,30,-1
 1120 386 l 1,31,-1
 1105 316 l 1,32,-1
 971 316 l 1,33,-1
 945 175 l 1,34,35
 990 228 990 228 1067 228 c 0,36,37
 1134 228 1134 228 1179.5 176 c 128,-1,38
 1225 124 1225 124 1225 53 c 0,39,40
 1225 -78 1225 -78 1108 -161 c 128,-1,41
 991 -244 991 -244 840 -244 c 0,42,43
 740 -244 740 -244 542 -205 c 0,44,45
 346 -167 346 -167 244 -167 c 0,46,47
 181 -167 181 -167 134 -206.5 c 128,-1,48
 87 -246 87 -246 87 -307 c 0,49,50
 87 -384 87 -384 158 -411 c 1,51,-1
 149 -445 l 1,52,53
 82 -433 82 -433 36.5 -387 c 128,-1,54
 -9 -341 -9 -341 -9 -280 c 0,55,56
 -9 -205 -9 -205 70.5 -159.5 c 128,-1,57
 150 -114 150 -114 244 -114 c 0,58,59
 346 -114 346 -114 542 -153 c 0,60,61
 740 -192 740 -192 840 -192 c 0,62,63
 938 -192 938 -192 1011.5 -135 c 128,-1,64
 1085 -78 1085 -78 1085 9 c 0,65,66
 1085 61 1085 61 1061 100.5 c 128,-1,67
 1037 140 1037 140 997 140 c 256,68,69
 957 140 957 140 927 88 c 1,70,-1
 910 0 l 1,71,-1
 769 0 l 1,72,-1
 831 316 l 1,73,-1
 691 316 l 1,74,-1
 677 245 l 2,15,16
EndSplineSet
EndChar

StartChar: zerowidthnonjoiner
Encoding: 8204 8204 108
Width: 0
GlyphClass: 2
Flags: W
LayerCount: 2
Fore
SplineSet
315 1225 m 1,0,-1
 -34 -516 l 1,1,-1
 -103 -516 l 1,2,-1
 244 1225 l 1,3,-1
 315 1225 l 1,0,-1
EndSplineSet
EndChar

StartChar: zerowidthjoiner
Encoding: 8205 8205 109
Width: 0
GlyphClass: 2
Flags: W
LayerCount: 2
Fore
SplineSet
415 997 m 1,0,-1
 363 953 l 1,1,-1
 270 1073 l 1,2,-1
 -24 -441 l 1,3,-1
 -87 -441 l 1,4,-1
 206 1073 l 1,5,-1
 65 953 l 1,6,-1
 32 997 l 1,7,-1
 210 1145 l 1,8,-1
 89 1292 l 1,9,-1
 140 1334 l 1,10,-1
 260 1185 l 1,11,-1
 437 1334 l 1,12,-1
 472 1292 l 1,13,-1
 294 1145 l 1,14,-1
 415 997 l 1,0,-1
EndSplineSet
EndChar

StartChar: u2013
Encoding: 8211 8211 110
Width: 722
GlyphClass: 2
Flags: W
LayerCount: 2
Fore
SplineSet
733 319 m 1,0,-1
 -12 319 l 1,1,-1
 -12 370 l 1,2,-1
 733 370 l 1,3,-1
 733 319 l 1,0,-1
EndSplineSet
EndChar

StartChar: u2014
Encoding: 8212 8212 111
Width: 1284
GlyphClass: 2
Flags: W
LayerCount: 2
Fore
SplineSet
1296 318 m 1,0,-1
 -13 319 l 1,1,-1
 -13 371 l 1,2,-1
 1296 370 l 1,3,-1
 1296 318 l 1,0,-1
EndSplineSet
EndChar

StartChar: u2018
Encoding: 8216 8216 112
Width: 346
GlyphClass: 2
Flags: W
LayerCount: 2
Fore
SplineSet
266 566 m 1,0,-1
 88 566 l 1,1,-1
 88 710 l 2,2,3
 88 858 88 858 176 912 c 0,4,5
 194 922 194 922 262 948 c 1,6,-1
 262 880 l 1,7,8
 214 866 214 866 188 836 c 1,9,10
 170 806 170 806 170 742 c 1,11,-1
 266 742 l 1,12,-1
 266 566 l 1,0,-1
EndSplineSet
EndChar

StartChar: u2019
Encoding: 8217 8217 113
Width: 346
GlyphClass: 2
Flags: W
LayerCount: 2
Fore
SplineSet
266 800 m 2,0,1
 266 740 266 740 252 690 c 1,2,3
 228 630 228 630 178 600 c 0,4,5
 156 584 156 584 92 564 c 1,6,-1
 92 630 l 1,7,8
 140 648 140 648 166 676 c 1,9,10
 184 704 184 704 184 770 c 1,11,-1
 88 770 l 1,12,-1
 88 944 l 1,13,-1
 266 944 l 1,14,-1
 266 800 l 2,0,1
EndSplineSet
EndChar

StartChar: u201C
Encoding: 8220 8220 114
Width: 571
GlyphClass: 2
Flags: W
LayerCount: 2
Fore
SplineSet
266 566 m 1,0,-1
 88 566 l 1,1,-1
 88 710 l 2,2,3
 88 858 88 858 176 912 c 0,4,5
 194 922 194 922 262 948 c 1,6,-1
 262 880 l 1,7,8
 214 866 214 866 188 836 c 1,9,10
 170 806 170 806 170 742 c 1,11,-1
 266 742 l 1,12,-1
 266 566 l 1,0,-1
466 566 m 1,13,-1
 288 566 l 1,14,-1
 288 710 l 2,15,16
 288 858 288 858 376 912 c 0,17,18
 394 922 394 922 462 948 c 1,19,-1
 462 880 l 1,20,21
 414 866 414 866 388 836 c 1,22,23
 370 806 370 806 370 742 c 1,24,-1
 466 742 l 1,25,-1
 466 566 l 1,13,-1
EndSplineSet
EndChar

StartChar: u201D
Encoding: 8221 8221 115
Width: 537
GlyphClass: 2
Flags: W
LayerCount: 2
Fore
SplineSet
266 800 m 2,0,1
 266 740 266 740 252 690 c 1,2,3
 228 630 228 630 178 600 c 0,4,5
 156 584 156 584 92 564 c 1,6,-1
 92 630 l 1,7,8
 140 648 140 648 166 676 c 1,9,10
 184 704 184 704 184 770 c 1,11,-1
 88 770 l 1,12,-1
 88 944 l 1,13,-1
 266 944 l 1,14,-1
 266 800 l 2,0,1
466 800 m 2,15,16
 466 740 466 740 452 690 c 1,17,18
 428 630 428 630 378 600 c 0,19,20
 356 584 356 584 292 564 c 1,21,-1
 292 630 l 1,22,23
 340 648 340 648 366 676 c 1,24,25
 384 704 384 704 384 770 c 1,26,-1
 288 770 l 1,27,-1
 288 944 l 1,28,-1
 466 944 l 1,29,-1
 466 800 l 2,15,16
EndSplineSet
EndChar

StartChar: u2026
Encoding: 8230 8230 116
Width: 1283
GlyphClass: 2
Flags: W
LayerCount: 2
Fore
SplineSet
265 136 m 0,0,1
 298 136 298 136 320.5 114 c 128,-1,2
 343 92 343 92 343 58 c 0,3,4
 343 26 343 26 320.5 3 c 128,-1,5
 298 -20 298 -20 265 -20 c 0,6,7
 233 -20 233 -20 210 3 c 128,-1,8
 187 26 187 26 187 58 c 0,9,10
 187 92 187 92 210 114 c 128,-1,11
 233 136 233 136 265 136 c 0,0,1
638 136 m 256,12,13
 670 136 670 136 693 114 c 128,-1,14
 716 92 716 92 716 58 c 0,15,16
 716 26 716 26 692.5 3 c 128,-1,17
 669 -20 669 -20 638 -20 c 0,18,19
 606 -20 606 -20 583 3 c 128,-1,20
 560 26 560 26 560 58 c 0,21,22
 560 92 560 92 583 114 c 128,-1,23
 606 136 606 136 638 136 c 256,12,13
1010 136 m 0,24,25
 1043 136 1043 136 1066 114 c 128,-1,26
 1089 92 1089 92 1089 58 c 0,27,28
 1089 26 1089 26 1065.5 3 c 128,-1,29
 1042 -20 1042 -20 1010 -20 c 256,30,31
 978 -20 978 -20 955.5 3 c 128,-1,32
 933 26 933 26 933 58 c 0,33,34
 933 92 933 92 955.5 114 c 128,-1,35
 978 136 978 136 1010 136 c 0,24,25
EndSplineSet
EndChar

StartChar: u2212
Encoding: 8722 8722 117
Width: 974
GlyphClass: 2
Flags: W
LayerCount: 2
Fore
SplineSet
133 450 m 1,0,-1
 133 508 l 1,1,-1
 894 508 l 1,2,-1
 894 450 l 1,3,-1
 133 450 l 1,0,-1
EndSplineSet
EndChar

StartChar: u25CC
Encoding: 9676 9676 118
Width: 1167
GlyphClass: 2
Flags: W
LayerCount: 2
Fore
SplineSet
654 665 m 0,0,1
 626 665 626 665 612 679 c 128,-1,2
 598 693 598 693 598 724 c 0,3,4
 598 746 598 746 615 762.5 c 128,-1,5
 632 779 632 779 654 779 c 0,6,7
 683 779 683 779 697.5 765 c 128,-1,8
 712 751 712 751 712 724 c 0,9,10
 712 693 712 693 697.5 679 c 128,-1,11
 683 665 683 665 654 665 c 0,0,1
840 616 m 0,12,13
 811 616 811 616 796.5 630.5 c 128,-1,14
 782 645 782 645 782 674 c 0,15,16
 782 701 782 701 796.5 715 c 128,-1,17
 811 729 811 729 840 729 c 0,18,19
 862 729 862 729 879 713 c 128,-1,20
 896 697 896 697 896 674 c 0,21,22
 896 645 896 645 882 630.5 c 128,-1,23
 868 616 868 616 840 616 c 0,12,13
470 616 m 0,24,25
 442 616 442 616 428 630.5 c 128,-1,26
 414 645 414 645 414 674 c 0,27,28
 414 697 414 697 431 713 c 128,-1,29
 448 729 448 729 470 729 c 0,30,31
 494 729 494 729 510 713 c 128,-1,32
 526 697 526 697 526 674 c 0,33,34
 526 645 526 645 512.5 630.5 c 128,-1,35
 499 616 499 616 470 616 c 0,24,25
973 482 m 0,36,37
 951 482 951 482 933.5 498 c 128,-1,38
 916 514 916 514 916 538 c 0,39,40
 916 567 916 567 930.5 581 c 128,-1,41
 945 595 945 595 973 595 c 256,42,43
 1001 595 1001 595 1014.5 581 c 128,-1,44
 1028 567 1028 567 1028 538 c 0,45,46
 1028 514 1028 514 1012 498 c 128,-1,47
 996 482 996 482 973 482 c 0,36,37
336 482 m 0,48,49
 307 482 307 482 293 495.5 c 128,-1,50
 279 509 279 509 279 538 c 256,51,52
 279 567 279 567 293 581 c 128,-1,53
 307 595 307 595 336 595 c 0,54,55
 364 595 364 595 378 581 c 128,-1,56
 392 567 392 567 392 538 c 0,57,58
 392 514 392 514 375 498 c 128,-1,59
 358 482 358 482 336 482 c 0,48,49
1024 298 m 0,60,61
 994 298 994 298 979.5 311.5 c 128,-1,62
 965 325 965 325 965 354 c 0,63,64
 965 382 965 382 979.5 396 c 128,-1,65
 994 410 994 410 1024 410 c 0,66,67
 1046 410 1046 410 1063 393 c 128,-1,68
 1080 376 1080 376 1080 354 c 0,69,70
 1080 331 1080 331 1063 314.5 c 128,-1,71
 1046 298 1046 298 1024 298 c 0,60,61
287 298 m 0,72,73
 257 298 257 298 243 311.5 c 128,-1,74
 229 325 229 325 229 354 c 0,75,76
 229 382 229 382 243 396 c 128,-1,77
 257 410 257 410 287 410 c 0,78,79
 310 410 310 410 326.5 393 c 128,-1,80
 343 376 343 376 343 354 c 0,81,82
 343 331 343 331 326.5 314.5 c 128,-1,83
 310 298 310 298 287 298 c 0,72,73
973 112 m 256,84,85
 945 112 945 112 930.5 126.5 c 128,-1,86
 916 141 916 141 916 169 c 0,87,88
 916 193 916 193 933.5 209.5 c 128,-1,89
 951 226 951 226 973 226 c 0,90,91
 996 226 996 226 1012 209.5 c 128,-1,92
 1028 193 1028 193 1028 169 c 0,93,94
 1028 141 1028 141 1014.5 126.5 c 128,-1,95
 1001 112 1001 112 973 112 c 256,84,85
336 112 m 0,96,97
 307 112 307 112 293 126.5 c 128,-1,98
 279 141 279 141 279 169 c 0,99,100
 279 198 279 198 293 212 c 128,-1,101
 307 226 307 226 336 226 c 0,102,103
 358 226 358 226 375 209.5 c 128,-1,104
 392 193 392 193 392 169 c 0,105,106
 392 141 392 141 378 126.5 c 128,-1,107
 364 112 364 112 336 112 c 0,96,97
840 -22 m 0,108,109
 811 -22 811 -22 796.5 -8 c 128,-1,110
 782 6 782 6 782 34 c 0,111,112
 782 63 782 63 796.5 78 c 128,-1,113
 811 93 811 93 840 93 c 0,114,115
 863 93 863 93 879.5 75 c 128,-1,116
 896 57 896 57 896 34 c 256,117,118
 896 11 896 11 879 -5.5 c 128,-1,119
 862 -22 862 -22 840 -22 c 0,108,109
470 -22 m 0,120,121
 448 -22 448 -22 431 -5.5 c 128,-1,122
 414 11 414 11 414 34 c 256,123,124
 414 57 414 57 430.5 75 c 128,-1,125
 447 93 447 93 470 93 c 0,126,127
 495 93 495 93 510.5 75 c 128,-1,128
 526 57 526 57 526 34 c 256,129,130
 526 11 526 11 510 -5.5 c 128,-1,131
 494 -22 494 -22 470 -22 c 0,120,121
654 -72 m 0,132,133
 632 -72 632 -72 615 -55 c 128,-1,134
 598 -38 598 -38 598 -16 c 0,135,136
 598 14 598 14 612 28.5 c 128,-1,137
 626 43 626 43 654 43 c 0,138,139
 683 43 683 43 697.5 28.5 c 128,-1,140
 712 14 712 14 712 -16 c 0,141,142
 712 -44 712 -44 697.5 -58 c 128,-1,143
 683 -72 683 -72 654 -72 c 0,132,133
EndSplineSet
EndChar

StartChar: tm_k_ikaar
Encoding: 65539 -1 119
Width: 1398
GlyphClass: 2
Flags: W
LayerCount: 2
Fore
SplineSet
1338 0 m 1,0,-1
 1184 0 l 1,1,-1
 1184 826 l 2,2,3
 1184 1042 1184 1042 988 1042 c 0,4,5
 814 1042 814 1042 814 892 c 0,6,7
 814 794 814 794 894 768 c 1,8,-1
 926 768 l 1,9,-1
 926 614 l 1,10,-1
 728 614 l 1,11,-1
 728 458 l 1,12,-1
 864 458 l 2,13,14
 966 458 966 458 1034 406 c 0,15,16
 1106 348 1106 348 1106 246 c 0,17,18
 1106 116 1106 116 1014 44 c 0,19,20
 936 -18 936 -18 824 -18 c 0,21,22
 710 -18 710 -18 664 34 c 1,23,24
 718 70 718 70 742 148 c 1,25,26
 762 136 762 136 802 136 c 0,27,28
 944 136 944 136 944 236 c 0,29,30
 944 302 944 302 848 302 c 2,31,-1
 728 302 l 1,32,-1
 728 236 l 2,33,34
 728 116 728 116 636 46 c 0,35,36
 552 -18 552 -18 430 -18 c 0,37,38
 288 -18 288 -18 188 52 c 0,39,40
 74 132 74 132 74 268 c 0,41,42
 74 342 74 342 117 392 c 128,-1,43
 160 442 160 442 226 452 c 1,44,-1
 226 768 l 1,45,-1
 710 768 l 1,46,47
 660 802 660 802 660 900 c 0,48,49
 660 1012 660 1012 740 1100 c 0,50,51
 832 1198 832 1198 982 1198 c 0,52,53
 1190 1198 1190 1198 1280 1052 c 0,54,55
 1338 960 1338 960 1338 846 c 2,56,-1
 1338 0 l 1,0,-1
574 458 m 1,57,-1
 574 614 l 1,58,-1
 380 614 l 1,59,-1
 380 458 l 1,60,-1
 574 458 l 1,57,-1
574 244 m 2,61,-1
 574 302 l 1,62,-1
 288 302 l 2,63,64
 230 302 230 302 230 252 c 0,65,66
 230 206 230 206 289 171 c 128,-1,67
 348 136 348 136 430 136 c 0,68,69
 492 136 492 136 533 165 c 128,-1,70
 574 194 574 194 574 244 c 2,61,-1
EndSplineSet
Ligature2: "'psts' Post Base Substitutions lookup 8 subtable" tm_ka tm_ikaar
EndChar

StartChar: tm_ng_ikaar
Encoding: 65540 -1 120
Width: 1540
GlyphClass: 2
Flags: W
LayerCount: 2
Fore
SplineSet
1496 140 m 1,0,-1
 1342 140 l 1,1,-1
 1342 976 l 2,2,3
 1342 1062 1342 1062 1279 1125 c 128,-1,4
 1216 1188 1216 1188 1128 1188 c 256,5,6
 1040 1188 1040 1188 977 1126 c 128,-1,7
 914 1064 914 1064 914 976 c 0,8,9
 914 896 914 896 963 839 c 128,-1,10
 1012 782 1012 782 1088 766 c 1,11,-1
 1088 908 l 1,12,-1
 1242 908 l 1,13,-1
 1248 0 l 1,14,-1
 680 0 l 1,15,-1
 680 154 l 1,16,-1
 710 154 l 2,17,18
 788 154 788 154 788 246 c 0,19,20
 788 294 788 294 753 323 c 128,-1,21
 718 352 718 352 664 352 c 0,22,23
 554 352 554 352 554 276 c 2,24,-1
 554 0 l 1,25,-1
 400 0 l 1,26,-1
 400 614 l 1,27,-1
 226 614 l 1,28,-1
 226 0 l 1,29,-1
 74 0 l 1,30,-1
 74 768 l 1,31,-1
 772 768 l 1,32,-1
 772 614 l 1,33,-1
 554 614 l 1,34,-1
 554 474 l 1,35,36
 590 498 590 498 676 498 c 0,37,38
 826 498 826 498 896 414 c 0,39,40
 952 350 952 350 952 246 c 0,41,42
 952 200 952 200 934 154 c 1,43,-1
 1094 154 l 1,44,-1
 1095 612 l 1,45,46
 952 628 952 628 862 722 c 0,47,48
 762 824 762 824 762 976 c 0,49,50
 762 1130 762 1130 869 1237 c 128,-1,51
 976 1344 976 1344 1128 1344 c 256,52,53
 1280 1344 1280 1344 1388 1236 c 128,-1,54
 1496 1128 1496 1128 1496 976 c 2,55,-1
 1496 140 l 1,0,-1
EndSplineSet
Ligature2: "'psts' Post Base Substitutions lookup 8 subtable" tm_nga tm_ikaar
EndChar

StartChar: tm_c_ikaar
Encoding: 65541 -1 121
Width: 1284
GlyphClass: 2
Flags: W
LayerCount: 2
Fore
SplineSet
1218 0 m 1,0,-1
 1066 0 l 1,1,-1
 1066 826 l 2,2,3
 1066 1042 1066 1042 876 1042 c 0,4,5
 696 1042 696 1042 696 892 c 0,6,7
 696 794 696 794 776 768 c 1,8,-1
 926 768 l 1,9,-1
 926 614 l 1,10,-1
 728 614 l 1,11,-1
 728 458 l 1,12,-1
 980 458 l 1,13,-1
 980 302 l 1,14,-1
 728 302 l 1,15,-1
 728 236 l 2,16,17
 728 116 728 116 636 46 c 0,18,19
 552 -18 552 -18 430 -18 c 0,20,21
 288 -18 288 -18 188 52 c 0,22,23
 74 132 74 132 74 268 c 0,24,25
 74 342 74 342 117 392 c 128,-1,26
 160 442 160 442 226 452 c 1,27,-1
 226 768 l 1,28,-1
 570 768 l 1,29,30
 542 832 542 832 542 900 c 0,31,32
 542 1012 542 1012 622 1100 c 0,33,34
 714 1198 714 1198 864 1198 c 0,35,36
 1072 1198 1072 1198 1162 1052 c 0,37,38
 1218 960 1218 960 1218 846 c 2,39,-1
 1218 0 l 1,0,-1
574 458 m 1,40,-1
 574 614 l 1,41,-1
 380 614 l 1,42,-1
 380 458 l 1,43,-1
 574 458 l 1,40,-1
574 244 m 2,44,-1
 574 302 l 1,45,-1
 288 302 l 2,46,47
 230 302 230 302 230 252 c 0,48,49
 230 206 230 206 289 171 c 128,-1,50
 348 136 348 136 430 136 c 0,51,52
 492 136 492 136 533 165 c 128,-1,53
 574 194 574 194 574 244 c 2,44,-1
EndSplineSet
Ligature2: "'psts' Post Base Substitutions lookup 8 subtable" tm_ca tm_ikaar
EndChar

StartChar: tm_j_ikaar
Encoding: 65542 -1 122
Width: 1606
GlyphClass: 2
Flags: W
LayerCount: 2
Fore
SplineSet
1552 0 m 1,0,-1
 1398 0 l 1,1,-1
 1398 826 l 2,2,3
 1398 1042 1398 1042 1204 1042 c 0,4,5
 1118 1042 1118 1042 1070 991 c 128,-1,6
 1022 940 1022 940 1022 862 c 0,7,8
 1022 798 1022 798 1060 764 c 1,9,10
 1170 734 1170 734 1236 634 c 0,11,12
 1296 538 1296 538 1296 416 c 2,13,-1
 1296 388 l 2,14,15
 1296 216 1296 216 1184 114 c 0,16,17
 1058 2 1058 2 820 2 c 2,18,-1
 380 2 l 2,19,20
 226 2 226 2 226 -116 c 0,21,22
 226 -254 226 -254 408 -254 c 0,23,24
 504 -254 504 -254 566 -228 c 0,25,26
 612 -210 612 -210 620 -188 c 0,27,28
 680 -10 680 -10 956 -10 c 0,29,30
 1280 -10 1280 -10 1280 -206 c 0,31,32
 1280 -302 1280 -302 1211 -355 c 128,-1,33
 1142 -408 1142 -408 1030 -408 c 2,34,-1
 916 -408 l 1,35,-1
 916 -276 l 1,36,-1
 1030 -276 l 2,37,38
 1114 -276 1114 -276 1114 -224 c 0,39,40
 1114 -190 1114 -190 1088 -176 c 0,41,42
 1050 -156 1050 -156 946 -156 c 0,43,44
 788 -156 788 -156 764 -270 c 1,45,46
 678 -408 678 -408 408 -408 c 0,47,48
 246 -408 246 -408 156 -330 c 128,-1,49
 66 -252 66 -252 66 -122 c 0,50,51
 66 16 66 16 162 92 c 0,52,53
 244 156 244 156 370 156 c 2,54,-1
 878 156 l 2,55,56
 1010 156 1010 156 1078 228 c 0,57,58
 1140 292 1140 292 1140 400 c 2,59,-1
 1140 414 l 2,60,61
 1140 494 1140 494 1096 554 c 0,62,63
 1046 622 1046 622 962 622 c 0,64,65
 782 622 782 622 782 440 c 2,66,-1
 782 248 l 1,67,-1
 626 248 l 1,68,-1
 626 422 l 2,69,70
 626 628 626 628 408 628 c 0,71,72
 330 628 330 628 296 602 c 1,73,-1
 328 602 l 2,74,75
 430 602 430 602 490 536 c 0,76,77
 544 478 544 478 544 390 c 0,78,79
 544 294 544 294 482 234 c 128,-1,80
 420 174 420 174 316 174 c 0,81,82
 200 174 200 174 132 249 c 128,-1,83
 64 324 64 324 64 450 c 0,84,85
 64 614 64 614 180 702 c 0,86,87
 276 778 276 778 420 778 c 0,88,89
 610 778 610 778 710 666 c 1,90,91
 772 752 772 752 900 770 c 1,92,93
 870 824 870 824 870 878 c 0,94,95
 870 1010 870 1010 954 1100 c 0,96,97
 1044 1198 1044 1198 1196 1198 c 0,98,99
 1404 1198 1404 1198 1496 1052 c 0,100,101
 1552 960 1552 960 1552 846 c 2,102,-1
 1552 0 l 1,0,-1
386 398 m 0,103,104
 386 432 386 432 363 455 c 128,-1,105
 340 478 340 478 306 478 c 0,106,107
 274 478 274 478 250 455 c 128,-1,108
 226 432 226 432 226 398 c 0,109,110
 226 366 226 366 250 342 c 128,-1,111
 274 318 274 318 306 318 c 0,112,113
 340 318 340 318 363 342 c 128,-1,114
 386 366 386 366 386 398 c 0,103,104
EndSplineSet
Ligature2: "'psts' Post Base Substitutions lookup 8 subtable" tm_ja tm_ikaar
EndChar

StartChar: tm_ny_ikaar
Encoding: 65543 -1 123
Width: 1844
GlyphClass: 2
Flags: W
LayerCount: 2
Fore
SplineSet
1612 200 m 0,0,1
 1612 -84 1612 -84 1408 -253 c 128,-1,2
 1204 -422 1204 -422 838 -422 c 0,3,4
 508 -422 508 -422 284 -232 c 0,5,6
 44 -26 44 -26 44 316 c 0,7,8
 44 636 44 636 206 776 c 1,9,-1
 304 658 l 1,10,11
 270 630 270 630 240 556 c 0,12,13
 194 448 194 448 194 310 c 0,14,15
 194 42 194 42 386 -118 c 0,16,17
 566 -268 566 -268 838 -268 c 0,18,19
 1156 -268 1156 -268 1316 -130 c 0,20,21
 1458 -8 1458 -8 1458 200 c 0,22,23
 1458 262 1458 262 1427 303 c 128,-1,24
 1396 344 1396 344 1342 344 c 0,25,26
 1256 344 1256 344 1256 258 c 2,27,-1
 1256 0 l 1,28,-1
 1102 0 l 1,29,-1
 1102 614 l 1,30,-1
 772 614 l 2,31,32
 682 614 682 614 616 572 c 0,33,34
 562 538 562 538 544 490 c 1,35,-1
 544 488 l 1,36,37
 574 504 574 504 634 504 c 0,38,39
 746 504 746 504 826 428 c 128,-1,40
 906 352 906 352 906 240 c 0,41,42
 906 140 906 140 836 62 c 0,43,44
 760 -20 760 -20 644 -20 c 0,45,46
 522 -20 522 -20 437 79 c 128,-1,47
 352 178 352 178 352 358 c 0,48,49
 352 512 352 512 450 626 c 0,50,51
 572 768 572 768 800 768 c 2,52,-1
 1135 768 l 1,53,54
 1110 818 1110 818 1110 868 c 0,55,56
 1110 1000 1110 1000 1194 1090 c 0,57,58
 1284 1188 1284 1188 1436 1188 c 0,59,60
 1644 1188 1644 1188 1736 1042 c 0,61,62
 1792 950 1792 950 1792 836 c 2,63,-1
 1792 -10 l 1,64,-1
 1638 -10 l 1,65,-1
 1638 816 l 2,66,67
 1638 1032 1638 1032 1444 1032 c 0,68,69
 1358 1032 1358 1032 1310 981 c 128,-1,70
 1262 930 1262 930 1262 852 c 0,71,72
 1262 800 1262 800 1287 768 c 1,73,-1
 1366 768 l 1,74,-1
 1366 614 l 1,75,-1
 1256 614 l 1,76,-1
 1256 462 l 1,77,78
 1278 500 1278 500 1358 500 c 0,79,80
 1474 500 1474 500 1546 408 c 0,81,82
 1612 322 1612 322 1612 200 c 0,0,1
752 242 m 0,83,84
 752 288 752 288 720 321 c 128,-1,85
 688 354 688 354 642 354 c 256,86,87
 596 354 596 354 563 321 c 128,-1,88
 530 288 530 288 530 242 c 256,89,90
 530 196 530 196 563 164 c 128,-1,91
 596 132 596 132 642 132 c 256,92,93
 688 132 688 132 720 165 c 128,-1,94
 752 198 752 198 752 242 c 0,83,84
EndSplineSet
Ligature2: "'psts' Post Base Substitutions lookup 8 subtable" tm_nya tm_ikaar
EndChar

StartChar: tm_tt_ikaar
Encoding: 65544 -1 124
Width: 1282
GlyphClass: 2
Flags: W
LayerCount: 2
Fore
SplineSet
1218 0 m 1,0,-1
 978 0 l 1,1,-1
 906 -338 l 1,2,-1
 746 -338 l 1,3,-1
 816 0 l 1,4,-1
 74 0 l 1,5,-1
 74 768 l 1,6,-1
 228 768 l 1,7,-1
 228 154 l 1,8,-1
 512 154 l 1,9,10
 404 220 404 220 404 406 c 0,11,12
 404 572 404 572 502 679 c 128,-1,13
 600 786 600 786 764 786 c 0,14,15
 918 786 918 786 998 706 c 0,16,17
 1072 632 1072 632 1072 508 c 0,18,19
 1072 462 1072 462 1062 412 c 2,20,-1
 1008 152 l 1,21,-1
 1218 152 l 1,22,-1
 1218 0 l 1,0,-1
914 458 m 2,23,24
 918 476 918 476 918 494 c 0,25,26
 918 554 918 554 878 595 c 128,-1,27
 838 636 838 636 764 636 c 0,28,29
 686 636 686 636 630 588 c 0,30,31
 558 528 558 528 558 406 c 0,32,33
 558 276 558 276 642 208 c 0,34,35
 710 152 710 152 808 152 c 2,36,-1
 850 152 l 1,37,-1
 914 458 l 2,23,24
EndSplineSet
Ligature2: "'psts' Post Base Substitutions lookup 8 subtable" tm_tta tm_ikaar
EndChar

StartChar: tm_nn_ikaar
Encoding: 65545 -1 125
Width: 2418
GlyphClass: 2
Flags: W
LayerCount: 2
Fore
SplineSet
2364 0 m 1,0,-1
 2210 0 l 1,1,-1
 2210 826 l 2,2,3
 2210 1042 2210 1042 2014 1042 c 0,4,5
 1840 1042 1840 1042 1840 892 c 0,6,7
 1840 794 1840 794 1922 768 c 1,8,-1
 2158 768 l 1,9,-1
 2158 614 l 1,10,-1
 2048 614 l 1,11,-1
 2048 0 l 1,12,-1
 1894 0 l 1,13,-1
 1894 614 l 1,14,-1
 1698 614 l 2,15,16
 1664 614 1664 614 1628 602 c 1,17,18
 1728 486 1728 486 1728 326 c 0,19,20
 1728 178 1728 178 1670 86 c 0,21,22
 1604 -22 1604 -22 1474 -22 c 0,23,24
 1352 -22 1352 -22 1286 88 c 0,25,26
 1228 184 1228 184 1228 326 c 0,27,28
 1228 484 1228 484 1346 608 c 1,29,30
 1286 628 1286 628 1202 628 c 256,31,32
 1118 628 1118 628 1058 608 c 1,33,34
 1176 488 1176 488 1176 326 c 0,35,36
 1176 182 1176 182 1120 88 c 0,37,38
 1054 -22 1054 -22 932 -22 c 0,39,40
 802 -22 802 -22 736 86 c 0,41,42
 678 178 678 178 678 326 c 0,43,44
 678 482 678 482 774 600 c 1,45,46
 696 630 696 630 580 630 c 0,47,48
 358 630 358 630 260 488 c 1,49,50
 284 504 284 504 344 504 c 0,51,52
 456 504 456 504 536 428 c 128,-1,53
 616 352 616 352 616 240 c 0,54,55
 616 140 616 140 546 62 c 0,56,57
 470 -20 470 -20 354 -20 c 0,58,59
 232 -20 232 -20 146 80 c 0,60,61
 68 170 68 170 68 326 c 0,62,63
 68 550 68 550 230 672 c 0,64,65
 368 778 368 778 576 778 c 0,66,67
 782 778 782 778 908 712 c 1,68,69
 1034 778 1034 778 1206 778 c 0,70,71
 1336 778 1336 778 1488 712 c 1,72,73
 1582 764 1582 764 1714 768 c 1,74,75
 1688 828 1688 828 1688 900 c 0,76,77
 1688 1012 1688 1012 1768 1100 c 0,78,79
 1858 1198 1858 1198 2008 1198 c 0,80,81
 2216 1198 2216 1198 2308 1052 c 0,82,83
 2364 960 2364 960 2364 846 c 2,84,-1
 2364 0 l 1,0,-1
1574 326 m 0,85,86
 1574 446 1574 446 1486 530 c 1,87,88
 1382 440 1382 440 1382 326 c 0,89,90
 1382 132 1382 132 1476 132 c 0,91,92
 1574 132 1574 132 1574 326 c 0,85,86
1024 326 m 0,93,94
 1024 440 1024 440 918 528 c 1,95,96
 832 446 832 446 832 326 c 0,97,98
 832 132 832 132 928 132 c 256,99,100
 1024 132 1024 132 1024 326 c 0,93,94
462 242 m 0,101,102
 462 288 462 288 430 321 c 128,-1,103
 398 354 398 354 352 354 c 0,104,105
 304 354 304 354 271 321 c 128,-1,106
 238 288 238 288 238 242 c 256,107,108
 238 196 238 196 271 164 c 128,-1,109
 304 132 304 132 352 132 c 0,110,111
 398 132 398 132 430 165 c 128,-1,112
 462 198 462 198 462 242 c 0,101,102
EndSplineSet
Ligature2: "'psts' Post Base Substitutions lookup 8 subtable" tm_nna tm_ikaar
EndChar

StartChar: tm_t_ikaar
Encoding: 65546 -1 126
Width: 1390
GlyphClass: 2
Flags: W
LayerCount: 2
Fore
SplineSet
1338 0 m 1,0,-1
 1184 0 l 1,1,-1
 1184 826 l 2,2,3
 1184 1042 1184 1042 992 1042 c 0,4,5
 814 1042 814 1042 814 892 c 0,6,7
 814 794 814 794 894 768 c 1,8,-1
 926 768 l 1,9,-1
 926 614 l 1,10,-1
 728 614 l 1,11,-1
 728 458 l 1,12,-1
 768 458 l 2,13,14
 916 458 916 458 1011 378 c 128,-1,15
 1106 298 1106 298 1106 156 c 2,16,-1
 1106 142 l 2,17,18
 1106 -16 1106 -16 976 -120 c 0,19,20
 858 -212 858 -212 700 -212 c 2,21,-1
 324 -212 l 2,22,23
 224 -212 224 -212 224 -292 c 2,24,-1
 224 -382 l 1,25,-1
 70 -382 l 1,26,-1
 70 -274 l 2,27,28
 70 -58 70 -58 324 -58 c 2,29,-1
 696 -58 l 2,30,31
 816 -58 816 -58 888 4 c 0,32,33
 954 62 954 62 954 150 c 2,34,-1
 954 156 l 2,35,36
 954 220 954 220 910 261 c 128,-1,37
 866 302 866 302 792 302 c 2,38,-1
 728 302 l 1,39,-1
 728 236 l 2,40,41
 728 116 728 116 636 46 c 0,42,43
 552 -18 552 -18 430 -18 c 0,44,45
 288 -18 288 -18 188 52 c 0,46,47
 74 132 74 132 74 268 c 0,48,49
 74 342 74 342 117 392 c 128,-1,50
 160 442 160 442 226 452 c 1,51,-1
 226 768 l 1,52,-1
 686 768 l 1,53,54
 660 834 660 834 660 900 c 0,55,56
 660 1012 660 1012 740 1100 c 0,57,58
 832 1198 832 1198 982 1198 c 0,59,60
 1190 1198 1190 1198 1280 1052 c 0,61,62
 1338 960 1338 960 1338 846 c 2,63,-1
 1338 0 l 1,0,-1
574 458 m 1,64,-1
 574 614 l 1,65,-1
 380 614 l 1,66,-1
 380 458 l 1,67,-1
 574 458 l 1,64,-1
574 244 m 2,68,-1
 574 302 l 1,69,-1
 288 302 l 2,70,71
 230 302 230 302 230 252 c 0,72,73
 230 206 230 206 289 171 c 128,-1,74
 348 136 348 136 430 136 c 0,75,76
 492 136 492 136 533 165 c 128,-1,77
 574 194 574 194 574 244 c 2,68,-1
EndSplineSet
Ligature2: "'psts' Post Base Substitutions lookup 8 subtable" tm_ta tm_ikaar
EndChar

StartChar: tm_n_ikaar
Encoding: 65547 -1 127
Width: 1280
GlyphClass: 2
Flags: W
LayerCount: 2
Fore
SplineSet
1202 0 m 1,0,-1
 1048 0 l 1,1,-1
 1048 826 l 2,2,3
 1048 1042 1048 1042 858 1042 c 0,4,5
 678 1042 678 1042 678 892 c 0,6,7
 678 796 678 796 758 768 c 1,8,-1
 786 768 l 1,9,-1
 786 614 l 1,10,-1
 554 614 l 1,11,-1
 554 428 l 1,12,13
 600 454 600 454 686 454 c 0,14,15
 800 454 800 454 880 374 c 0,16,17
 964 288 964 288 964 156 c 0,18,19
 964 -20 964 -20 849 -116 c 128,-1,20
 734 -212 734 -212 540 -212 c 2,21,-1
 324 -212 l 2,22,23
 224 -212 224 -212 224 -292 c 2,24,-1
 224 -382 l 1,25,-1
 70 -382 l 1,26,-1
 70 -274 l 2,27,28
 70 -60 70 -60 324 -60 c 2,29,-1
 550 -60 l 2,30,31
 800 -60 800 -60 800 156 c 0,32,33
 800 302 800 302 664 302 c 0,34,35
 554 302 554 302 554 210 c 2,36,-1
 554 0 l 1,37,-1
 400 0 l 1,38,-1
 400 614 l 1,39,-1
 226 614 l 1,40,-1
 226 0 l 1,41,-1
 74 0 l 1,42,-1
 74 768 l 1,43,-1
 552 768 l 1,44,45
 524 832 524 832 524 900 c 0,46,47
 524 1012 524 1012 604 1100 c 0,48,49
 696 1198 696 1198 846 1198 c 0,50,51
 1054 1198 1054 1198 1146 1052 c 0,52,53
 1202 960 1202 960 1202 846 c 2,54,-1
 1202 0 l 1,0,-1
EndSplineSet
Ligature2: "'psts' Post Base Substitutions lookup 8 subtable" tm_na tm_ikaar
EndChar

StartChar: tm_nnn_ikaar
Encoding: 65548 -1 128
Width: 1896
GlyphClass: 2
Flags: W
LayerCount: 2
Fore
SplineSet
1836 0 m 1,0,-1
 1682 0 l 1,1,-1
 1682 826 l 2,2,3
 1682 1042 1682 1042 1492 1042 c 0,4,5
 1312 1042 1312 1042 1312 892 c 0,6,7
 1312 796 1312 796 1392 768 c 1,8,-1
 1612 768 l 1,9,-1
 1612 614 l 1,10,-1
 1502 614 l 1,11,-1
 1502 0 l 1,12,-1
 1348 0 l 1,13,-1
 1348 614 l 1,14,-1
 1130 614 l 2,15,16
 1092 614 1092 614 1062 608 c 1,17,18
 1182 482 1182 482 1182 326 c 0,19,20
 1182 182 1182 182 1124 88 c 0,21,22
 1058 -22 1058 -22 934 -22 c 0,23,24
 806 -22 806 -22 738 86 c 0,25,26
 680 180 680 180 680 326 c 0,27,28
 680 476 680 476 774 602 c 1,29,30
 672 630 672 630 594 630 c 0,31,32
 370 630 370 630 270 486 c 1,33,34
 288 500 288 500 350 500 c 0,35,36
 470 500 470 500 546 422 c 0,37,38
 614 348 614 348 614 246 c 0,39,40
 614 136 614 136 542 59 c 128,-1,41
 470 -18 470 -18 358 -18 c 0,42,43
 226 -18 226 -18 148 83 c 128,-1,44
 70 184 70 184 70 340 c 0,45,46
 70 532 70 532 209 655 c 128,-1,47
 348 778 348 778 580 778 c 0,48,49
 794 778 794 778 906 720 c 1,50,51
 990 768 990 768 1112 768 c 2,52,-1
 1186 768 l 1,53,54
 1158 832 1158 832 1158 900 c 0,55,56
 1158 1012 1158 1012 1238 1100 c 0,57,58
 1330 1198 1330 1198 1480 1198 c 0,59,60
 1688 1198 1688 1198 1780 1052 c 0,61,62
 1836 960 1836 960 1836 846 c 2,63,-1
 1836 0 l 1,0,-1
1028 326 m 0,64,65
 1028 442 1028 442 920 528 c 1,66,67
 836 444 836 444 836 326 c 0,68,69
 836 132 836 132 934 132 c 0,70,71
 1028 132 1028 132 1028 326 c 0,64,65
458 240 m 256,72,73
 458 284 458 284 427 314 c 128,-1,74
 396 344 396 344 352 344 c 256,75,76
 308 344 308 344 278 314 c 128,-1,77
 248 284 248 284 248 240 c 256,78,79
 248 196 248 196 278 165 c 128,-1,80
 308 134 308 134 352 134 c 256,81,82
 396 134 396 134 427 165 c 128,-1,83
 458 196 458 196 458 240 c 256,72,73
EndSplineSet
Ligature2: "'psts' Post Base Substitutions lookup 8 subtable" tm_nnna tm_ikaar
EndChar

StartChar: tm_p_ikaar
Encoding: 65549 -1 129
Width: 1322
GlyphClass: 2
Flags: W
LayerCount: 2
Fore
SplineSet
1236 0 m 1,0,-1
 1082 0 l 1,1,-1
 1082 836 l 2,2,3
 1082 922 1082 922 1019 985 c 128,-1,4
 956 1048 956 1048 868 1048 c 256,5,6
 780 1048 780 1048 717 986 c 128,-1,7
 654 924 654 924 654 836 c 0,8,9
 654 756 654 756 703 699 c 128,-1,10
 752 642 752 642 828 626 c 1,11,-1
 828 768 l 1,12,-1
 982 768 l 1,13,-1
 982 0 l 1,14,-1
 80 0 l 1,15,-1
 80 768 l 1,16,-1
 234 768 l 1,17,-1
 234 154 l 1,18,-1
 828 154 l 1,19,-1
 828 472 l 1,20,21
 692 488 692 488 602 582 c 0,22,23
 502 684 502 684 502 836 c 0,24,25
 502 990 502 990 609 1097 c 128,-1,26
 716 1204 716 1204 868 1204 c 256,27,28
 1020 1204 1020 1204 1128 1096 c 128,-1,29
 1236 988 1236 988 1236 836 c 2,30,-1
 1236 0 l 1,0,-1
EndSplineSet
Ligature2: "'psts' Post Base Substitutions lookup 8 subtable" tm_pa tm_ikaar
EndChar

StartChar: tm_m_ikaar
Encoding: 65550 -1 130
Width: 1446
GlyphClass: 2
Flags: W
LayerCount: 2
Fore
SplineSet
1374 0 m 1,0,-1
 1218 0 l 1,1,-1
 1218 826 l 2,2,3
 1218 1042 1218 1042 1024 1042 c 0,4,5
 938 1042 938 1042 890 990 c 128,-1,6
 842 938 842 938 842 862 c 0,7,8
 842 790 842 790 888 736 c 1,9,10
 998 686 998 686 1070 583 c 128,-1,11
 1142 480 1142 480 1142 372 c 0,12,13
 1142 186 1142 186 1020 88 c 0,14,15
 914 0 914 0 740 0 c 2,16,-1
 68 0 l 1,17,-1
 68 768 l 1,18,-1
 220 768 l 1,19,-1
 220 154 l 1,20,-1
 496 154 l 1,21,-1
 496 546 l 2,22,23
 496 638 496 638 554 706 c 128,-1,24
 612 774 612 774 710 776 c 1,25,26
 688 824 688 824 688 872 c 0,27,28
 688 1004 688 1004 772 1096 c 0,29,30
 864 1198 864 1198 1016 1198 c 0,31,32
 1224 1198 1224 1198 1316 1052 c 0,33,34
 1374 960 1374 960 1374 846 c 2,35,-1
 1374 0 l 1,0,-1
988 372 m 0,36,37
 988 468 988 468 903 542 c 128,-1,38
 818 616 818 616 726 616 c 0,39,40
 650 616 650 616 650 546 c 2,41,-1
 650 154 l 1,42,-1
 754 154 l 2,43,44
 988 154 988 154 988 372 c 0,36,37
EndSplineSet
Ligature2: "'psts' Post Base Substitutions lookup 8 subtable" tm_ma tm_ikaar
EndChar

StartChar: tm_y_ikaar
Encoding: 65551 -1 131
Width: 1496
GlyphClass: 2
Flags: W
LayerCount: 2
Fore
SplineSet
1440 0 m 1,0,-1
 1286 0 l 1,1,-1
 1286 826 l 2,2,3
 1286 1042 1286 1042 1090 1042 c 0,4,5
 916 1042 916 1042 916 872 c 0,6,7
 916 760 916 760 1016 730 c 1,8,-1
 1016 768 l 1,9,-1
 1170 768 l 1,10,-1
 1170 0 l 1,11,-1
 476 0 l 1,12,-1
 476 36 l 1,13,14
 402 -4 402 -4 324 -4 c 0,15,16
 204 -4 204 -4 128 62 c 0,17,18
 46 136 46 136 46 264 c 2,19,-1
 46 768 l 1,20,-1
 200 768 l 1,21,-1
 200 284 l 2,22,23
 200 152 200 152 324 152 c 0,24,25
 380 152 380 152 422 178 c 0,26,27
 476 212 476 212 476 280 c 2,28,-1
 476 768 l 1,29,-1
 630 768 l 1,30,-1
 630 154 l 1,31,-1
 1016 154 l 1,32,-1
 1016 580 l 1,33,34
 876 602 876 602 810 706 c 0,35,36
 762 782 762 782 762 878 c 0,37,38
 762 1010 762 1010 842 1100 c 0,39,40
 932 1198 932 1198 1084 1198 c 0,41,42
 1292 1198 1292 1198 1382 1052 c 0,43,44
 1440 960 1440 960 1440 846 c 2,45,-1
 1440 0 l 1,0,-1
EndSplineSet
Ligature2: "'psts' Post Base Substitutions lookup 8 subtable" tm_ya tm_ikaar
EndChar

StartChar: tm_r_ikaar
Encoding: 65552 -1 132
Width: 1038
GlyphClass: 2
Flags: W
LayerCount: 2
Fore
SplineSet
992 0 m 1,0,-1
 838 0 l 1,1,-1
 838 826 l 2,2,3
 838 1042 838 1042 644 1042 c 0,4,5
 468 1042 468 1042 468 892 c 0,6,7
 468 796 468 796 548 768 c 1,8,-1
 760 768 l 1,9,-1
 760 614 l 1,10,-1
 578 614 l 1,11,-1
 578 -96 l 1,12,-1
 110 -332 l 1,13,-1
 42 -196 l 1,14,-1
 424 -2 l 1,15,-1
 424 614 l 1,16,-1
 214 614 l 1,17,-1
 214 0 l 1,18,-1
 60 0 l 1,19,-1
 60 768 l 1,20,-1
 342 768 l 1,21,22
 314 832 314 832 314 900 c 0,23,24
 314 1012 314 1012 394 1100 c 0,25,26
 486 1198 486 1198 636 1198 c 0,27,28
 844 1198 844 1198 936 1052 c 0,29,30
 992 960 992 960 992 846 c 2,31,-1
 992 0 l 1,0,-1
EndSplineSet
Ligature2: "'psts' Post Base Substitutions lookup 8 subtable" tm_ra tm_ikaar
EndChar

StartChar: tm_rr_ikaar
Encoding: 65553 -1 133
Width: 1398
GlyphClass: 2
Flags: W
LayerCount: 2
Fore
SplineSet
1332 0 m 1,0,-1
 1176 0 l 1,1,-1
 1176 826 l 2,2,3
 1176 1042 1176 1042 982 1042 c 0,4,5
 896 1042 896 1042 848 990 c 128,-1,6
 800 938 800 938 800 862 c 0,7,8
 800 806 800 806 830 772 c 1,9,10
 942 736 942 736 1008 625 c 128,-1,11
 1074 514 1074 514 1074 356 c 2,12,-1
 1074 270 l 2,13,14
 1074 38 1074 38 924 -92 c 0,15,16
 786 -212 786 -212 558 -212 c 2,17,-1
 314 -212 l 2,18,19
 216 -212 216 -212 216 -292 c 2,20,-1
 216 -382 l 1,21,-1
 60 -382 l 1,22,-1
 60 -274 l 2,23,24
 60 -60 60 -60 314 -60 c 2,25,-1
 608 -60 l 2,26,27
 740 -60 740 -60 827 29 c 128,-1,28
 914 118 914 118 914 284 c 2,29,-1
 914 310 l 2,30,31
 914 634 914 634 726 634 c 0,32,33
 666 634 666 634 630 588 c 128,-1,34
 594 542 594 542 594 468 c 2,35,-1
 594 0 l 1,36,-1
 440 0 l 1,37,-1
 440 500 l 2,38,39
 440 634 440 634 328 634 c 256,40,41
 216 634 216 634 216 500 c 2,42,-1
 216 0 l 1,43,-1
 62 0 l 1,44,-1
 62 508 l 2,45,46
 62 624 62 624 126 702 c 0,47,48
 200 788 200 788 328 788 c 256,49,50
 456 788 456 788 530 698 c 1,51,52
 598 772 598 772 672 784 c 1,53,54
 650 828 650 828 650 878 c 0,55,56
 650 1010 650 1010 732 1100 c 0,57,58
 822 1198 822 1198 974 1198 c 0,59,60
 1182 1198 1182 1198 1274 1052 c 0,61,62
 1332 960 1332 960 1332 846 c 2,63,-1
 1332 0 l 1,0,-1
EndSplineSet
Ligature2: "'psts' Post Base Substitutions lookup 8 subtable" tm_rra tm_ikaar
EndChar

StartChar: tm_l_ikaar
Encoding: 65554 -1 134
Width: 1690
GlyphClass: 2
Flags: W
LayerCount: 2
Fore
SplineSet
1624 0 m 1,0,-1
 1472 0 l 1,1,-1
 1472 792 l 2,2,3
 1472 914 1472 914 1405 981 c 128,-1,4
 1338 1048 1338 1048 1218 1048 c 0,5,6
 1102 1048 1102 1048 1034 990 c 128,-1,7
 966 932 966 932 966 836 c 0,8,9
 966 650 966 650 1184 624 c 1,10,11
 1120 718 1120 718 1010 736 c 1,12,-1
 1060 882 l 1,13,14
 1202 854 1202 854 1294 734 c 0,15,16
 1396 604 1396 604 1396 412 c 0,17,18
 1396 224 1396 224 1299 106 c 128,-1,19
 1202 -12 1202 -12 1042 -12 c 0,20,21
 924 -12 924 -12 849 59 c 128,-1,22
 774 130 774 130 774 234 c 2,23,-1
 774 334 l 2,24,25
 774 624 774 624 500 624 c 0,26,27
 308 624 308 624 240 472 c 1,28,29
 286 500 286 500 364 500 c 0,30,31
 476 500 476 500 547 425 c 128,-1,32
 618 350 618 350 618 242 c 256,33,34
 618 134 618 134 550 62 c 0,35,36
 476 -18 476 -18 354 -18 c 256,37,38
 232 -18 232 -18 146 80 c 128,-1,39
 60 178 60 178 60 340 c 0,40,41
 60 538 60 538 190 662 c 0,42,43
 314 778 314 778 500 778 c 0,44,45
 706 778 706 778 824 644 c 0,46,47
 928 526 928 526 928 352 c 2,48,-1
 928 302 l 2,49,50
 928 142 928 142 1048 142 c 0,51,52
 1138 142 1138 142 1190 219 c 128,-1,53
 1242 296 1242 296 1242 412 c 0,54,55
 1242 452 1242 452 1240 470 c 1,56,57
 1234 468 1234 468 1218 468 c 0,58,59
 1048 468 1048 468 934 566 c 0,60,61
 812 668 812 668 812 836 c 0,62,63
 812 992 812 992 924 1098 c 128,-1,64
 1036 1204 1036 1204 1218 1204 c 256,65,66
 1400 1204 1400 1204 1512 1089 c 128,-1,67
 1624 974 1624 974 1624 792 c 2,68,-1
 1624 0 l 1,0,-1
458 242 m 256,69,70
 458 288 458 288 425 321 c 128,-1,71
 392 354 392 354 346 354 c 256,72,73
 300 354 300 354 268 321 c 128,-1,74
 236 288 236 288 236 242 c 0,75,76
 236 198 236 198 269 165 c 128,-1,77
 302 132 302 132 346 132 c 0,78,79
 392 132 392 132 425 164 c 128,-1,80
 458 196 458 196 458 242 c 256,69,70
EndSplineSet
Ligature2: "'psts' Post Base Substitutions lookup 8 subtable" tm_la tm_ikaar
EndChar

StartChar: tm_ll_ikaar
Encoding: 65555 -1 135
Width: 1790
GlyphClass: 2
Flags: W
LayerCount: 2
Fore
SplineSet
1738 0 m 1,0,-1
 1586 0 l 1,1,-1
 1586 826 l 2,2,3
 1586 1042 1586 1042 1396 1042 c 0,4,5
 1216 1042 1216 1042 1216 892 c 0,6,7
 1216 794 1216 794 1296 768 c 1,8,-1
 1500 768 l 1,9,-1
 1500 614 l 1,10,-1
 1390 614 l 1,11,-1
 1390 0 l 1,12,-1
 1236 0 l 1,13,-1
 1236 614 l 1,14,-1
 958 614 l 1,15,-1
 958 0 l 1,16,-1
 804 0 l 1,17,-1
 804 338 l 2,18,19
 804 464 804 464 723 544 c 128,-1,20
 642 624 642 624 500 624 c 0,21,22
 306 624 306 624 242 472 c 1,23,24
 298 500 298 500 364 500 c 0,25,26
 478 500 478 500 548 425 c 128,-1,27
 618 350 618 350 618 242 c 0,28,29
 618 130 618 130 546 56 c 128,-1,30
 474 -18 474 -18 354 -18 c 0,31,32
 232 -18 232 -18 146 81 c 128,-1,33
 60 180 60 180 60 340 c 0,34,35
 60 526 60 526 176 650 c 0,36,37
 300 778 300 778 500 778 c 0,38,39
 682 778 682 778 802 678 c 1,40,-1
 802 768 l 1,41,-1
 1090 768 l 1,42,43
 1062 832 1062 832 1062 900 c 0,44,45
 1062 1012 1062 1012 1142 1100 c 0,46,47
 1234 1198 1234 1198 1382 1198 c 0,48,49
 1592 1198 1592 1198 1682 1052 c 0,50,51
 1738 960 1738 960 1738 846 c 2,52,-1
 1738 0 l 1,0,-1
462 240 m 256,53,54
 462 284 462 284 432 314 c 128,-1,55
 402 344 402 344 358 344 c 256,56,57
 314 344 314 344 283 314 c 128,-1,58
 252 284 252 284 252 240 c 256,59,60
 252 196 252 196 283 165 c 128,-1,61
 314 134 314 134 358 134 c 256,62,63
 402 134 402 134 432 165 c 128,-1,64
 462 196 462 196 462 240 c 256,53,54
EndSplineSet
Ligature2: "'psts' Post Base Substitutions lookup 8 subtable" tm_lla tm_ikaar
EndChar

StartChar: tm_lll_ikaar
Encoding: 65556 -1 136
Width: 1444
GlyphClass: 2
Flags: W
LayerCount: 2
Fore
SplineSet
1374 0 m 1,0,-1
 1218 0 l 1,1,-1
 1218 826 l 2,2,3
 1218 1042 1218 1042 1024 1042 c 0,4,5
 938 1042 938 1042 890 990 c 128,-1,6
 842 938 842 938 842 862 c 0,7,8
 842 790 842 790 888 736 c 1,9,10
 998 686 998 686 1070 583 c 128,-1,11
 1142 480 1142 480 1142 372 c 0,12,13
 1142 186 1142 186 1020 88 c 0,14,15
 914 0 914 0 740 0 c 2,16,-1
 650 0 l 1,17,18
 650 -74 650 -74 728 -74 c 2,19,-1
 854 -74 l 1,20,-1
 854 -224 l 1,21,-1
 742 -224 l 2,22,23
 682 -224 682 -224 667 -231 c 128,-1,24
 652 -238 652 -238 640 -272 c 0,25,26
 622 -324 622 -324 570 -364 c 0,27,28
 494 -422 494 -422 372 -422 c 2,29,-1
 352 -422 l 2,30,31
 224 -422 224 -422 150 -374 c 0,32,33
 68 -320 68 -320 68 -218 c 0,34,35
 68 -144 68 -144 110 -102 c 128,-1,36
 152 -60 152 -60 222 -60 c 2,37,-1
 316 -60 l 1,38,-1
 316 -188 l 1,39,-1
 256 -188 l 2,40,41
 220 -188 220 -188 220 -224 c 0,42,43
 220 -286 220 -286 362 -286 c 0,44,45
 432 -286 432 -286 472 -254 c 0,46,47
 502 -230 502 -230 508 -204 c 0,48,49
 520 -148 520 -148 586 -144 c 1,50,51
 496 -120 496 -120 496 0 c 1,52,-1
 68 0 l 1,53,-1
 68 768 l 1,54,-1
 220 768 l 1,55,-1
 220 154 l 1,56,-1
 496 154 l 1,57,-1
 496 546 l 2,58,59
 496 638 496 638 554 706 c 128,-1,60
 612 774 612 774 710 776 c 1,61,62
 688 824 688 824 688 872 c 0,63,64
 688 1004 688 1004 772 1096 c 0,65,66
 864 1198 864 1198 1016 1198 c 0,67,68
 1224 1198 1224 1198 1316 1052 c 0,69,70
 1374 960 1374 960 1374 846 c 2,71,-1
 1374 0 l 1,0,-1
988 372 m 0,72,73
 988 468 988 468 903 542 c 128,-1,74
 818 616 818 616 726 616 c 0,75,76
 650 616 650 616 650 546 c 2,77,-1
 650 154 l 1,78,-1
 754 154 l 2,79,80
 988 154 988 154 988 372 c 0,72,73
EndSplineSet
Ligature2: "'psts' Post Base Substitutions lookup 8 subtable" tm_llla tm_ikaar
EndChar

StartChar: tm_v_ikaar
Encoding: 65557 -1 137
Width: 1652
GlyphClass: 2
Flags: W
LayerCount: 2
Fore
SplineSet
1594 0 m 1,0,-1
 1440 0 l 1,1,-1
 1440 836 l 2,2,3
 1440 924 1440 924 1377 986 c 128,-1,4
 1314 1048 1314 1048 1226 1048 c 256,5,6
 1138 1048 1138 1048 1075 985 c 128,-1,7
 1012 922 1012 922 1012 836 c 0,8,9
 1012 758 1012 758 1063 699 c 128,-1,10
 1114 640 1114 640 1190 626 c 1,11,-1
 1190 768 l 1,12,-1
 1346 768 l 1,13,-1
 1346 0 l 1,14,-1
 728 0 l 1,15,-1
 728 138 l 1,16,17
 744 146 744 146 770 200 c 0,18,19
 804 268 804 268 804 338 c 0,20,21
 804 468 804 468 723 546 c 128,-1,22
 642 624 642 624 500 624 c 0,23,24
 306 624 306 624 238 470 c 1,25,26
 280 500 280 500 364 500 c 0,27,28
 480 500 480 500 552 420 c 0,29,30
 618 346 618 346 618 242 c 0,31,32
 618 134 618 134 548 60 c 0,33,34
 472 -18 472 -18 354 -18 c 0,35,36
 226 -18 226 -18 143 83 c 128,-1,37
 60 184 60 184 60 340 c 0,38,39
 60 522 60 522 176 646 c 0,40,41
 300 778 300 778 500 778 c 0,42,43
 706 778 706 778 832 652 c 128,-1,44
 958 526 958 526 958 344 c 0,45,46
 958 240 958 240 920 154 c 1,47,-1
 1190 154 l 1,48,-1
 1190 470 l 1,49,50
 1050 484 1050 484 954 589 c 128,-1,51
 858 694 858 694 858 836 c 0,52,53
 858 988 858 988 966 1096 c 128,-1,54
 1074 1204 1074 1204 1226 1204 c 0,55,56
 1380 1204 1380 1204 1487 1097 c 128,-1,57
 1594 990 1594 990 1594 836 c 2,58,-1
 1594 0 l 1,0,-1
462 240 m 256,59,60
 462 284 462 284 432 314 c 128,-1,61
 402 344 402 344 358 344 c 256,62,63
 314 344 314 344 283 314 c 128,-1,64
 252 284 252 284 252 240 c 256,65,66
 252 196 252 196 283 165 c 128,-1,67
 314 134 314 134 358 134 c 256,68,69
 402 134 402 134 432 165 c 128,-1,70
 462 196 462 196 462 240 c 256,59,60
EndSplineSet
Ligature2: "'psts' Post Base Substitutions lookup 8 subtable" tm_va tm_ikaar
EndChar

StartChar: tm_ss_ikaar
Encoding: 65558 -1 138
Width: 2092
GlyphClass: 2
Flags: W
LayerCount: 2
Fore
SplineSet
2034 0 m 1,0,-1
 1880 0 l 1,1,-1
 1880 826 l 2,2,3
 1880 1042 1880 1042 1686 1042 c 0,4,5
 1510 1042 1510 1042 1510 872 c 0,6,7
 1510 816 1510 816 1540 780 c 1,8,9
 1662 758 1662 758 1728 674 c 0,10,11
 1788 600 1788 600 1788 496 c 0,12,13
 1788 418 1788 418 1752 348 c 2,14,-1
 1652 154 l 1,15,-1
 1756 154 l 1,16,-1
 1756 0 l 1,17,-1
 1574 0 l 1,18,-1
 1404 -338 l 1,19,-1
 1268 -266 l 1,20,-1
 1402 0 l 1,21,-1
 728 0 l 1,22,-1
 728 146 l 1,23,24
 798 238 798 238 798 374 c 0,25,26
 798 454 798 454 754 518 c 0,27,28
 674 630 674 630 486 630 c 0,29,30
 310 630 310 630 252 490 c 1,31,-1
 254 488 l 1,32,33
 280 504 280 504 344 504 c 0,34,35
 456 504 456 504 536 428 c 128,-1,36
 616 352 616 352 616 240 c 0,37,38
 616 140 616 140 546 62 c 0,39,40
 470 -20 470 -20 354 -20 c 0,41,42
 232 -20 232 -20 146 80 c 128,-1,43
 60 180 60 180 60 358 c 0,44,45
 60 510 60 510 160 632 c 0,46,47
 280 778 280 778 492 778 c 0,48,49
 742 778 742 778 866 630 c 0,50,51
 956 520 956 520 956 368 c 0,52,53
 956 242 956 242 908 154 c 1,54,-1
 1180 154 l 1,55,56
 1104 262 1104 262 1102 406 c 0,57,58
 1100 560 1100 560 1188 660 c 0,59,60
 1262 744 1262 744 1376 776 c 1,61,62
 1356 824 1356 824 1356 878 c 0,63,64
 1356 1010 1356 1010 1436 1100 c 0,65,66
 1526 1198 1526 1198 1678 1198 c 0,67,68
 1886 1198 1886 1198 1978 1052 c 0,69,70
 2034 960 2034 960 2034 846 c 2,71,-1
 2034 0 l 1,0,-1
1616 430 m 2,72,73
 1628 460 1628 460 1628 494 c 0,74,75
 1628 636 1628 636 1460 636 c 0,76,77
 1382 636 1382 636 1328 588 c 0,78,79
 1256 528 1256 528 1254 406 c 0,80,81
 1252 282 1252 282 1332 208 c 0,82,83
 1392 154 1392 154 1444 154 c 2,84,-1
 1478 154 l 1,85,-1
 1616 430 l 2,72,73
462 242 m 0,86,87
 462 288 462 288 430 321 c 128,-1,88
 398 354 398 354 352 354 c 0,89,90
 304 354 304 354 271 321 c 128,-1,91
 238 288 238 288 238 242 c 256,92,93
 238 196 238 196 271 164 c 128,-1,94
 304 132 304 132 352 132 c 0,95,96
 398 132 398 132 430 165 c 128,-1,97
 462 198 462 198 462 242 c 0,86,87
EndSplineSet
Ligature2: "'psts' Post Base Substitutions lookup 8 subtable" tm_ssa tm_ikaar
EndChar

StartChar: tm_s_ikaar
Encoding: 65559 -1 139
Width: 2190
GlyphClass: 2
Flags: W
LayerCount: 2
Fore
SplineSet
2124 0 m 1,0,-1
 1970 0 l 1,1,-1
 1970 792 l 2,2,3
 1970 914 1970 914 1903 981 c 128,-1,4
 1836 1048 1836 1048 1716 1048 c 0,5,6
 1600 1048 1600 1048 1532 990 c 128,-1,7
 1464 932 1464 932 1464 836 c 0,8,9
 1464 664 1464 664 1660 628 c 1,10,11
 1592 728 1592 728 1486 752 c 1,12,-1
 1532 882 l 1,13,14
 1672 854 1672 854 1768 734 c 0,15,16
 1870 604 1870 604 1870 422 c 0,17,18
 1870 234 1870 234 1772 111 c 128,-1,19
 1674 -12 1674 -12 1516 -12 c 0,20,21
 1390 -12 1390 -12 1311 58 c 128,-1,22
 1232 128 1232 128 1232 234 c 2,23,-1
 1232 454 l 2,24,25
 1232 630 1232 630 1094 630 c 0,26,27
 1028 630 1028 630 993 575 c 128,-1,28
 958 520 958 520 958 438 c 2,29,-1
 958 0 l 1,30,-1
 804 0 l 1,31,-1
 804 338 l 2,32,33
 804 464 804 464 723 544 c 128,-1,34
 642 624 642 624 500 624 c 0,35,36
 306 624 306 624 242 472 c 1,37,38
 298 500 298 500 364 500 c 0,39,40
 478 500 478 500 548 425 c 128,-1,41
 618 350 618 350 618 242 c 0,42,43
 618 130 618 130 546 56 c 128,-1,44
 474 -18 474 -18 354 -18 c 0,45,46
 232 -18 232 -18 146 81 c 128,-1,47
 60 180 60 180 60 340 c 0,48,49
 60 526 60 526 176 650 c 0,50,51
 300 778 300 778 500 778 c 0,52,53
 714 778 714 778 864 628 c 1,54,55
 912 778 912 778 1098 778 c 0,56,57
 1228 778 1228 778 1304 698 c 0,58,59
 1384 612 1384 612 1384 444 c 2,60,-1
 1384 302 l 2,61,62
 1384 142 1384 142 1522 142 c 0,63,64
 1610 142 1610 142 1663 224 c 128,-1,65
 1716 306 1716 306 1716 422 c 0,66,67
 1716 454 1716 454 1714 468 c 1,68,69
 1544 470 1544 470 1432 566 c 0,70,71
 1310 670 1310 670 1310 836 c 0,72,73
 1310 992 1310 992 1422 1098 c 128,-1,74
 1534 1204 1534 1204 1716 1204 c 256,75,76
 1898 1204 1898 1204 2011 1089 c 128,-1,77
 2124 974 2124 974 2124 792 c 2,78,-1
 2124 0 l 1,0,-1
462 240 m 256,79,80
 462 284 462 284 432 314 c 128,-1,81
 402 344 402 344 358 344 c 256,82,83
 314 344 314 344 283 314 c 128,-1,84
 252 284 252 284 252 240 c 256,85,86
 252 196 252 196 283 165 c 128,-1,87
 314 134 314 134 358 134 c 256,88,89
 402 134 402 134 432 165 c 128,-1,90
 462 196 462 196 462 240 c 256,79,80
EndSplineSet
Ligature2: "'psts' Post Base Substitutions lookup 8 subtable" tm_sa tm_ikaar
EndChar

StartChar: tm_h_ikaar
Encoding: 65560 -1 140
Width: 2448
GlyphClass: 2
Flags: W
LayerCount: 2
Fore
SplineSet
2392 0 m 1,0,-1
 2236 0 l 1,1,-1
 2236 826 l 2,2,3
 2236 1042 2236 1042 2042 1042 c 0,4,5
 1956 1042 1956 1042 1908 991 c 128,-1,6
 1860 940 1860 940 1860 862 c 0,7,8
 1860 798 1860 798 1892 770 c 1,9,10
 2000 730 2000 730 2063 620 c 128,-1,11
 2126 510 2126 510 2126 356 c 2,12,-1
 2126 270 l 2,13,14
 2126 38 2126 38 1976 -92 c 0,15,16
 1838 -212 1838 -212 1610 -212 c 2,17,-1
 314 -212 l 2,18,19
 216 -212 216 -212 216 -292 c 2,20,-1
 216 -382 l 1,21,-1
 60 -382 l 1,22,-1
 60 -274 l 2,23,24
 60 -60 60 -60 314 -60 c 2,25,-1
 1660 -60 l 2,26,27
 1790 -60 1790 -60 1874 26 c 0,28,29
 1966 120 1966 120 1966 284 c 2,30,-1
 1966 310 l 2,31,32
 1966 634 1966 634 1776 634 c 0,33,34
 1718 634 1718 634 1682 588 c 128,-1,35
 1646 542 1646 542 1646 468 c 2,36,-1
 1646 0 l 1,37,-1
 1492 0 l 1,38,-1
 1492 500 l 2,39,40
 1492 634 1492 634 1380 634 c 256,41,42
 1268 634 1268 634 1268 500 c 2,43,-1
 1268 0 l 1,44,-1
 728 0 l 1,45,-1
 728 138 l 1,46,47
 744 146 744 146 770 200 c 0,48,49
 804 268 804 268 804 338 c 0,50,51
 804 468 804 468 723 546 c 128,-1,52
 642 624 642 624 500 624 c 0,53,54
 306 624 306 624 238 470 c 1,55,56
 280 500 280 500 364 500 c 0,57,58
 480 500 480 500 552 420 c 0,59,60
 618 346 618 346 618 242 c 0,61,62
 618 134 618 134 548 60 c 0,63,64
 472 -18 472 -18 354 -18 c 0,65,66
 226 -18 226 -18 143 83 c 128,-1,67
 60 184 60 184 60 340 c 0,68,69
 60 522 60 522 176 646 c 0,70,71
 300 778 300 778 500 778 c 0,72,73
 706 778 706 778 832 652 c 128,-1,74
 958 526 958 526 958 344 c 0,75,76
 958 240 958 240 920 154 c 1,77,-1
 1114 154 l 1,78,-1
 1114 508 l 2,79,80
 1114 624 1114 624 1178 702 c 0,81,82
 1252 788 1252 788 1380 788 c 256,83,84
 1508 788 1508 788 1582 698 c 1,85,86
 1652 774 1652 774 1730 786 c 1,87,88
 1710 832 1710 832 1710 878 c 0,89,90
 1710 1010 1710 1010 1792 1100 c 0,91,92
 1882 1198 1882 1198 2034 1198 c 0,93,94
 2242 1198 2242 1198 2334 1052 c 0,95,96
 2392 960 2392 960 2392 846 c 2,97,-1
 2392 0 l 1,0,-1
462 240 m 256,98,99
 462 284 462 284 432 314 c 128,-1,100
 402 344 402 344 358 344 c 256,101,102
 314 344 314 344 283 314 c 128,-1,103
 252 284 252 284 252 240 c 256,104,105
 252 196 252 196 283 165 c 128,-1,106
 314 134 314 134 358 134 c 256,107,108
 402 134 402 134 432 165 c 128,-1,109
 462 196 462 196 462 240 c 256,98,99
EndSplineSet
Ligature2: "'psts' Post Base Substitutions lookup 8 subtable" tm_ha tm_ikaar
EndChar

StartChar: tm_k_iikaar
Encoding: 65561 -1 141
Width: 1184
GlyphClass: 2
Flags: W
LayerCount: 2
Fore
SplineSet
1120 1002 m 0,0,1
 1120 922 1120 922 1060 868 c 128,-1,2
 1000 814 1000 814 916 814 c 0,3,4
 770 814 770 814 730 942 c 1,5,6
 724 900 724 900 724 892 c 0,7,8
 724 768 724 768 822 768 c 2,9,-1
 926 768 l 1,10,-1
 926 614 l 1,11,-1
 728 614 l 1,12,-1
 728 458 l 1,13,-1
 864 458 l 2,14,15
 966 458 966 458 1034 406 c 0,16,17
 1106 348 1106 348 1106 246 c 0,18,19
 1106 116 1106 116 1014 44 c 0,20,21
 936 -18 936 -18 824 -18 c 0,22,23
 710 -18 710 -18 664 34 c 1,24,25
 718 70 718 70 742 148 c 1,26,27
 762 136 762 136 802 136 c 0,28,29
 944 136 944 136 944 236 c 0,30,31
 944 302 944 302 848 302 c 2,32,-1
 728 302 l 1,33,-1
 728 236 l 2,34,35
 728 116 728 116 636 46 c 0,36,37
 552 -18 552 -18 430 -18 c 0,38,39
 288 -18 288 -18 188 52 c 0,40,41
 74 132 74 132 74 268 c 0,42,43
 74 342 74 342 117 392 c 128,-1,44
 160 442 160 442 226 452 c 1,45,-1
 226 768 l 1,46,-1
 602 768 l 1,47,48
 572 826 572 826 572 900 c 0,49,50
 572 1026 572 1026 656 1112 c 128,-1,51
 740 1198 740 1198 874 1198 c 0,52,53
 984 1198 984 1198 1052 1144 c 128,-1,54
 1120 1090 1120 1090 1120 1002 c 0,0,1
974 1004 m 0,55,56
 974 1068 974 1068 910 1068 c 0,57,58
 884 1068 884 1068 865 1049 c 128,-1,59
 846 1030 846 1030 846 1004 c 256,60,61
 846 978 846 978 865 959 c 128,-1,62
 884 940 884 940 910 940 c 256,63,64
 936 940 936 940 955 959 c 128,-1,65
 974 978 974 978 974 1004 c 0,55,56
574 458 m 1,66,-1
 574 614 l 1,67,-1
 380 614 l 1,68,-1
 380 458 l 1,69,-1
 574 458 l 1,66,-1
574 244 m 2,70,-1
 574 302 l 1,71,-1
 288 302 l 2,72,73
 230 302 230 302 230 252 c 0,74,75
 230 206 230 206 289 171 c 128,-1,76
 348 136 348 136 430 136 c 0,77,78
 492 136 492 136 533 165 c 128,-1,79
 574 194 574 194 574 244 c 2,70,-1
EndSplineSet
Ligature2: "'abvs' Above Base Substitutions lookup 6 subtable" tm_ka tm_iikaar
EndChar

StartChar: tm_ng_iikaar
Encoding: 65562 -1 142
Width: 1305
GlyphClass: 2
Flags: W
LayerCount: 2
Fore
SplineSet
1264 1102 m 0,0,1
 1264 1024 1264 1024 1205 969 c 128,-1,2
 1146 914 1146 914 1062 914 c 0,3,4
 914 914 914 914 878 1042 c 1,5,6
 868 1022 868 1022 868 992 c 0,7,8
 868 826 868 826 1098 824 c 1,9,-1
 1098 868 l 1,10,-1
 1252 868 l 1,11,-1
 1248 0 l 1,12,-1
 680 0 l 1,13,-1
 680 154 l 1,14,-1
 710 154 l 2,15,16
 788 154 788 154 788 246 c 0,17,18
 788 294 788 294 753 323 c 128,-1,19
 718 352 718 352 664 352 c 0,20,21
 554 352 554 352 554 276 c 2,22,-1
 554 0 l 1,23,-1
 400 0 l 1,24,-1
 400 614 l 1,25,-1
 226 614 l 1,26,-1
 226 0 l 1,27,-1
 74 0 l 1,28,-1
 74 768 l 1,29,-1
 772 768 l 1,30,-1
 772 614 l 1,31,-1
 554 614 l 1,32,-1
 554 474 l 1,33,34
 590 498 590 498 676 498 c 0,35,36
 826 498 826 498 896 414 c 0,37,38
 952 350 952 350 952 246 c 0,39,40
 952 200 952 200 934 154 c 1,41,-1
 1094 154 l 1,42,-1
 1094 676 l 1,43,44
 925 681 925 681 821 768 c 0,45,46
 716 856 716 856 716 1000 c 0,47,48
 716 1126 716 1126 801 1212 c 128,-1,49
 886 1298 886 1298 1020 1298 c 0,50,51
 1130 1298 1130 1298 1197 1244 c 128,-1,52
 1264 1190 1264 1190 1264 1102 c 0,0,1
1120 1104 m 256,53,54
 1120 1130 1120 1130 1101 1149 c 128,-1,55
 1082 1168 1082 1168 1056 1168 c 0,56,57
 992 1168 992 1168 992 1104 c 0,58,59
 992 1078 992 1078 1011 1059 c 128,-1,60
 1030 1040 1030 1040 1056 1040 c 256,61,62
 1082 1040 1082 1040 1101 1059 c 128,-1,63
 1120 1078 1120 1078 1120 1104 c 256,53,54
EndSplineSet
Ligature2: "'abvs' Above Base Substitutions lookup 6 subtable" tm_nga tm_iikaar
EndChar

StartChar: tm_c_iikaar
Encoding: 65563 -1 143
Width: 1052
GlyphClass: 2
Flags: W
LayerCount: 2
Fore
SplineSet
1036 1002 m 0,0,1
 1036 924 1036 924 977 869 c 128,-1,2
 918 814 918 814 834 814 c 0,3,4
 688 814 688 814 648 942 c 1,5,6
 642 922 642 922 642 892 c 0,7,8
 642 768 642 768 738 768 c 2,9,-1
 926 768 l 1,10,-1
 926 614 l 1,11,-1
 728 614 l 1,12,-1
 728 458 l 1,13,-1
 980 458 l 1,14,-1
 980 302 l 1,15,-1
 728 302 l 1,16,-1
 728 236 l 2,17,18
 728 116 728 116 636 46 c 0,19,20
 552 -18 552 -18 430 -18 c 0,21,22
 288 -18 288 -18 188 52 c 0,23,24
 74 132 74 132 74 268 c 0,25,26
 74 342 74 342 117 392 c 128,-1,27
 160 442 160 442 226 452 c 1,28,-1
 226 768 l 1,29,-1
 520 768 l 1,30,31
 486 828 486 828 486 900 c 0,32,33
 486 1026 486 1026 571 1112 c 128,-1,34
 656 1198 656 1198 792 1198 c 0,35,36
 902 1198 902 1198 969 1144 c 128,-1,37
 1036 1090 1036 1090 1036 1002 c 0,0,1
892 1004 m 0,38,39
 892 1068 892 1068 828 1068 c 256,40,41
 764 1068 764 1068 764 1004 c 0,42,43
 764 978 764 978 783 959 c 128,-1,44
 802 940 802 940 828 940 c 256,45,46
 854 940 854 940 873 959 c 128,-1,47
 892 978 892 978 892 1004 c 0,38,39
574 458 m 1,48,-1
 574 614 l 1,49,-1
 380 614 l 1,50,-1
 380 458 l 1,51,-1
 574 458 l 1,48,-1
574 244 m 2,52,-1
 574 302 l 1,53,-1
 288 302 l 2,54,55
 230 302 230 302 230 252 c 0,56,57
 230 206 230 206 289 171 c 128,-1,58
 348 136 348 136 430 136 c 0,59,60
 492 136 492 136 533 165 c 128,-1,61
 574 194 574 194 574 244 c 2,52,-1
EndSplineSet
Ligature2: "'abvs' Above Base Substitutions lookup 6 subtable" tm_ca tm_iikaar
EndChar

StartChar: tm_j_iikaar
Encoding: 65564 -1 144
Width: 1344
GlyphClass: 2
Flags: W
LayerCount: 2
Fore
SplineSet
1296 388 m 2,0,1
 1296 216 1296 216 1184 114 c 0,2,3
 1058 2 1058 2 820 2 c 2,4,-1
 380 2 l 2,5,6
 226 2 226 2 226 -116 c 0,7,8
 226 -254 226 -254 408 -254 c 0,9,10
 504 -254 504 -254 566 -228 c 0,11,12
 612 -210 612 -210 620 -188 c 0,13,14
 680 -10 680 -10 956 -10 c 0,15,16
 1280 -10 1280 -10 1280 -206 c 0,17,18
 1280 -302 1280 -302 1211 -355 c 128,-1,19
 1142 -408 1142 -408 1030 -408 c 2,20,-1
 916 -408 l 1,21,-1
 916 -276 l 1,22,-1
 1030 -276 l 2,23,24
 1114 -276 1114 -276 1114 -224 c 0,25,26
 1114 -190 1114 -190 1088 -176 c 0,27,28
 1050 -156 1050 -156 946 -156 c 0,29,30
 788 -156 788 -156 764 -270 c 1,31,32
 678 -408 678 -408 408 -408 c 0,33,34
 246 -408 246 -408 156 -330 c 128,-1,35
 66 -252 66 -252 66 -122 c 0,36,37
 66 16 66 16 162 92 c 0,38,39
 244 156 244 156 370 156 c 2,40,-1
 878 156 l 2,41,42
 1010 156 1010 156 1078 228 c 0,43,44
 1140 292 1140 292 1140 400 c 2,45,-1
 1140 414 l 2,46,47
 1140 494 1140 494 1096 554 c 0,48,49
 1046 622 1046 622 962 622 c 0,50,51
 782 622 782 622 782 440 c 2,52,-1
 782 248 l 1,53,-1
 626 248 l 1,54,-1
 626 422 l 2,55,56
 626 628 626 628 408 628 c 0,57,58
 330 628 330 628 296 602 c 1,59,-1
 328 602 l 2,60,61
 430 602 430 602 490 536 c 0,62,63
 544 478 544 478 544 390 c 0,64,65
 544 294 544 294 482 234 c 128,-1,66
 420 174 420 174 316 174 c 0,67,68
 200 174 200 174 132 249 c 128,-1,69
 64 324 64 324 64 450 c 0,70,71
 64 614 64 614 180 702 c 0,72,73
 276 778 276 778 420 778 c 0,74,75
 610 778 610 778 710 666 c 1,76,77
 722 682 722 682 732 692 c 1,78,79
 640 766 640 766 640 900 c 0,80,81
 640 1026 640 1026 725 1112 c 128,-1,82
 810 1198 810 1198 942 1198 c 0,83,84
 1052 1198 1052 1198 1121 1144 c 128,-1,85
 1190 1090 1190 1090 1190 1002 c 0,86,87
 1190 924 1190 924 1130 869 c 128,-1,88
 1070 814 1070 814 986 814 c 0,89,90
 840 814 840 814 800 942 c 1,91,92
 792 914 792 914 792 892 c 0,93,94
 792 774 792 774 886 768 c 1,95,96
 938 776 938 776 972 776 c 0,97,98
 1122 776 1122 776 1212 666 c 0,99,100
 1296 564 1296 564 1296 416 c 2,101,-1
 1296 388 l 2,0,1
1042 1004 m 0,102,103
 1042 1068 1042 1068 980 1068 c 0,104,105
 916 1068 916 1068 916 1004 c 0,106,107
 916 978 916 978 935 959 c 128,-1,108
 954 940 954 940 980 940 c 256,109,110
 1006 940 1006 940 1024 959 c 128,-1,111
 1042 978 1042 978 1042 1004 c 0,102,103
386 398 m 0,112,113
 386 432 386 432 363 455 c 128,-1,114
 340 478 340 478 306 478 c 0,115,116
 274 478 274 478 250 455 c 128,-1,117
 226 432 226 432 226 398 c 0,118,119
 226 366 226 366 250 342 c 128,-1,120
 274 318 274 318 306 318 c 0,121,122
 340 318 340 318 363 342 c 128,-1,123
 386 366 386 366 386 398 c 0,112,113
EndSplineSet
Ligature2: "'abvs' Above Base Substitutions lookup 6 subtable" tm_ja tm_iikaar
EndChar

StartChar: tm_ny_iikaar
Encoding: 65565 -1 145
Width: 1651
GlyphClass: 2
Flags: W
LayerCount: 2
Fore
SplineSet
1612 200 m 0,0,1
 1612 -84 1612 -84 1408 -253 c 128,-1,2
 1204 -422 1204 -422 838 -422 c 0,3,4
 508 -422 508 -422 284 -232 c 0,5,6
 44 -26 44 -26 44 316 c 0,7,8
 44 636 44 636 206 776 c 1,9,-1
 304 658 l 1,10,11
 270 630 270 630 240 556 c 0,12,13
 194 448 194 448 194 310 c 0,14,15
 194 42 194 42 386 -118 c 0,16,17
 566 -268 566 -268 838 -268 c 0,18,19
 1156 -268 1156 -268 1316 -130 c 0,20,21
 1458 -8 1458 -8 1458 200 c 0,22,23
 1458 262 1458 262 1427 303 c 128,-1,24
 1396 344 1396 344 1342 344 c 0,25,26
 1256 344 1256 344 1256 258 c 2,27,-1
 1256 0 l 1,28,-1
 1102 0 l 1,29,-1
 1102 614 l 1,30,-1
 772 614 l 2,31,32
 682 614 682 614 616 572 c 0,33,34
 562 538 562 538 544 490 c 1,35,-1
 544 488 l 1,36,37
 574 504 574 504 634 504 c 0,38,39
 746 504 746 504 826 428 c 128,-1,40
 906 352 906 352 906 240 c 0,41,42
 906 140 906 140 836 62 c 0,43,44
 760 -20 760 -20 644 -20 c 0,45,46
 522 -20 522 -20 437 79 c 128,-1,47
 352 178 352 178 352 358 c 0,48,49
 352 512 352 512 450 626 c 0,50,51
 572 768 572 768 800 768 c 2,52,-1
 1034 768 l 1,53,54
 1000 828 1000 828 1000 910 c 0,55,56
 1000 1036 1000 1036 1085 1122 c 128,-1,57
 1170 1208 1170 1208 1302 1208 c 0,58,59
 1412 1208 1412 1208 1481 1154 c 128,-1,60
 1550 1100 1550 1100 1550 1012 c 0,61,62
 1550 934 1550 934 1490 879 c 128,-1,63
 1430 824 1430 824 1346 824 c 0,64,65
 1200 824 1200 824 1160 952 c 1,66,67
 1152 924 1152 924 1152 902 c 0,68,69
 1152 784 1152 784 1246 778 c 1,70,-1
 1228 768 l 1,71,-1
 1366 768 l 1,72,-1
 1366 614 l 1,73,-1
 1256 614 l 1,74,-1
 1256 462 l 1,75,76
 1278 500 1278 500 1358 500 c 0,77,78
 1474 500 1474 500 1546 408 c 0,79,80
 1612 322 1612 322 1612 200 c 0,0,1
752 242 m 0,81,82
 752 288 752 288 720 321 c 128,-1,83
 688 354 688 354 642 354 c 256,84,85
 596 354 596 354 563 321 c 128,-1,86
 530 288 530 288 530 242 c 256,87,88
 530 196 530 196 563 164 c 128,-1,89
 596 132 596 132 642 132 c 256,90,91
 688 132 688 132 720 165 c 128,-1,92
 752 198 752 198 752 242 c 0,81,82
1402 1014 m 0,93,94
 1402 1078 1402 1078 1340 1078 c 0,95,96
 1276 1078 1276 1078 1276 1014 c 0,97,98
 1276 988 1276 988 1295 969 c 128,-1,99
 1314 950 1314 950 1340 950 c 256,100,101
 1366 950 1366 950 1384 969 c 128,-1,102
 1402 988 1402 988 1402 1014 c 0,93,94
EndSplineSet
Ligature2: "'abvs' Above Base Substitutions lookup 6 subtable" tm_nya tm_iikaar
EndChar

StartChar: tm_tt_iikaar
Encoding: 65566 -1 146
Width: 1274
GlyphClass: 2
Flags: W
LayerCount: 2
Fore
SplineSet
1218 0 m 1,0,-1
 74 0 l 1,1,-1
 74 768 l 1,2,-1
 228 768 l 1,3,-1
 228 152 l 1,4,-1
 512 152 l 1,5,6
 404 222 404 222 404 406 c 0,7,8
 404 572 404 572 507 682 c 128,-1,9
 610 792 610 792 780 792 c 0,10,11
 944 792 944 792 1032 706 c 0,12,13
 1106 634 1106 634 1106 524 c 0,14,15
 1106 432 1106 432 1042 364 c 0,16,17
 974 290 974 290 870 286 c 0,18,19
 756 282 756 282 680 356 c 128,-1,20
 604 430 604 430 604 542 c 0,21,22
 604 546 604 546 606 558 c 1,23,24
 558 514 558 514 558 406 c 0,25,26
 558 276 558 276 642 208 c 0,27,28
 710 152 710 152 808 152 c 2,29,-1
 1218 152 l 1,30,-1
 1218 0 l 1,0,-1
948 530 m 0,31,32
 948 568 948 568 919 596 c 128,-1,33
 890 624 890 624 852 624 c 256,34,35
 814 624 814 624 785 596 c 128,-1,36
 756 568 756 568 756 530 c 0,37,38
 756 490 756 490 784 462 c 128,-1,39
 812 434 812 434 852 434 c 256,40,41
 892 434 892 434 920 462 c 128,-1,42
 948 490 948 490 948 530 c 0,31,32
EndSplineSet
Ligature2: "'abvs' Above Base Substitutions lookup 5 subtable" tm_tta tm_iikaar
EndChar

StartChar: tm_nn_iikaar
Encoding: 65567 -1 147
Width: 2214
GlyphClass: 2
Flags: W
LayerCount: 2
Fore
SplineSet
2172 1002 m 0,0,1
 2172 924 2172 924 2112 869 c 128,-1,2
 2052 814 2052 814 1968 814 c 0,3,4
 1822 814 1822 814 1782 942 c 1,5,6
 1776 922 1776 922 1776 892 c 0,7,8
 1776 834 1776 834 1803 801 c 128,-1,9
 1830 768 1830 768 1872 768 c 2,10,-1
 2158 768 l 1,11,-1
 2158 614 l 1,12,-1
 2048 614 l 1,13,-1
 2048 0 l 1,14,-1
 1894 0 l 1,15,-1
 1894 614 l 1,16,-1
 1698 614 l 2,17,18
 1664 614 1664 614 1628 602 c 1,19,20
 1728 486 1728 486 1728 326 c 0,21,22
 1728 178 1728 178 1670 86 c 0,23,24
 1604 -22 1604 -22 1474 -22 c 0,25,26
 1352 -22 1352 -22 1286 88 c 0,27,28
 1228 184 1228 184 1228 326 c 0,29,30
 1228 484 1228 484 1346 608 c 1,31,32
 1286 628 1286 628 1202 628 c 256,33,34
 1118 628 1118 628 1058 608 c 1,35,36
 1176 488 1176 488 1176 326 c 0,37,38
 1176 182 1176 182 1120 88 c 0,39,40
 1054 -22 1054 -22 932 -22 c 0,41,42
 802 -22 802 -22 736 86 c 0,43,44
 678 178 678 178 678 326 c 0,45,46
 678 482 678 482 774 600 c 1,47,48
 696 630 696 630 580 630 c 0,49,50
 358 630 358 630 260 488 c 1,51,52
 284 504 284 504 344 504 c 0,53,54
 456 504 456 504 536 428 c 128,-1,55
 616 352 616 352 616 240 c 0,56,57
 616 140 616 140 546 62 c 0,58,59
 470 -20 470 -20 354 -20 c 0,60,61
 232 -20 232 -20 146 80 c 0,62,63
 68 170 68 170 68 326 c 0,64,65
 68 550 68 550 230 672 c 0,66,67
 368 778 368 778 576 778 c 0,68,69
 782 778 782 778 908 712 c 1,70,71
 1034 778 1034 778 1206 778 c 0,72,73
 1336 778 1336 778 1488 712 c 1,74,75
 1528 732 1528 732 1552 740 c 0,76,77
 1598 758 1598 758 1656 764 c 1,78,79
 1622 830 1622 830 1622 900 c 0,80,81
 1622 1026 1622 1026 1707 1112 c 128,-1,82
 1792 1198 1792 1198 1926 1198 c 0,83,84
 2036 1198 2036 1198 2104 1144 c 128,-1,85
 2172 1090 2172 1090 2172 1002 c 0,0,1
2026 1004 m 0,86,87
 2026 1068 2026 1068 1962 1068 c 256,88,89
 1898 1068 1898 1068 1898 1004 c 0,90,91
 1898 978 1898 978 1917 959 c 128,-1,92
 1936 940 1936 940 1962 940 c 256,93,94
 1988 940 1988 940 2007 959 c 128,-1,95
 2026 978 2026 978 2026 1004 c 0,86,87
1574 326 m 0,96,97
 1574 446 1574 446 1486 530 c 1,98,99
 1382 440 1382 440 1382 326 c 0,100,101
 1382 132 1382 132 1476 132 c 0,102,103
 1574 132 1574 132 1574 326 c 0,96,97
1024 326 m 0,104,105
 1024 440 1024 440 918 528 c 1,106,107
 832 446 832 446 832 326 c 0,108,109
 832 132 832 132 928 132 c 256,110,111
 1024 132 1024 132 1024 326 c 0,104,105
462 242 m 0,112,113
 462 288 462 288 430 321 c 128,-1,114
 398 354 398 354 352 354 c 0,115,116
 304 354 304 354 271 321 c 128,-1,117
 238 288 238 288 238 242 c 256,118,119
 238 196 238 196 271 164 c 128,-1,120
 304 132 304 132 352 132 c 0,121,122
 398 132 398 132 430 165 c 128,-1,123
 462 198 462 198 462 242 c 0,112,113
EndSplineSet
Ligature2: "'abvs' Above Base Substitutions lookup 6 subtable" tm_nna tm_iikaar
EndChar

StartChar: tm_t_iikaar
Encoding: 65568 -1 148
Width: 1184
GlyphClass: 2
Flags: W
LayerCount: 2
Fore
SplineSet
1120 1002 m 0,0,1
 1120 922 1120 922 1060 868 c 128,-1,2
 1000 814 1000 814 916 814 c 0,3,4
 770 814 770 814 730 942 c 1,5,6
 724 900 724 900 724 892 c 0,7,8
 724 768 724 768 822 768 c 2,9,-1
 926 768 l 1,10,-1
 926 614 l 1,11,-1
 728 614 l 1,12,-1
 728 458 l 1,13,-1
 768 458 l 2,14,15
 916 458 916 458 1011 378 c 128,-1,16
 1106 298 1106 298 1106 156 c 2,17,-1
 1106 142 l 2,18,19
 1106 -16 1106 -16 976 -120 c 0,20,21
 858 -212 858 -212 700 -212 c 2,22,-1
 324 -212 l 2,23,24
 224 -212 224 -212 224 -292 c 2,25,-1
 224 -382 l 1,26,-1
 70 -382 l 1,27,-1
 70 -274 l 2,28,29
 70 -60 70 -60 324 -60 c 2,30,-1
 696 -60 l 2,31,32
 816 -60 816 -60 888 4 c 0,33,34
 954 62 954 62 954 150 c 2,35,-1
 954 156 l 2,36,37
 954 220 954 220 910 261 c 128,-1,38
 866 302 866 302 792 302 c 2,39,-1
 728 302 l 1,40,-1
 728 236 l 2,41,42
 728 116 728 116 636 46 c 0,43,44
 552 -18 552 -18 430 -18 c 0,45,46
 288 -18 288 -18 188 52 c 0,47,48
 74 132 74 132 74 268 c 0,49,50
 74 342 74 342 117 392 c 128,-1,51
 160 442 160 442 226 452 c 1,52,-1
 226 768 l 1,53,-1
 602 768 l 1,54,55
 572 826 572 826 572 900 c 0,56,57
 572 1026 572 1026 656 1112 c 128,-1,58
 740 1198 740 1198 874 1198 c 0,59,60
 984 1198 984 1198 1052 1144 c 128,-1,61
 1120 1090 1120 1090 1120 1002 c 0,0,1
974 1004 m 0,62,63
 974 1068 974 1068 910 1068 c 0,64,65
 884 1068 884 1068 865 1049 c 128,-1,66
 846 1030 846 1030 846 1004 c 256,67,68
 846 978 846 978 865 959 c 128,-1,69
 884 940 884 940 910 940 c 256,70,71
 936 940 936 940 955 959 c 128,-1,72
 974 978 974 978 974 1004 c 0,62,63
574 458 m 1,73,-1
 574 614 l 1,74,-1
 380 614 l 1,75,-1
 380 458 l 1,76,-1
 574 458 l 1,73,-1
574 244 m 2,77,-1
 574 302 l 1,78,-1
 288 302 l 2,79,80
 230 302 230 302 230 252 c 0,81,82
 230 206 230 206 289 171 c 128,-1,83
 348 136 348 136 430 136 c 0,84,85
 492 136 492 136 533 165 c 128,-1,86
 574 194 574 194 574 244 c 2,77,-1
EndSplineSet
Ligature2: "'abvs' Above Base Substitutions lookup 6 subtable" tm_ta tm_iikaar
EndChar

StartChar: tm_n_iikaar
Encoding: 65569 -1 149
Width: 1008
GlyphClass: 2
Flags: W
LayerCount: 2
Fore
SplineSet
964 156 m 0,0,1
 964 -20 964 -20 849 -116 c 128,-1,2
 734 -212 734 -212 540 -212 c 2,3,-1
 324 -212 l 2,4,5
 224 -212 224 -212 224 -292 c 2,6,-1
 224 -382 l 1,7,-1
 70 -382 l 1,8,-1
 70 -274 l 2,9,10
 70 -60 70 -60 324 -60 c 2,11,-1
 550 -60 l 2,12,13
 800 -60 800 -60 800 156 c 0,14,15
 800 302 800 302 664 302 c 0,16,17
 554 302 554 302 554 210 c 2,18,-1
 554 0 l 1,19,-1
 400 0 l 1,20,-1
 400 614 l 1,21,-1
 226 614 l 1,22,-1
 226 0 l 1,23,-1
 74 0 l 1,24,-1
 74 768 l 1,25,-1
 444 768 l 1,26,27
 412 830 412 830 412 900 c 0,28,29
 412 1026 412 1026 497 1112 c 128,-1,30
 582 1198 582 1198 716 1198 c 0,31,32
 826 1198 826 1198 894 1144 c 128,-1,33
 962 1090 962 1090 962 1002 c 0,34,35
 962 922 962 922 902 868 c 128,-1,36
 842 814 842 814 758 814 c 0,37,38
 616 814 616 814 572 942 c 1,39,40
 566 922 566 922 566 892 c 0,41,42
 566 768 566 768 664 768 c 2,43,-1
 802 768 l 1,44,-1
 802 614 l 1,45,-1
 554 614 l 1,46,-1
 554 428 l 1,47,48
 600 454 600 454 686 454 c 0,49,50
 800 454 800 454 880 374 c 0,51,52
 964 288 964 288 964 156 c 0,0,1
816 1004 m 256,53,54
 816 1030 816 1030 797 1049 c 128,-1,55
 778 1068 778 1068 752 1068 c 0,56,57
 688 1068 688 1068 688 1004 c 0,58,59
 688 978 688 978 707 959 c 128,-1,60
 726 940 726 940 752 940 c 256,61,62
 778 940 778 940 797 959 c 128,-1,63
 816 978 816 978 816 1004 c 256,53,54
EndSplineSet
Ligature2: "'abvs' Above Base Substitutions lookup 6 subtable" tm_na tm_iikaar
EndChar

StartChar: tm_nnn_iikaar
Encoding: 65570 -1 150
Width: 1686
GlyphClass: 2
Flags: W
LayerCount: 2
Fore
SplineSet
1632 1002 m 0,0,1
 1632 924 1632 924 1573 869 c 128,-1,2
 1514 814 1514 814 1430 814 c 0,3,4
 1284 814 1284 814 1244 942 c 1,5,6
 1238 922 1238 922 1238 892 c 0,7,8
 1238 768 1238 768 1334 768 c 2,9,-1
 1612 768 l 1,10,-1
 1612 614 l 1,11,-1
 1502 614 l 1,12,-1
 1502 0 l 1,13,-1
 1348 0 l 1,14,-1
 1348 614 l 1,15,-1
 1130 614 l 2,16,17
 1092 614 1092 614 1062 608 c 1,18,19
 1182 482 1182 482 1182 326 c 0,20,21
 1182 182 1182 182 1124 88 c 0,22,23
 1058 -22 1058 -22 934 -22 c 0,24,25
 806 -22 806 -22 738 86 c 0,26,27
 680 180 680 180 680 326 c 0,28,29
 680 476 680 476 774 602 c 1,30,31
 672 630 672 630 594 630 c 0,32,33
 370 630 370 630 270 486 c 1,34,35
 288 500 288 500 350 500 c 0,36,37
 470 500 470 500 546 422 c 0,38,39
 614 348 614 348 614 246 c 0,40,41
 614 136 614 136 542 59 c 128,-1,42
 470 -18 470 -18 358 -18 c 0,43,44
 226 -18 226 -18 148 83 c 128,-1,45
 70 184 70 184 70 340 c 0,46,47
 70 532 70 532 209 655 c 128,-1,48
 348 778 348 778 580 778 c 0,49,50
 794 778 794 778 906 720 c 1,51,52
 990 768 990 768 1112 768 c 2,53,-1
 1114 768 l 1,54,55
 1084 826 1084 826 1084 900 c 0,56,57
 1084 1026 1084 1026 1168 1112 c 128,-1,58
 1252 1198 1252 1198 1388 1198 c 0,59,60
 1498 1198 1498 1198 1565 1144 c 128,-1,61
 1632 1090 1632 1090 1632 1002 c 0,0,1
1488 1004 m 256,62,63
 1488 1030 1488 1030 1469 1049 c 128,-1,64
 1450 1068 1450 1068 1424 1068 c 0,65,66
 1360 1068 1360 1068 1360 1004 c 0,67,68
 1360 978 1360 978 1379 959 c 128,-1,69
 1398 940 1398 940 1424 940 c 256,70,71
 1450 940 1450 940 1469 959 c 128,-1,72
 1488 978 1488 978 1488 1004 c 256,62,63
1028 326 m 0,73,74
 1028 442 1028 442 920 528 c 1,75,76
 836 444 836 444 836 326 c 0,77,78
 836 132 836 132 934 132 c 0,79,80
 1028 132 1028 132 1028 326 c 0,73,74
458 240 m 256,81,82
 458 284 458 284 427 314 c 128,-1,83
 396 344 396 344 352 344 c 256,84,85
 308 344 308 344 278 314 c 128,-1,86
 248 284 248 284 248 240 c 256,87,88
 248 196 248 196 278 165 c 128,-1,89
 308 134 308 134 352 134 c 256,90,91
 396 134 396 134 427 165 c 128,-1,92
 458 196 458 196 458 240 c 256,81,82
EndSplineSet
Ligature2: "'abvs' Above Base Substitutions lookup 6 subtable" tm_nnna tm_iikaar
EndChar

StartChar: tm_p_iikaar
Encoding: 65571 -1 151
Width: 1066
GlyphClass: 2
Flags: W
LayerCount: 2
Fore
SplineSet
994 1002 m 0,0,1
 994 924 994 924 935 869 c 128,-1,2
 876 814 876 814 792 814 c 0,3,4
 644 814 644 814 608 942 c 1,5,6
 598 922 598 922 598 892 c 0,7,8
 598 726 598 726 828 724 c 1,9,-1
 828 768 l 1,10,-1
 982 768 l 1,11,-1
 982 0 l 1,12,-1
 80 0 l 1,13,-1
 80 768 l 1,14,-1
 234 768 l 1,15,-1
 234 154 l 1,16,-1
 828 154 l 1,17,-1
 828 576 l 1,18,19
 656 580 656 580 551 668 c 128,-1,20
 446 756 446 756 446 900 c 0,21,22
 446 1026 446 1026 531 1112 c 128,-1,23
 616 1198 616 1198 750 1198 c 0,24,25
 860 1198 860 1198 927 1144 c 128,-1,26
 994 1090 994 1090 994 1002 c 0,0,1
850 1004 m 256,27,28
 850 1030 850 1030 831 1049 c 128,-1,29
 812 1068 812 1068 786 1068 c 0,30,31
 722 1068 722 1068 722 1004 c 0,32,33
 722 978 722 978 741 959 c 128,-1,34
 760 940 760 940 786 940 c 256,35,36
 812 940 812 940 831 959 c 128,-1,37
 850 978 850 978 850 1004 c 256,27,28
EndSplineSet
Ligature2: "'abvs' Above Base Substitutions lookup 6 subtable" tm_pa tm_iikaar
EndChar

StartChar: tm_m_iikaar
Encoding: 65572 -1 152
Width: 1190
GlyphClass: 2
Flags: W
LayerCount: 2
Fore
SplineSet
1142 372 m 0,0,1
 1142 186 1142 186 1020 88 c 0,2,3
 914 0 914 0 740 0 c 2,4,-1
 68 0 l 1,5,-1
 68 768 l 1,6,-1
 220 768 l 1,7,-1
 220 154 l 1,8,-1
 496 154 l 1,9,-1
 496 546 l 2,10,11
 496 694 496 694 614 752 c 1,12,13
 572 808 572 808 572 900 c 0,14,15
 572 1026 572 1026 656 1112 c 128,-1,16
 740 1198 740 1198 874 1198 c 0,17,18
 984 1198 984 1198 1052 1144 c 128,-1,19
 1120 1090 1120 1090 1120 1002 c 0,20,21
 1120 922 1120 922 1060 868 c 128,-1,22
 1000 814 1000 814 916 814 c 0,23,24
 770 814 770 814 730 942 c 1,25,26
 724 900 724 900 724 892 c 0,27,28
 724 804 724 804 800 766 c 1,29,30
 942 736 942 736 1042 619 c 128,-1,31
 1142 502 1142 502 1142 372 c 0,0,1
974 1004 m 0,32,33
 974 1068 974 1068 910 1068 c 0,34,35
 884 1068 884 1068 865 1049 c 128,-1,36
 846 1030 846 1030 846 1004 c 256,37,38
 846 978 846 978 865 959 c 128,-1,39
 884 940 884 940 910 940 c 256,40,41
 936 940 936 940 955 959 c 128,-1,42
 974 978 974 978 974 1004 c 0,32,33
988 372 m 0,43,44
 988 468 988 468 903 542 c 128,-1,45
 818 616 818 616 726 616 c 0,46,47
 650 616 650 616 650 546 c 2,48,-1
 650 154 l 1,49,-1
 754 154 l 2,50,51
 988 154 988 154 988 372 c 0,43,44
EndSplineSet
Ligature2: "'abvs' Above Base Substitutions lookup 6 subtable" tm_ma tm_iikaar
EndChar

StartChar: tm_y_iikaar
Encoding: 65573 -1 153
Width: 1222
GlyphClass: 2
Flags: W
LayerCount: 2
Fore
SplineSet
1282 1002 m 0,0,1
 1282 934 1282 934 1232 880 c 0,2,3
 1174 814 1174 814 1078 814 c 0,4,5
 950 814 950 814 914 906 c 1,6,-1
 914 906 l 1,7,8
 910 886 910 886 910 868 c 0,9,10
 910 814 910 814 942 776 c 128,-1,11
 974 738 974 738 1016 728 c 1,12,-1
 1016 768 l 1,13,-1
 1170 768 l 1,14,-1
 1170 0 l 1,15,-1
 476 0 l 1,16,-1
 476 36 l 1,17,18
 402 -4 402 -4 324 -4 c 0,19,20
 204 -4 204 -4 128 62 c 0,21,22
 46 136 46 136 46 264 c 2,23,-1
 46 768 l 1,24,-1
 200 768 l 1,25,-1
 200 284 l 2,26,27
 200 152 200 152 324 152 c 0,28,29
 380 152 380 152 422 178 c 0,30,31
 476 212 476 212 476 280 c 2,32,-1
 476 768 l 1,33,-1
 630 768 l 1,34,-1
 630 154 l 1,35,-1
 1016 154 l 1,36,-1
 1016 580 l 1,37,38
 872 602 872 602 806 708 c 0,39,40
 756 786 756 786 756 888 c 0,41,42
 756 998 756 998 816 1084 c 0,43,44
 898 1202 898 1202 1064 1202 c 0,45,46
 1140 1202 1140 1202 1194 1170 c 0,47,48
 1282 1118 1282 1118 1282 1002 c 0,0,1
1136 1006 m 256,49,50
 1136 1032 1136 1032 1117 1051 c 128,-1,51
 1098 1070 1098 1070 1072 1070 c 0,52,53
 1008 1070 1008 1070 1008 1006 c 256,54,55
 1008 942 1008 942 1072 942 c 0,56,57
 1098 942 1098 942 1117 961 c 128,-1,58
 1136 980 1136 980 1136 1006 c 256,49,50
EndSplineSet
Ligature2: "'abvs' Above Base Substitutions lookup 6 subtable" tm_ya tm_iikaar
EndChar

StartChar: tm_r_iikaar
Encoding: 65574 -1 154
Width: 816
GlyphClass: 2
Flags: W
LayerCount: 2
Fore
SplineSet
828 1002 m 0,0,1
 828 934 828 934 780 880 c 0,2,3
 722 814 722 814 626 814 c 0,4,5
 498 814 498 814 464 906 c 0,6,7
 462 910 462 910 458 906 c 0,8,9
 452 892 452 892 456 860 c 0,10,11
 460 826 460 826 474 810 c 0,12,13
 498 782 498 782 534 768 c 1,14,-1
 760 768 l 1,15,-1
 760 614 l 1,16,-1
 578 614 l 1,17,-1
 578 -96 l 1,18,-1
 110 -332 l 1,19,-1
 42 -196 l 1,20,-1
 424 -2 l 1,21,-1
 424 614 l 1,22,-1
 214 614 l 1,23,-1
 214 0 l 1,24,-1
 60 0 l 1,25,-1
 60 768 l 1,26,-1
 338 768 l 1,27,28
 308 826 308 826 308 900 c 0,29,30
 308 1004 308 1004 366 1088 c 0,31,32
 448 1202 448 1202 612 1202 c 0,33,34
 688 1202 688 1202 742 1170 c 0,35,36
 828 1120 828 1120 828 1002 c 0,0,1
684 1006 m 256,37,38
 684 1070 684 1070 620 1070 c 256,39,40
 556 1070 556 1070 556 1006 c 256,41,42
 556 942 556 942 620 942 c 256,43,44
 684 942 684 942 684 1006 c 256,37,38
EndSplineSet
Ligature2: "'abvs' Above Base Substitutions lookup 5 subtable" tm_ra tm_iikaar
EndChar

StartChar: tm_rr_iikaar
Encoding: 65575 -1 155
Width: 1128
GlyphClass: 2
Flags: W
LayerCount: 2
Fore
SplineSet
1126 1002 m 0,0,1
 1126 924 1126 924 1067 869 c 128,-1,2
 1008 814 1008 814 924 814 c 0,3,4
 778 814 778 814 738 942 c 1,5,6
 732 922 732 922 732 892 c 0,7,8
 732 818 732 818 778 786 c 1,9,10
 912 764 912 764 993 647 c 128,-1,11
 1074 530 1074 530 1074 356 c 2,12,-1
 1074 270 l 2,13,14
 1074 38 1074 38 924 -92 c 0,15,16
 786 -212 786 -212 558 -212 c 2,17,-1
 314 -212 l 2,18,19
 216 -212 216 -212 216 -292 c 2,20,-1
 216 -382 l 1,21,-1
 60 -382 l 1,22,-1
 60 -274 l 2,23,24
 60 -60 60 -60 314 -60 c 2,25,-1
 608 -60 l 2,26,27
 740 -60 740 -60 827 29 c 128,-1,28
 914 118 914 118 914 284 c 2,29,-1
 914 310 l 2,30,31
 914 634 914 634 726 634 c 0,32,33
 666 634 666 634 630 588 c 128,-1,34
 594 542 594 542 594 468 c 2,35,-1
 594 0 l 1,36,-1
 440 0 l 1,37,-1
 440 500 l 2,38,39
 440 634 440 634 328 634 c 256,40,41
 216 634 216 634 216 500 c 2,42,-1
 216 0 l 1,43,-1
 62 0 l 1,44,-1
 62 508 l 2,45,46
 62 624 62 624 126 702 c 0,47,48
 200 788 200 788 328 788 c 256,49,50
 456 788 456 788 530 698 c 1,51,52
 578 748 578 748 612 764 c 1,53,54
 578 826 578 826 578 900 c 0,55,56
 578 1026 578 1026 663 1112 c 128,-1,57
 748 1198 748 1198 882 1198 c 0,58,59
 992 1198 992 1198 1059 1144 c 128,-1,60
 1126 1090 1126 1090 1126 1002 c 0,0,1
982 1004 m 0,61,62
 982 1068 982 1068 918 1068 c 0,63,64
 892 1068 892 1068 873 1049 c 128,-1,65
 854 1030 854 1030 854 1004 c 256,66,67
 854 978 854 978 873 959 c 128,-1,68
 892 940 892 940 918 940 c 256,69,70
 944 940 944 940 963 959 c 128,-1,71
 982 978 982 978 982 1004 c 0,61,62
EndSplineSet
Ligature2: "'abvs' Above Base Substitutions lookup 6 subtable" tm_rra tm_iikaar
EndChar

StartChar: tm_l_iikaar
Encoding: 65576 -1 156
Width: 1454
GlyphClass: 2
Flags: W
LayerCount: 2
Fore
SplineSet
1396 386 m 0,0,1
 1398 230 1398 230 1306 114 c 0,2,3
 1206 -12 1206 -12 1042 -12 c 0,4,5
 922 -12 922 -12 848 58 c 128,-1,6
 774 128 774 128 774 234 c 2,7,-1
 774 334 l 2,8,9
 774 624 774 624 500 624 c 0,10,11
 308 624 308 624 240 472 c 1,12,13
 286 500 286 500 364 500 c 0,14,15
 476 500 476 500 547 425 c 128,-1,16
 618 350 618 350 618 242 c 256,17,18
 618 134 618 134 550 62 c 0,19,20
 476 -18 476 -18 354 -18 c 256,21,22
 232 -18 232 -18 146 80 c 128,-1,23
 60 178 60 178 60 340 c 0,24,25
 60 538 60 538 190 662 c 0,26,27
 314 778 314 778 500 778 c 0,28,29
 706 778 706 778 824 644 c 0,30,31
 928 526 928 526 928 352 c 2,32,-1
 928 302 l 2,33,34
 928 142 928 142 1048 142 c 0,35,36
 1138 142 1138 142 1191 206 c 128,-1,37
 1244 270 1244 270 1244 386 c 0,38,39
 1244 508 1244 508 1184 586 c 1,40,41
 1018 590 1018 590 923 673 c 128,-1,42
 828 756 828 756 828 900 c 0,43,44
 828 1026 828 1026 913 1112 c 128,-1,45
 998 1198 998 1198 1134 1198 c 0,46,47
 1244 1198 1244 1198 1311 1144 c 128,-1,48
 1378 1090 1378 1090 1378 1002 c 0,49,50
 1378 924 1378 924 1319 869 c 128,-1,51
 1260 814 1260 814 1176 814 c 0,52,53
 1030 814 1030 814 990 942 c 1,54,55
 984 928 984 928 984 892 c 0,56,57
 984 768 984 768 1090 740 c 1,58,-1
 1132 806 l 1,59,60
 1392 692 1392 692 1396 386 c 0,0,1
1234 1004 m 256,61,62
 1234 1030 1234 1030 1215 1049 c 128,-1,63
 1196 1068 1196 1068 1170 1068 c 0,64,65
 1106 1068 1106 1068 1106 1004 c 0,66,67
 1106 978 1106 978 1125 959 c 128,-1,68
 1144 940 1144 940 1170 940 c 256,69,70
 1196 940 1196 940 1215 959 c 128,-1,71
 1234 978 1234 978 1234 1004 c 256,61,62
458 242 m 256,72,73
 458 288 458 288 425 321 c 128,-1,74
 392 354 392 354 346 354 c 256,75,76
 300 354 300 354 268 321 c 128,-1,77
 236 288 236 288 236 242 c 0,78,79
 236 198 236 198 269 165 c 128,-1,80
 302 132 302 132 346 132 c 0,81,82
 392 132 392 132 425 164 c 128,-1,83
 458 196 458 196 458 242 c 256,72,73
EndSplineSet
Ligature2: "'abvs' Above Base Substitutions lookup 5 subtable" tm_la tm_iikaar
EndChar

StartChar: tm_ll_iikaar
Encoding: 65577 -1 157
Width: 1552
GlyphClass: 2
Flags: W
LayerCount: 2
Fore
SplineSet
1520 1002 m 0,0,1
 1520 924 1520 924 1461 869 c 128,-1,2
 1402 814 1402 814 1318 814 c 0,3,4
 1170 814 1170 814 1134 942 c 1,5,6
 1126 924 1126 924 1126 892 c 0,7,8
 1126 768 1126 768 1224 768 c 2,9,-1
 1500 768 l 1,10,-1
 1500 614 l 1,11,-1
 1390 614 l 1,12,-1
 1390 0 l 1,13,-1
 1236 0 l 1,14,-1
 1236 614 l 1,15,-1
 958 614 l 1,16,-1
 958 0 l 1,17,-1
 804 0 l 1,18,-1
 804 338 l 2,19,20
 804 464 804 464 723 544 c 128,-1,21
 642 624 642 624 500 624 c 0,22,23
 306 624 306 624 242 472 c 1,24,25
 298 500 298 500 364 500 c 0,26,27
 478 500 478 500 548 425 c 128,-1,28
 618 350 618 350 618 242 c 0,29,30
 618 130 618 130 546 56 c 128,-1,31
 474 -18 474 -18 354 -18 c 0,32,33
 232 -18 232 -18 146 81 c 128,-1,34
 60 180 60 180 60 340 c 0,35,36
 60 526 60 526 176 650 c 0,37,38
 300 778 300 778 500 778 c 0,39,40
 682 778 682 778 802 678 c 1,41,-1
 802 768 l 1,42,-1
 1004 768 l 1,43,44
 972 830 972 830 972 900 c 0,45,46
 972 1026 972 1026 1056 1112 c 128,-1,47
 1140 1198 1140 1198 1276 1198 c 0,48,49
 1386 1198 1386 1198 1453 1144 c 128,-1,50
 1520 1090 1520 1090 1520 1002 c 0,0,1
1376 1004 m 256,51,52
 1376 1030 1376 1030 1357 1049 c 128,-1,53
 1338 1068 1338 1068 1312 1068 c 0,54,55
 1248 1068 1248 1068 1248 1004 c 0,56,57
 1248 978 1248 978 1267 959 c 128,-1,58
 1286 940 1286 940 1312 940 c 256,59,60
 1338 940 1338 940 1357 959 c 128,-1,61
 1376 978 1376 978 1376 1004 c 256,51,52
462 240 m 256,62,63
 462 284 462 284 432 314 c 128,-1,64
 402 344 402 344 358 344 c 256,65,66
 314 344 314 344 283 314 c 128,-1,67
 252 284 252 284 252 240 c 256,68,69
 252 196 252 196 283 165 c 128,-1,70
 314 134 314 134 358 134 c 256,71,72
 402 134 402 134 432 165 c 128,-1,73
 462 196 462 196 462 240 c 256,62,63
EndSplineSet
Ligature2: "'abvs' Above Base Substitutions lookup 6 subtable" tm_lla tm_iikaar
EndChar

StartChar: tm_lll_iikaar
Encoding: 65578 -1 158
Width: 1190
GlyphClass: 2
Flags: W
LayerCount: 2
Fore
SplineSet
1142 372 m 0,0,1
 1142 186 1142 186 1020 88 c 0,2,3
 914 0 914 0 740 0 c 2,4,-1
 650 0 l 1,5,6
 650 -74 650 -74 728 -74 c 2,7,-1
 854 -74 l 1,8,-1
 854 -224 l 1,9,-1
 742 -224 l 2,10,11
 682 -224 682 -224 667 -231 c 128,-1,12
 652 -238 652 -238 640 -272 c 0,13,14
 622 -324 622 -324 570 -364 c 0,15,16
 494 -422 494 -422 372 -422 c 2,17,-1
 352 -422 l 2,18,19
 224 -422 224 -422 150 -374 c 0,20,21
 68 -320 68 -320 68 -218 c 0,22,23
 68 -144 68 -144 110 -102 c 128,-1,24
 152 -60 152 -60 222 -60 c 2,25,-1
 316 -60 l 1,26,-1
 316 -188 l 1,27,-1
 256 -188 l 2,28,29
 220 -188 220 -188 220 -224 c 0,30,31
 220 -286 220 -286 362 -286 c 0,32,33
 432 -286 432 -286 472 -254 c 0,34,35
 502 -230 502 -230 508 -204 c 0,36,37
 520 -148 520 -148 586 -144 c 1,38,39
 496 -120 496 -120 496 0 c 1,40,-1
 68 0 l 1,41,-1
 68 768 l 1,42,-1
 220 768 l 1,43,-1
 220 154 l 1,44,-1
 496 154 l 1,45,-1
 496 546 l 2,46,47
 496 694 496 694 614 752 c 1,48,49
 572 808 572 808 572 900 c 0,50,51
 572 1026 572 1026 656 1112 c 128,-1,52
 740 1198 740 1198 874 1198 c 0,53,54
 984 1198 984 1198 1052 1144 c 128,-1,55
 1120 1090 1120 1090 1120 1002 c 0,56,57
 1120 922 1120 922 1060 868 c 128,-1,58
 1000 814 1000 814 916 814 c 0,59,60
 770 814 770 814 730 942 c 1,61,62
 724 900 724 900 724 892 c 0,63,64
 724 804 724 804 800 766 c 1,65,66
 942 736 942 736 1042 619 c 128,-1,67
 1142 502 1142 502 1142 372 c 0,0,1
974 1004 m 0,68,69
 974 1068 974 1068 910 1068 c 0,70,71
 884 1068 884 1068 865 1049 c 128,-1,72
 846 1030 846 1030 846 1004 c 256,73,74
 846 978 846 978 865 959 c 128,-1,75
 884 940 884 940 910 940 c 256,76,77
 936 940 936 940 955 959 c 128,-1,78
 974 978 974 978 974 1004 c 0,68,69
988 372 m 0,79,80
 988 468 988 468 903 542 c 128,-1,81
 818 616 818 616 726 616 c 0,82,83
 650 616 650 616 650 546 c 2,84,-1
 650 154 l 1,85,-1
 754 154 l 2,86,87
 988 154 988 154 988 372 c 0,79,80
EndSplineSet
Ligature2: "'abvs' Above Base Substitutions lookup 6 subtable" tm_llla tm_iikaar
EndChar

StartChar: tm_v_iikaar
Encoding: 65579 -1 159
Width: 1410
GlyphClass: 2
Flags: W
LayerCount: 2
Fore
SplineSet
1358 1002 m 0,0,1
 1358 922 1358 922 1298 868 c 128,-1,2
 1238 814 1238 814 1154 814 c 0,3,4
 1010 814 1010 814 970 942 c 1,5,6
 962 910 962 910 962 892 c 0,7,8
 962 726 962 726 1190 724 c 1,9,-1
 1190 768 l 1,10,-1
 1346 768 l 1,11,-1
 1346 0 l 1,12,-1
 728 0 l 1,13,-1
 728 138 l 1,14,15
 744 146 744 146 770 200 c 0,16,17
 804 268 804 268 804 338 c 0,18,19
 804 468 804 468 723 546 c 128,-1,20
 642 624 642 624 500 624 c 0,21,22
 306 624 306 624 238 470 c 1,23,24
 280 500 280 500 364 500 c 0,25,26
 480 500 480 500 552 420 c 0,27,28
 618 346 618 346 618 242 c 0,29,30
 618 134 618 134 548 60 c 0,31,32
 472 -18 472 -18 354 -18 c 0,33,34
 226 -18 226 -18 143 83 c 128,-1,35
 60 184 60 184 60 340 c 0,36,37
 60 522 60 522 176 646 c 0,38,39
 300 778 300 778 500 778 c 0,40,41
 706 778 706 778 832 652 c 128,-1,42
 958 526 958 526 958 344 c 0,43,44
 958 240 958 240 920 154 c 1,45,-1
 1190 154 l 1,46,-1
 1190 576 l 1,47,48
 1020 580 1020 580 915 668 c 128,-1,49
 810 756 810 756 810 900 c 0,50,51
 810 1026 810 1026 895 1112 c 128,-1,52
 980 1198 980 1198 1112 1198 c 0,53,54
 1222 1198 1222 1198 1290 1144 c 128,-1,55
 1358 1090 1358 1090 1358 1002 c 0,0,1
1212 1004 m 0,56,57
 1212 1068 1212 1068 1148 1068 c 0,58,59
 1086 1068 1086 1068 1086 1004 c 0,60,61
 1086 978 1086 978 1104 959 c 128,-1,62
 1122 940 1122 940 1148 940 c 256,63,64
 1174 940 1174 940 1193 959 c 128,-1,65
 1212 978 1212 978 1212 1004 c 0,56,57
462 240 m 256,66,67
 462 284 462 284 432 314 c 128,-1,68
 402 344 402 344 358 344 c 256,69,70
 314 344 314 344 283 314 c 128,-1,71
 252 284 252 284 252 240 c 256,72,73
 252 196 252 196 283 165 c 128,-1,74
 314 134 314 134 358 134 c 256,75,76
 402 134 402 134 432 165 c 128,-1,77
 462 196 462 196 462 240 c 256,66,67
EndSplineSet
Ligature2: "'abvs' Above Base Substitutions lookup 6 subtable" tm_va tm_iikaar
EndChar

StartChar: tm_ss_iikaar
Encoding: 65580 -1 160
Width: 1844
GlyphClass: 2
Flags: W
LayerCount: 2
Fore
SplineSet
1788 1002 m 0,0,1
 1788 934 1788 934 1740 880 c 0,2,3
 1682 814 1682 814 1586 814 c 0,4,5
 1458 814 1458 814 1424 906 c 0,6,7
 1422 910 1422 910 1418 906 c 0,8,9
 1412 894 1412 894 1416 860 c 0,10,11
 1422 826 1422 826 1436 811 c 128,-1,12
 1450 796 1450 796 1470 786 c 1,13,14
 1628 782 1628 782 1714 694 c 0,15,16
 1788 616 1788 616 1788 498 c 0,17,18
 1788 418 1788 418 1752 348 c 2,19,-1
 1652 154 l 1,20,-1
 1756 154 l 1,21,-1
 1756 0 l 1,22,-1
 1574 0 l 1,23,-1
 1404 -338 l 1,24,-1
 1268 -266 l 1,25,-1
 1402 0 l 1,26,-1
 728 0 l 1,27,-1
 728 146 l 1,28,29
 798 238 798 238 798 374 c 0,30,31
 798 454 798 454 754 518 c 0,32,33
 674 630 674 630 486 630 c 0,34,35
 310 630 310 630 252 490 c 1,36,-1
 254 488 l 1,37,38
 280 504 280 504 344 504 c 0,39,40
 456 504 456 504 536 428 c 128,-1,41
 616 352 616 352 616 240 c 0,42,43
 616 140 616 140 546 62 c 0,44,45
 470 -20 470 -20 354 -20 c 0,46,47
 232 -20 232 -20 146 80 c 128,-1,48
 60 180 60 180 60 358 c 0,49,50
 60 510 60 510 160 632 c 0,51,52
 280 778 280 778 492 778 c 0,53,54
 742 778 742 778 866 630 c 0,55,56
 956 520 956 520 956 368 c 0,57,58
 956 242 956 242 908 154 c 1,59,-1
 1180 154 l 1,60,61
 1104 262 1104 262 1102 406 c 0,62,63
 1098 656 1098 656 1312 752 c 1,64,65
 1268 816 1268 816 1268 900 c 0,66,67
 1268 1004 1268 1004 1326 1088 c 0,68,69
 1408 1202 1408 1202 1572 1202 c 0,70,71
 1648 1202 1648 1202 1702 1170 c 0,72,73
 1788 1118 1788 1118 1788 1002 c 0,0,1
1644 1006 m 256,74,75
 1644 1070 1644 1070 1580 1070 c 0,76,77
 1554 1070 1554 1070 1535 1051 c 128,-1,78
 1516 1032 1516 1032 1516 1006 c 256,79,80
 1516 980 1516 980 1535 961 c 128,-1,81
 1554 942 1554 942 1580 942 c 0,82,83
 1644 942 1644 942 1644 1006 c 256,74,75
1616 430 m 2,84,85
 1628 460 1628 460 1628 494 c 0,86,87
 1628 636 1628 636 1460 636 c 0,88,89
 1382 636 1382 636 1328 588 c 0,90,91
 1256 528 1256 528 1254 406 c 0,92,93
 1252 282 1252 282 1332 208 c 0,94,95
 1392 154 1392 154 1444 154 c 2,96,-1
 1478 154 l 1,97,-1
 1616 430 l 2,84,85
462 242 m 0,98,99
 462 288 462 288 430 321 c 128,-1,100
 398 354 398 354 352 354 c 0,101,102
 304 354 304 354 271 321 c 128,-1,103
 238 288 238 288 238 242 c 256,104,105
 238 196 238 196 271 164 c 128,-1,106
 304 132 304 132 352 132 c 0,107,108
 398 132 398 132 430 165 c 128,-1,109
 462 198 462 198 462 242 c 0,98,99
EndSplineSet
Ligature2: "'abvs' Above Base Substitutions lookup 6 subtable" tm_ssa tm_iikaar
EndChar

StartChar: tm_s_iikaar
Encoding: 65581 -1 161
Width: 1910
GlyphClass: 2
Flags: W
LayerCount: 2
Fore
SplineSet
2128 892 m 0,0,1
 2128 814 2128 814 2068 760 c 128,-1,2
 2008 706 2008 706 1924 706 c 0,3,4
 1782 706 1782 706 1738 834 c 1,5,6
 1734 778 1734 778 1792 674 c 0,7,8
 1854 562 1854 562 1854 422 c 0,9,10
 1854 234 1854 234 1757 111 c 128,-1,11
 1660 -12 1660 -12 1500 -12 c 0,12,13
 1382 -12 1382 -12 1307 58 c 128,-1,14
 1232 128 1232 128 1232 234 c 2,15,-1
 1232 454 l 2,16,17
 1232 630 1232 630 1094 630 c 0,18,19
 1028 630 1028 630 993 575 c 128,-1,20
 958 520 958 520 958 438 c 2,21,-1
 958 0 l 1,22,-1
 804 0 l 1,23,-1
 804 338 l 2,24,25
 804 464 804 464 723 544 c 128,-1,26
 642 624 642 624 500 624 c 0,27,28
 306 624 306 624 242 472 c 1,29,30
 298 500 298 500 364 500 c 0,31,32
 478 500 478 500 548 425 c 128,-1,33
 618 350 618 350 618 242 c 0,34,35
 618 130 618 130 546 56 c 128,-1,36
 474 -18 474 -18 354 -18 c 0,37,38
 232 -18 232 -18 146 81 c 128,-1,39
 60 180 60 180 60 340 c 0,40,41
 60 526 60 526 176 650 c 0,42,43
 300 778 300 778 500 778 c 0,44,45
 714 778 714 778 864 628 c 1,46,47
 912 778 912 778 1098 778 c 0,48,49
 1228 778 1228 778 1304 698 c 0,50,51
 1384 612 1384 612 1384 444 c 2,52,-1
 1384 302 l 2,53,54
 1384 142 1384 142 1506 142 c 0,55,56
 1594 142 1594 142 1647 224 c 128,-1,57
 1700 306 1700 306 1700 422 c 0,58,59
 1700 512 1700 512 1639 622 c 128,-1,60
 1578 732 1578 732 1578 790 c 0,61,62
 1578 916 1578 916 1663 1002 c 128,-1,63
 1748 1088 1748 1088 1882 1088 c 0,64,65
 1992 1088 1992 1088 2060 1034 c 128,-1,66
 2128 980 2128 980 2128 892 c 0,0,1
1982 894 m 256,67,68
 1982 920 1982 920 1963 939 c 128,-1,69
 1944 958 1944 958 1918 958 c 0,70,71
 1854 958 1854 958 1854 894 c 0,72,73
 1854 868 1854 868 1873 849 c 128,-1,74
 1892 830 1892 830 1918 830 c 256,75,76
 1944 830 1944 830 1963 849 c 128,-1,77
 1982 868 1982 868 1982 894 c 256,67,68
462 240 m 256,78,79
 462 284 462 284 432 314 c 128,-1,80
 402 344 402 344 358 344 c 256,81,82
 314 344 314 344 283 314 c 128,-1,83
 252 284 252 284 252 240 c 256,84,85
 252 196 252 196 283 165 c 128,-1,86
 314 134 314 134 358 134 c 256,87,88
 402 134 402 134 432 165 c 128,-1,89
 462 196 462 196 462 240 c 256,78,79
EndSplineSet
Ligature2: "'abvs' Above Base Substitutions lookup 5 subtable" tm_sa tm_iikaar
EndChar

StartChar: tm_h_iikaar
Encoding: 65582 -1 162
Width: 2178
GlyphClass: 2
Flags: W
LayerCount: 2
Fore
SplineSet
2190 1002 m 0,0,1
 2190 922 2190 922 2130 868 c 128,-1,2
 2070 814 2070 814 1986 814 c 0,3,4
 1842 814 1842 814 1802 942 c 1,5,6
 1794 924 1794 924 1794 892 c 0,7,8
 1794 816 1794 816 1844 782 c 1,9,10
 1972 758 1972 758 2049 642 c 128,-1,11
 2126 526 2126 526 2126 356 c 2,12,-1
 2126 270 l 2,13,14
 2126 38 2126 38 1976 -92 c 0,15,16
 1838 -212 1838 -212 1610 -212 c 2,17,-1
 314 -212 l 2,18,19
 216 -212 216 -212 216 -292 c 2,20,-1
 216 -382 l 1,21,-1
 60 -382 l 1,22,-1
 60 -274 l 2,23,24
 60 -60 60 -60 314 -60 c 2,25,-1
 1660 -60 l 2,26,27
 1790 -60 1790 -60 1874 26 c 0,28,29
 1966 120 1966 120 1966 284 c 2,30,-1
 1966 310 l 2,31,32
 1966 634 1966 634 1776 634 c 0,33,34
 1718 634 1718 634 1682 588 c 128,-1,35
 1646 542 1646 542 1646 468 c 2,36,-1
 1646 0 l 1,37,-1
 1492 0 l 1,38,-1
 1492 500 l 2,39,40
 1492 634 1492 634 1380 634 c 256,41,42
 1268 634 1268 634 1268 500 c 2,43,-1
 1268 0 l 1,44,-1
 728 0 l 1,45,-1
 728 138 l 1,46,47
 744 146 744 146 770 200 c 0,48,49
 804 268 804 268 804 338 c 0,50,51
 804 468 804 468 723 546 c 128,-1,52
 642 624 642 624 500 624 c 0,53,54
 306 624 306 624 238 470 c 1,55,56
 280 500 280 500 364 500 c 0,57,58
 480 500 480 500 552 420 c 0,59,60
 618 346 618 346 618 242 c 0,61,62
 618 134 618 134 548 60 c 0,63,64
 472 -18 472 -18 354 -18 c 0,65,66
 226 -18 226 -18 143 83 c 128,-1,67
 60 184 60 184 60 340 c 0,68,69
 60 522 60 522 176 646 c 0,70,71
 300 778 300 778 500 778 c 0,72,73
 706 778 706 778 832 652 c 128,-1,74
 958 526 958 526 958 344 c 0,75,76
 958 240 958 240 920 154 c 1,77,-1
 1114 154 l 1,78,-1
 1114 508 l 2,79,80
 1114 624 1114 624 1178 702 c 0,81,82
 1252 788 1252 788 1380 788 c 256,83,84
 1508 788 1508 788 1582 698 c 1,85,86
 1638 754 1638 754 1672 770 c 1,87,88
 1640 828 1640 828 1640 900 c 0,89,90
 1640 1026 1640 1026 1725 1112 c 128,-1,91
 1810 1198 1810 1198 1944 1198 c 0,92,93
 2054 1198 2054 1198 2122 1144 c 128,-1,94
 2190 1090 2190 1090 2190 1002 c 0,0,1
2044 1004 m 0,95,96
 2044 1068 2044 1068 1980 1068 c 256,97,98
 1916 1068 1916 1068 1916 1004 c 0,99,100
 1916 978 1916 978 1935 959 c 128,-1,101
 1954 940 1954 940 1980 940 c 256,102,103
 2006 940 2006 940 2025 959 c 128,-1,104
 2044 978 2044 978 2044 1004 c 0,95,96
462 240 m 256,105,106
 462 284 462 284 432 314 c 128,-1,107
 402 344 402 344 358 344 c 256,108,109
 314 344 314 344 283 314 c 128,-1,110
 252 284 252 284 252 240 c 256,111,112
 252 196 252 196 283 165 c 128,-1,113
 314 134 314 134 358 134 c 256,114,115
 402 134 402 134 432 165 c 128,-1,116
 462 196 462 196 462 240 c 256,105,106
EndSplineSet
Ligature2: "'abvs' Above Base Substitutions lookup 6 subtable" tm_ha tm_iikaar
EndChar

StartChar: tm_k_ukaar
Encoding: 65583 -1 163
Width: 1516
GlyphClass: 2
Flags: W
LayerCount: 2
Fore
SplineSet
1456 124 m 0,0,1
 1456 -128 1456 -128 1252 -274 c 0,2,3
 1066 -408 1066 -408 780 -408 c 0,4,5
 466 -408 466 -408 264 -220 c 128,-1,6
 62 -32 62 -32 62 274 c 0,7,8
 62 464 62 464 152 620 c 0,9,10
 210 724 210 724 292 788 c 1,11,-1
 388 670 l 1,12,13
 216 520 216 520 216 274 c 0,14,15
 216 32 216 32 376 -114 c 0,16,17
 530 -254 530 -254 780 -254 c 0,18,19
 1022 -254 1022 -254 1162 -153 c 128,-1,20
 1302 -52 1302 -52 1302 124 c 0,21,22
 1302 302 1302 302 1090 302 c 2,23,-1
 1042 302 l 1,24,-1
 1042 236 l 2,25,26
 1042 116 1042 116 948 46 c 0,27,28
 864 -18 864 -18 742 -18 c 0,29,30
 600 -18 600 -18 500 52 c 0,31,32
 386 132 386 132 386 268 c 0,33,34
 386 342 386 342 429 392 c 128,-1,35
 472 442 472 442 538 452 c 1,36,-1
 538 768 l 1,37,-1
 1238 768 l 1,38,-1
 1238 614 l 1,39,-1
 1042 614 l 1,40,-1
 1042 458 l 1,41,-1
 1090 458 l 2,42,43
 1242 458 1242 458 1346 372 c 0,44,45
 1456 278 1456 278 1456 124 c 0,0,1
886 458 m 1,46,-1
 886 614 l 1,47,-1
 692 614 l 1,48,-1
 692 458 l 1,49,-1
 886 458 l 1,46,-1
886 244 m 2,50,-1
 886 302 l 1,51,-1
 598 302 l 2,52,53
 542 302 542 302 542 252 c 0,54,55
 542 206 542 206 601 171 c 128,-1,56
 660 136 660 136 742 136 c 0,57,58
 804 136 804 136 845 165 c 128,-1,59
 886 194 886 194 886 244 c 2,50,-1
EndSplineSet
Ligature2: "'psts' Post Base Substitutions lookup 7 subtable" tm_ka tm_ukaar
EndChar

StartChar: tm_ng_ukaar
Encoding: 65584 -1 164
Width: 1296
GlyphClass: 2
Flags: W
LayerCount: 2
Fore
SplineSet
1251 -330 m 1,0,-1
 1090 -330 l 1,1,-1
 1090 0 l 1,2,-1
 680 0 l 1,3,-1
 680 154 l 1,4,-1
 710 154 l 2,5,6
 788 154 788 154 788 246 c 0,7,8
 788 294 788 294 753 323 c 128,-1,9
 718 352 718 352 664 352 c 0,10,11
 554 352 554 352 554 276 c 2,12,-1
 554 0 l 1,13,-1
 400 0 l 1,14,-1
 400 614 l 1,15,-1
 226 614 l 1,16,-1
 226 0 l 1,17,-1
 74 0 l 1,18,-1
 74 768 l 1,19,-1
 772 768 l 1,20,-1
 772 614 l 1,21,-1
 554 614 l 1,22,-1
 554 474 l 1,23,24
 590 498 590 498 676 498 c 0,25,26
 826 498 826 498 896 414 c 0,27,28
 952 350 952 350 952 246 c 0,29,30
 952 200 952 200 934 154 c 1,31,-1
 1090 154 l 1,32,-1
 1090 768 l 1,33,-1
 1248 768 l 1,34,-1
 1251 -330 l 1,0,-1
EndSplineSet
Ligature2: "'psts' Post Base Substitutions lookup 7 subtable" tm_nga tm_ukaar
EndChar

StartChar: tm_c_ukaar
Encoding: 65585 -1 165
Width: 1182
GlyphClass: 2
Flags: W
LayerCount: 2
Fore
SplineSet
1138 302 m 1,0,-1
 1032 302 l 1,1,-1
 1032 0 l 1,2,-1
 878 0 l 1,3,-1
 878 302 l 1,4,-1
 728 302 l 1,5,-1
 728 236 l 2,6,7
 728 116 728 116 636 46 c 0,8,9
 552 -18 552 -18 430 -18 c 0,10,11
 288 -18 288 -18 188 52 c 0,12,13
 74 132 74 132 74 268 c 0,14,15
 74 342 74 342 117 392 c 128,-1,16
 160 442 160 442 226 452 c 1,17,-1
 226 768 l 1,18,-1
 926 768 l 1,19,-1
 926 614 l 1,20,-1
 728 614 l 1,21,-1
 728 458 l 1,22,-1
 1138 458 l 1,23,-1
 1138 302 l 1,0,-1
574 458 m 1,24,-1
 574 614 l 1,25,-1
 380 614 l 1,26,-1
 380 458 l 1,27,-1
 574 458 l 1,24,-1
574 244 m 2,28,-1
 574 302 l 1,29,-1
 288 302 l 2,30,31
 230 302 230 302 230 252 c 0,32,33
 230 206 230 206 289 171 c 128,-1,34
 348 136 348 136 430 136 c 0,35,36
 492 136 492 136 533 165 c 128,-1,37
 574 194 574 194 574 244 c 2,28,-1
EndSplineSet
Ligature2: "'psts' Post Base Substitutions lookup 7 subtable" tm_ca tm_ukaar
EndChar

StartChar: glyph167
Encoding: 65586 -1 166
Width: 1012
GlyphClass: 2
Flags: W
LayerCount: 2
Fore
SplineSet
68 876 m 1,0,-1
 943 876 l 1,1,-1
 943 0 l 1,2,-1
 68 0 l 1,3,-1
 68 876 l 1,0,-1
873 70 m 1,4,-1
 873 804 l 1,5,-1
 138 804 l 1,6,-1
 138 70 l 1,7,-1
 873 70 l 1,4,-1
EndSplineSet
EndChar

StartChar: tm_ny_ukaar
Encoding: 65587 -1 167
Width: 1680
GlyphClass: 2
Flags: W
LayerCount: 2
Fore
SplineSet
1630 -231 m 1,0,-1
 1270 -231 l 1,1,2
 1110 -451 1110 -451 758 -451 c 0,3,4
 424 -451 424 -451 313 -386 c 128,-1,5
 202 -321 202 -321 202 -217 c 0,6,7
 202 -105 202 -105 364 -105 c 2,8,-1
 1166 -105 l 1,9,10
 1202 -33 1202 -33 1202 79 c 2,11,-1
 1202 97 l 1,12,13
 1207 262 1207 262 1177 303 c 0,14,15
 1146 344 1146 344 1092 344 c 0,16,17
 1006 344 1006 344 1006 258 c 2,18,-1
 1006 0 l 1,19,-1
 852 0 l 1,20,-1
 852 614 l 1,21,-1
 522 614 l 2,22,23
 432 614 432 614 366 572 c 0,24,25
 312 538 312 538 294 490 c 1,26,-1
 294 488 l 1,27,28
 324 504 324 504 384 504 c 0,29,30
 496 504 496 504 576 428 c 128,-1,31
 656 352 656 352 656 240 c 0,32,33
 656 140 656 140 586 62 c 0,34,35
 510 -20 510 -20 394 -20 c 0,36,37
 272 -20 272 -20 187 79 c 128,-1,38
 102 178 102 178 102 358 c 0,39,40
 102 512 102 512 200 626 c 0,41,42
 322 768 322 768 550 768 c 2,43,-1
 1116 768 l 1,44,-1
 1116 614 l 1,45,-1
 1006 614 l 1,46,-1
 1006 462 l 1,47,48
 1028 500 1028 500 1108 500 c 0,49,50
 1224 500 1224 500 1296 408 c 0,51,52
 1362 322 1362 322 1363 93 c 1,53,-1
 1364 93 l 1,54,-1
 1364 79 l 2,55,56
 1364 -27 1364 -27 1336 -105 c 1,57,-1
 1478 -105 l 1,58,-1
 1478 725 l 1,59,-1
 1630 725 l 1,60,-1
 1630 -231 l 1,0,-1
502 242 m 0,61,62
 502 288 502 288 470 321 c 128,-1,63
 438 354 438 354 392 354 c 256,64,65
 346 354 346 354 313 321 c 128,-1,66
 280 288 280 288 280 242 c 256,67,68
 280 196 280 196 313 164 c 128,-1,69
 346 132 346 132 392 132 c 256,70,71
 438 132 438 132 470 165 c 128,-1,72
 502 198 502 198 502 242 c 0,61,62
1064 -231 m 1,73,-1
 398 -231 l 2,74,75
 372 -231 372 -231 372 -245 c 0,76,77
 372 -261 372 -261 388 -271 c 0,78,79
 460 -313 460 -313 760 -313 c 0,80,81
 950 -313 950 -313 1064 -231 c 1,73,-1
EndSplineSet
Ligature2: "'psts' Post Base Substitutions lookup 7 subtable" tm_nya tm_ukaar
EndChar

StartChar: tm_tt_ukaar
Encoding: 65588 -1 168
Width: 1368
GlyphClass: 2
Flags: W
LayerCount: 2
Fore
SplineSet
1312 0 m 1,0,-1
 1158 0 l 1,1,-1
 1158 356 l 2,2,3
 1158 604 1158 604 1025 755 c 128,-1,4
 892 906 892 906 678 906 c 0,5,6
 472 906 472 906 344 770 c 0,7,8
 206 622 206 622 206 356 c 0,9,10
 206 96 206 96 307 -39 c 128,-1,11
 408 -174 408 -174 590 -174 c 0,12,13
 906 -174 906 -174 906 146 c 0,14,15
 906 228 906 228 864 274 c 0,16,17
 828 314 828 314 778 314 c 0,18,19
 670 314 670 314 670 186 c 2,20,-1
 670 0 l 1,21,-1
 516 0 l 1,22,-1
 516 734 l 1,23,-1
 670 734 l 1,24,-1
 670 432 l 1,25,26
 716 468 716 468 780 468 c 0,27,28
 902 468 902 468 984 381 c 128,-1,29
 1066 294 1066 294 1066 146 c 0,30,31
 1066 -72 1066 -72 940 -200 c 128,-1,32
 814 -328 814 -328 590 -328 c 0,33,34
 348 -328 348 -328 206 -156 c 0,35,36
 52 28 52 28 52 366 c 0,37,38
 52 686 52 686 242 880 c 0,39,40
 418 1058 418 1058 678 1058 c 0,41,42
 950 1058 950 1058 1122 884 c 0,43,44
 1312 694 1312 694 1312 356 c 2,45,-1
 1312 0 l 1,0,-1
EndSplineSet
Ligature2: "'psts' Post Base Substitutions lookup 7 subtable" tm_tta tm_ukaar
EndChar

StartChar: tm_nn_ukaar
Encoding: 65589 -1 169
Width: 2514
GlyphClass: 2
Flags: W
LayerCount: 2
Fore
SplineSet
2460 -188 m 1,0,-1
 1922 -188 l 1,1,2
 1594 -408 1594 -408 898 -408 c 0,3,4
 96 -408 96 -408 96 -118 c 0,5,6
 96 -62 96 -62 174 -62 c 2,7,-1
 1852 -62 l 1,8,9
 2028 72 2028 72 2028 302 c 2,10,-1
 2028 316 l 2,11,12
 2028 458 2028 458 1934 544 c 0,13,14
 1848 624 1848 624 1718 624 c 0,15,16
 1672 624 1672 624 1640 614 c 1,17,18
 1744 494 1744 494 1744 338 c 0,19,20
 1744 192 1744 192 1688 102 c 0,21,22
 1620 -4 1620 -4 1492 -4 c 0,23,24
 1368 -4 1368 -4 1302 104 c 0,25,26
 1246 198 1246 198 1246 338 c 0,27,28
 1246 498 1246 498 1356 614 c 1,29,30
 1312 632 1312 632 1206 632 c 2,31,-1
 1196 632 l 2,32,33
 1110 632 1110 632 1062 608 c 1,34,35
 1182 482 1182 482 1182 326 c 0,36,37
 1182 182 1182 182 1124 88 c 0,38,39
 1058 -22 1058 -22 934 -22 c 0,40,41
 806 -22 806 -22 738 86 c 0,42,43
 680 180 680 180 680 326 c 0,44,45
 680 476 680 476 774 602 c 1,46,47
 672 630 672 630 594 630 c 0,48,49
 370 630 370 630 270 486 c 1,50,51
 288 500 288 500 350 500 c 0,52,53
 470 500 470 500 546 422 c 0,54,55
 614 348 614 348 614 246 c 0,56,57
 614 136 614 136 542 59 c 128,-1,58
 470 -18 470 -18 358 -18 c 0,59,60
 226 -18 226 -18 148 83 c 128,-1,61
 70 184 70 184 70 340 c 0,62,63
 70 532 70 532 209 655 c 128,-1,64
 348 778 348 778 580 778 c 0,65,66
 794 778 794 778 906 720 c 1,67,68
 1018 778 1018 778 1196 778 c 2,69,-1
 1206 778 l 2,70,71
 1354 778 1354 778 1492 720 c 1,72,73
 1594 778 1594 778 1734 778 c 0,74,75
 1924 778 1924 778 2055 655 c 128,-1,76
 2186 532 2186 532 2186 336 c 2,77,-1
 2186 290 l 2,78,79
 2186 84 2186 84 2064 -62 c 1,80,-1
 2306 -62 l 1,81,-1
 2306 768 l 1,82,-1
 2460 768 l 1,83,-1
 2460 -188 l 1,0,-1
1592 338 m 0,84,85
 1592 468 1592 468 1496 540 c 1,86,87
 1400 464 1400 464 1400 338 c 0,88,89
 1400 148 1400 148 1494 148 c 0,90,91
 1592 148 1592 148 1592 338 c 0,84,85
1028 326 m 0,92,93
 1028 442 1028 442 920 528 c 1,94,95
 836 444 836 444 836 326 c 0,96,97
 836 132 836 132 934 132 c 0,98,99
 1028 132 1028 132 1028 326 c 0,92,93
458 240 m 256,100,101
 458 284 458 284 427 314 c 128,-1,102
 396 344 396 344 352 344 c 256,103,104
 308 344 308 344 278 314 c 128,-1,105
 248 284 248 284 248 240 c 256,106,107
 248 196 248 196 278 165 c 128,-1,108
 308 134 308 134 352 134 c 256,109,110
 396 134 396 134 427 165 c 128,-1,111
 458 196 458 196 458 240 c 256,100,101
1586 -188 m 1,112,-1
 336 -188 l 2,113,114
 324 -188 324 -188 324 -196 c 0,115,116
 324 -266 324 -266 900 -266 c 0,117,118
 1324 -266 1324 -266 1586 -188 c 1,112,-1
EndSplineSet
Ligature2: "'psts' Post Base Substitutions lookup 7 subtable" tm_nna tm_ukaar
EndChar

StartChar: tm_t_ukaar
Encoding: 65590 -1 170
Width: 1446
GlyphClass: 2
Flags: W
LayerCount: 2
Fore
SplineSet
1392 -188 m 1,0,-1
 1038 -188 l 1,1,2
 894 -408 894 -408 510 -408 c 0,3,4
 338 -408 338 -408 226 -342 c 128,-1,5
 114 -276 114 -276 114 -174 c 0,6,7
 114 -62 114 -62 276 -62 c 2,8,-1
 932 -62 l 1,9,10
 956 -10 956 -10 956 94 c 0,11,12
 956 190 956 190 901 246 c 128,-1,13
 846 302 846 302 752 302 c 2,14,-1
 728 302 l 1,15,-1
 728 236 l 2,16,17
 728 116 728 116 636 46 c 0,18,19
 552 -18 552 -18 430 -18 c 0,20,21
 288 -18 288 -18 188 52 c 0,22,23
 74 132 74 132 74 268 c 0,24,25
 74 342 74 342 117 392 c 128,-1,26
 160 442 160 442 226 452 c 1,27,-1
 226 768 l 1,28,-1
 926 768 l 1,29,-1
 926 614 l 1,30,-1
 728 614 l 1,31,-1
 728 458 l 1,32,-1
 752 458 l 2,33,34
 904 458 904 458 1008 364 c 0,35,36
 1118 264 1118 264 1118 102 c 0,37,38
 1118 4 1118 4 1096 -62 c 1,39,-1
 1238 -62 l 1,40,-1
 1238 768 l 1,41,-1
 1392 768 l 1,42,-1
 1392 -188 l 1,0,-1
574 458 m 1,43,-1
 574 614 l 1,44,-1
 380 614 l 1,45,-1
 380 458 l 1,46,-1
 574 458 l 1,43,-1
574 244 m 2,47,-1
 574 302 l 1,48,-1
 288 302 l 2,49,50
 230 302 230 302 230 252 c 0,51,52
 230 206 230 206 289 171 c 128,-1,53
 348 136 348 136 430 136 c 0,54,55
 492 136 492 136 533 165 c 128,-1,56
 574 194 574 194 574 244 c 2,47,-1
842 -188 m 1,57,-1
 310 -188 l 2,58,59
 286 -188 286 -188 286 -202 c 0,60,61
 286 -218 286 -218 302 -228 c 0,62,63
 374 -270 374 -270 514 -270 c 0,64,65
 730 -270 730 -270 842 -188 c 1,57,-1
EndSplineSet
Ligature2: "'psts' Post Base Substitutions lookup 7 subtable" tm_ta tm_ukaar
EndChar

